SinhalaBoilerplate-Regular.sfdir
StartChar: exclam
Encoding: 33 33 70
GlifName: exclam
Width: 254
VWidth: 0
Flags: W
LayerCount: 2
Fore
SplineSet
149 160 m 257
 155 335 166 468 182 617 c 257
 156 620 89 613 69 594 c 257
 75 470 81 307 86 159 c 257
 149 160 l 257
EndSplineSet
Refer: 123 46 N 1 0 0 1 0 -8 2
Validated: 41
PickledDataWithLists: "(dp1
S'com.schriftgestaltung.Glyphs.lastChange'
p2
S'2018-07-27 16:12:40 +0000'
p3
s."
EndChar
StartChar: numbersign
Encoding: 35 35 111
GlifName: numbersign
Width: 494
VWidth: 0
Flags: W
LayerCount: 2
Fore
SplineSet
301 539 m 257
 309 341 309 204 301 72 c 257
 322 73 352 78 378 79 c 257
 378 550 l 257
 301 539 l 257
112 536 m 257
 119 338 119 201 112 69 c 257
 132 70 156 75 182 76 c 257
 182 547 l 257
 112 536 l 257
22 365 m 257
 219 373 357 373 490 365 c 257
 488 386 484 416 482 442 c 257
 12 442 l 257
 22 365 l 257
25 176 m 257
 223 183 360 183 493 176 c 257
 491 196 487 219 485 246 c 257
 15 246 l 257
 25 176 l 257
EndSplineSet
Validated: 37
PickledDataWithLists: "(dp1
S'com.schriftgestaltung.Glyphs.lastChange'
p2
S'2018-07-27 16:12:40 +0000'
p3
s."
EndChar
StartChar: dollar
Encoding: 36 36 60
GlifName: dollar
Width: 469
VWidth: 0
Flags: W
LayerCount: 2
Fore
SplineSet
259 -88 m 257
 250 7 266 589 267 701 c 257
 249 698 223 695 203 693 c 257
 206 581 196 73 193 -93 c 257
 259 -88 l 257
420 170 m 256
 420 349 141 392 141 501 c 256
 141 544 182 580 233 575 c 256
 311 567 336 503 351 485 c 257
 297 609 l 257
 318 554 332 497 333 460 c 257
 404 452 l 257
 407 474 410 507 410 539 c 256
 410 558 409 577 407 591 c 257
 407 591 344 615 259 623 c 256
 126 635 55 546 55 466 c 256
 55 318 326 291 326 145 c 256
 326 98 293 43 224 45 c 256
 137 49 119 82 89 118 c 257
 97 75 91 51 136 40 c 257
 107 74 105 110 102 156 c 257
 34 164 l 257
 28 125 25 92 25 59 c 256
 25 43 25 28 27 17 c 257
 27 17 86 -7 210 -10 c 256
 366 -14 420 88 420 170 c 256
  PathStart: -2
EndSplineSet
Validated: 37
PickledDataWithLists: "(dp1
S'com.schriftgestaltung.Glyphs.lastChange'
p2
S'2018-07-27 16:12:40 +0000'
p3
s."
EndChar
StartChar: percent
Encoding: 37 37 122
GlifName: percent
Width: 861
VWidth: 0
Flags: W
LayerCount: 2
Fore
SplineSet
300 -62 m 257
 395 167 561 521 625 651 c 257
 540 648 l 257
 442 412 338 175 219 -62 c 257
 300 -62 l 257
345 446 m 256
 345 576 278 626 200 625 c 256
 109 624 47 557 46 438 c 256
 45 324 106 259 197 261 c 256
 275 263 345 324 345 446 c 256
  PathStart: -2
119 447 m 256
 119 527 146 578 196 578 c 256
 239 578 266 527 267 447 c 256
 268 377 248 312 196 312 c 256
 142 312 120 370 119 447 c 256
  PathStart: -2
815 174 m 256
 815 304 748 354 671 353 c 256
 580 353 517 286 517 166 c 256
 516 52 577 -12 668 -11 c 256
 745 -9 815 52 815 174 c 256
  PathStart: -2
590 176 m 256
 589 255 616 306 667 306 c 256
 710 306 737 256 738 175 c 256
 738 105 718 40 667 40 c 256
 613 40 591 99 590 176 c 256
  PathStart: -2
EndSplineSet
Validated: 41
PickledDataWithLists: "(dp1
S'com.schriftgestaltung.Glyphs.lastChange'
p2
S'2018-07-27 16:12:40 +0000'
p3
s."
EndChar
StartChar: ampersand
Encoding: 38 38 29
GlifName: ampersand
Width: 660
VWidth: 0
Flags: W
LayerCount: 2
Fore
SplineSet
127 479 m 256
 125 577 208 638 300 638 c 256
 467 638 459 460 460 437 c 257
 368 442 l 257
 372 485 371 587 296 587 c 256
 251 587 210 550 210 484 c 256
 210 370 375 192 606 1 c 257
 480 -1 l 257
 407 40 131 312 127 479 c 256
  PathStart: -2
269 335 m 257
 245 336 103 303 103 181 c 256
 103 119 152 81 217 81 c 256
 357 81 470 238 509 315 c 257
 524 303 535 286 539 259 c 257
 534 223 421 -11 202 -11 c 256
 98 -11 23 48 23 169 c 256
 23 306 185 382 233 382 c 257
 269 335 l 257
602 49 m 257
 618 0 l 257
 489 0 l 257
 504 72 l 257
 550 57 557 49 602 49 c 257
  PathStart: -2
EndSplineSet
Validated: 37
PickledDataWithLists: "(dp1
S'com.schriftgestaltung.Glyphs.lastChange'
p2
S'2018-07-27 16:12:40 +0000'
p3
sS'com.typemytype.robofont.layerData'
p4
(dp5
S'Jan 19 17, 12:12'
p6
(dp7
S'name'
p8
S'ampersand'
p9
sS'lib'
p10
(dp11
sS'unicodes'
p12
(lp13
sS'width'
p14
I600
sS'contours'
p15
(lp16
(dp17
S'points'
p18
(lp19
(dp20
S'y'
I216
sS'x'
I488
sS'smooth'
p21
I0
sa(dp22
S'y'
I477
sS'x'
I165
sg21
I0
sa(dp23
S'segmentType'
p24
S'curve'
p25
sS'x'
I165
sg21
I1
sS'y'
I651
sa(dp26
S'y'
I732
sS'x'
I165
sg21
I0
sa(dp27
S'y'
I750
sS'x'
I242
sg21
I0
sa(dp28
g24
S'curve'
p29
sS'x'
I274
sg21
I1
sS'y'
I750
sa(dp30
S'y'
I750
sS'x'
I309
sg21
I0
sa(dp31
S'y'
I735
sS'x'
I374
sg21
I0
sa(dp32
g24
S'curve'
p33
sS'x'
I374
sg21
I1
sS'y'
I654
sa(dp34
S'y'
I489
sS'x'
I374
sg21
I0
sa(dp35
S'y'
I410
sS'x'
I-38
sg21
I0
sa(dp36
g24
S'curve'
p37
sS'x'
I-38
sg21
I1
sS'y'
I192
sa(dp38
S'y'
I64
sS'x'
I-38
sg21
I0
sa(dp39
S'y'
I-2
sS'x'
I72
sg21
I0
sa(dp40
g24
S'curve'
p41
sS'x'
I203
sg21
I1
sS'y'
I-2
sa(dp42
S'y'
I-2
sS'x'
I425
sg21
I0
sa(dp43
S'y'
I157
sS'x'
I505
sg21
I0
sa(dp44
g24
S'curve'
p45
sS'x'
I614
sg21
I0
sS'y'
I382
sa(dp46
S'y'
I394
sS'x'
I585
sg21
I0
sa(dp47
S'y'
I411
sS'x'
I537
sg21
I0
sa(dp48
g24
S'curve'
p49
sS'x'
I481
sg21
I0
sS'y'
I401
sa(dp50
S'y'
I245
sS'x'
I453
sg21
I0
sa(dp51
S'y'
I86
sS'x'
I412
sg21
I0
sa(dp52
g24
S'curve'
p53
sS'x'
I236
sg21
I1
sS'y'
I86
sa(dp54
S'y'
I86
sS'x'
I147
sg21
I0
sa(dp55
S'y'
I138
sS'x'
I96
sg21
I0
sa(dp56
g24
S'curve'
p57
sS'x'
I96
sg21
I1
sS'y'
I200
sa(dp58
S'y'
I448
sS'x'
I96
sg21
I0
sa(dp59
S'y'
I438
sS'x'
I471
sg21
I0
sa(dp60
g24
S'curve'
p61
sS'x'
I471
sg21
I1
sS'y'
I668
sa(dp62
S'y'
I780
sS'x'
I471
sg21
I0
sa(dp63
S'y'
I816
sS'x'
I353
sg21
I0
sa(dp64
g24
S'curve'
p65
sS'x'
I270
sg21
I1
sS'y'
I816
sa(dp66
S'y'
I816
sS'x'
I158
sg21
I0
sa(dp67
S'y'
I765
sS'x'
I48
sg21
I0
sa(dp68
g24
S'curve'
p69
sS'x'
I48
sg21
I1
sS'y'
I638
sa(dp70
S'y'
I441
sS'x'
I48
sg21
I0
sa(dp71
S'y'
I52
sS'x'
I471
sg21
I0
sa(dp72
g24
S'curve'
p73
sS'x'
I505
sg21
I0
sS'y'
I-3
sa(dp74
g24
S'line'
p75
sS'x'
I646
sg21
I0
sS'y'
I1
sasasS'components'
p76
(lp77
sS'anchors'
p78
(lp79
sss."
EndChar
StartChar: quotesingle
Encoding: 39 39 139
GlifName: quotesingle
Width: 158
VWidth: 0
Flags: W
LayerCount: 2
Fore
SplineSet
132 601 m 257
 102 624 54 610 41 599 c 257
 38 550 28 480 20 424 c 257
 52 410 l 257
 81 457 122 546 132 601 c 257
  PathStart: -2
EndSplineSet
Validated: 41
PickledDataWithLists: "(dp1
S'com.schriftgestaltung.Glyphs.lastChange'
p2
S'2018-07-27 16:12:40 +0000'
p3
s."
EndChar
StartChar: parenleft
Encoding: 40 40 120
GlifName: parenleft
Width: 286
VWidth: 0
Flags: W
LayerCount: 2
Fore
SplineSet
246 -85 m 257
 166 14 156 147 155 248 c 256
 153 372 196 552 259 654 c 257
 204 680 l 257
 112 536 49 356 62 181 c 256
 74 32 153 -91 198 -126 c 257
 246 -85 l 257
EndSplineSet
Validated: 41
PickledDataWithLists: "(dp1
S'com.schriftgestaltung.Glyphs.lastChange'
p2
S'2018-07-27 16:12:40 +0000'
p3
s."
EndChar
StartChar: parenright
Encoding: 41 41 121
GlifName: parenright
Width: 286
VWidth: 0
Flags: W
LayerCount: 2
Fore
SplineSet
236 377 m 256
 225 526 142 629 101 666 c 257
 53 627 l 257
 126 536 149 418 148 310 c 256
 146 186 102 28 40 -73 c 257
 90 -102 l 257
 182 42 250 202 236 377 c 256
  PathStart: -2
EndSplineSet
Validated: 41
PickledDataWithLists: "(dp1
S'com.schriftgestaltung.Glyphs.lastChange'
p2
S'2018-07-27 16:12:40 +0000'
p3
s."
EndChar
StartChar: asterisk
Encoding: 42 42 33
GlifName: asterisk
Width: 289
VWidth: 0
Flags: W
LayerCount: 2
Fore
SplineSet
206 450 m 257
 194 485 180 527 179 561 c 257
 172 547 l 257
 195 538 259 534 286 541 c 257
 285 551 284 554 283 567 c 257
 254 571 206 582 182 597 c 257
 182 584 l 257
 208 626 215 666 220 694 c 257
 199 707 l 257
 192 685 154 625 132 608 c 257
 154 609 l 257
 119 645 74 661 45 671 c 257
 27 653 l 257
 52 638 103 595 119 564 c 257
 119 557 109 592 109 586 c 257
 79 567 43 531 22 502 c 257
 39 482 l 257
 69 510 108 533 143 544 c 257
 127 551 l 257
 130 526 157 460 178 444 c 257
 206 450 l 257
EndSplineSet
Validated: 37
PickledDataWithLists: "(dp1
S'com.schriftgestaltung.Glyphs.lastChange'
p2
S'2018-07-27 16:12:40 +0000'
p3
s."
EndChar
StartChar: plus
Encoding: 43 43 127
GlifName: plus
Width: 492
VWidth: 0
Flags: W
LayerCount: 2
Fore
SplineSet
214 434 m 257
 219 313 217 139 214 19 c 257
 290 22 l 257
 286 129 286 300 290 437 c 257
 214 434 l 257
59 190 m 257
 161 194 312 194 450 190 c 257
 457 265 l 257
 336 261 179 261 60 265 c 257
 59 190 l 257
EndSplineSet
Validated: 37
PickledDataWithLists: "(dp1
S'com.schriftgestaltung.Glyphs.lastChange'
p2
S'2018-07-27 16:12:40 +0000'
p3
s."
EndChar
StartChar: comma
Encoding: 44 44 50
GlifName: comma
Width: 215
VWidth: 0
Flags: W
LayerCount: 2
Fore
SplineSet
144 86 m 257
 119 93 85 95 55 91 c 257
 51 37 36 -30 18 -81 c 257
 37 -94 43 -101 62 -104 c 257
 88 -72 128 1 144 86 c 257
  PathStart: -2
EndSplineSet
Validated: 41
PickledDataWithLists: "(dp1
S'com.schriftgestaltung.Glyphs.lastChange'
p2
S'2018-07-27 16:12:40 +0000'
p3
s."
EndChar
StartChar: hyphen
Encoding: 45 45 93
GlifName: hyphen
Width: 453
VWidth: 0
Flags: W
LayerCount: 2
Fore
SplineSet
399 264 m 257
 400 290 405 312 407 333 c 257
 274 325 196 325 47 333 c 257
 36 264 l 257
 399 264 l 257
EndSplineSet
Validated: 41
PickledDataWithLists: "(dp1
S'com.schriftgestaltung.Glyphs.lastChange'
p2
S'2018-07-27 16:12:40 +0000'
p3
s."
EndChar
StartChar: period
Encoding: 46 46 123
GlifName: period
Width: 180
VWidth: 0
Flags: W
LayerCount: 2
Fore
SplineSet
150 38 m 256
 150 76 120 96 91 96 c 256
 54 96 30 72 30 36 c 256
 30 -2 59 -22 91 -22 c 256
 126 -22 150 0 150 38 c 256
  PathStart: -2
EndSplineSet
Validated: 9
PickledDataWithLists: "(dp1
S'com.schriftgestaltung.Glyphs.lastChange'
p2
S'2018-07-27 16:12:40 +0000'
p3
s."
EndChar
StartChar: slash
Encoding: 47 47 662
GlifName: slash
Width: 410
VWidth: 0
Flags: W
LayerCount: 2
Fore
SplineSet
81 -62 m 257
 176 167 342 521 406 651 c 257
 328 648 l 257
 230 412 126 175 7 -62 c 257
 81 -62 l 257
EndSplineSet
Validated: 9
PickledDataWithLists: "(dp1
S'com.schriftgestaltung.Glyphs.lastChange'
p2
S'2018-07-27 16:12:40 +0000'
p3
s."
EndChar
StartChar: zero
Encoding: 48 48 683
GlifName: zero
Width: 536
VWidth: 0
Flags: W
LayerCount: 2
Fore
SplineSet
483 315 m 256
 483 528 387 623 266 622 c 256
 131 621 30 516 29 307 c 256
 28 112 116 -7 264 -4 c 256
 383 -2 483 108 483 315 c 256
  PathStart: -2
125 298 m 256
 123 490 178 565 257 566 c 256
 330 567 390 478 390 316 c 256
 390 158 343 60 264 59 c 256
 173 59 126 152 125 298 c 256
  PathStart: -2
EndSplineSet
Validated: 41
PickledDataWithLists: "(dp1
S'com.schriftgestaltung.Glyphs.lastChange'
p2
S'2018-07-27 16:12:40 +0000'
p3
s."
EndChar
StartChar: one
Encoding: 49 49 114
GlifName: one
Width: 325
VWidth: 0
Flags: W
LayerCount: 2
Fore
SplineSet
223 116 m 256
 226 286 227 574 233 635 c 257
 233 635 73 594 26 596 c 257
 31 549 l 257
 86 549 137 534 141 499 c 256
 146 449 153 260 140 110 c 256
 136 57 95 44 50 47 c 257
 55 0 l 257
 302 0 l 257
 294 49 l 257
 273 48 221 43 223 116 c 256
  PathStart: -2
EndSplineSet
Validated: 41
PickledDataWithLists: "(dp1
S'com.schriftgestaltung.Glyphs.lastChange'
p2
S'2018-07-27 16:12:40 +0000'
p3
s."
EndChar
StartChar: two
Encoding: 50 50 673
GlifName: two
Width: 501
VWidth: 0
Flags: W
LayerCount: 2
Fore
SplineSet
467 0 m 257
 474 145 l 257
 411 138 l 257
 406 116 399 69 339 68 c 258
 134 62 l 257
 125 46 l 257
 273 130 455 303 454 470 c 256
 453 592 395 633 267 631 c 256
 211 631 112 611 64 588 c 257
 64 588 62 538 66 487 c 257
 126 494 l 257
 143 556 176 576 233 577 c 256
 318 578 350 517 350 447 c 256
 350 288 196 167 41 58 c 257
 52 0 l 257
 467 0 l 257
EndSplineSet
Validated: 37
PickledDataWithLists: "(dp1
S'com.schriftgestaltung.Glyphs.lastChange'
p2
S'2018-07-27 16:12:40 +0000'
p3
s."
EndChar
StartChar: three
Encoding: 51 51 669
GlifName: three
Width: 476
VWidth: 0
Flags: W
LayerCount: 2
Fore
SplineSet
440 186 m 256
 440 273 372 336 266 336 c 256
 255 336 244 335 233 334 c 257
 241 323 l 257
 349 342 416 417 416 504 c 256
 416 584 369 634 253 634 c 256
 183 634 115 614 75 596 c 257
 75 596 74 580 74 557 c 256
 74 537 75 519 77 494 c 257
 136 504 l 257
 146 563 178 586 233 586 c 256
 283 586 321 555 321 493 c 256
 321 412 273 367 160 350 c 257
 166 296 l 257
 275 298 352 249 352 163 c 256
 352 95 313 52 238 52 c 256
 169 52 109 92 90 132 c 257
 77 104 68 52 68 22 c 256
 68 17 69 13 69 9 c 257
 97 2 160 -7 215 -7 c 256
 344 -7 440 62 440 186 c 256
  PathStart: -1
EndSplineSet
Validated: 37
PickledDataWithLists: "(dp1
S'com.schriftgestaltung.Glyphs.lastChange'
p2
S'2018-07-27 16:12:40 +0000'
p3
s."
EndChar
StartChar: four
Encoding: 52 52 81
GlifName: four
Width: 567
VWidth: 0
Flags: W
LayerCount: 2
Fore
SplineSet
533 179 m 257
 523 253 l 257
 444 247 180 243 74 245 c 257
 69 199 l 257
 159 312 331 547 360 627 c 257
 306 629 278 625 250 618 c 257
 212 526 129 409 23 207 c 257
 46 177 l 257
 533 179 l 257
395 -9 m 257
 394 195 398 264 409 431 c 257
 360 417 329 388 329 388 c 257
 332 300 324 199 315 -9 c 257
 395 -9 l 257
EndSplineSet
Validated: 37
PickledDataWithLists: "(dp1
S'com.schriftgestaltung.Glyphs.lastChange'
p2
S'2018-07-27 16:12:40 +0000'
p3
s."
EndChar
StartChar: five
Encoding: 53 53 78
GlifName: five
Width: 458
VWidth: 0
Flags: W
LayerCount: 2
Fore
SplineSet
410 216 m 256
 410 324 313 417 122 417 c 257
 126 546 l 257
 241 546 259 546 364 540 c 257
 367 627 l 257
 315 624 239 621 169 621 c 256
 124 621 96 621 71 622 c 257
 65 534 68 470 59 360 c 257
 223 365 311 289 311 193 c 256
 311 123 280 62 193 62 c 256
 140 62 68 80 35 115 c 257
 23 95 18 68 18 41 c 256
 18 31 20 14 22 6 c 257
 36 -2 79 -7 126 -7 c 256
 298 -7 410 79 410 216 c 256
  PathStart: -1
EndSplineSet
Validated: 41
PickledDataWithLists: "(dp1
S'com.schriftgestaltung.Glyphs.lastChange'
p2
S'2018-07-27 16:12:40 +0000'
p3
s."
EndChar
StartChar: six
Encoding: 54 54 661
GlifName: six
Width: 507
VWidth: 0
Flags: W
LayerCount: 2
Fore
SplineSet
460 188 m 256
 460 332 369 385 276 385 c 256
 227 385 152 364 109 279 c 257
 108 278 127 243 126 243 c 257
 150 282 196 321 255 321 c 256
 313 321 367 286 367 192 c 256
 367 97 333 46 267 46 c 256
 186 45 147 134 147 244 c 256
 147 393 203 550 393 571 c 257
 387 621 l 257
 180 614 51 447 55 236 c 256
 57 117 116 -11 266 -11 c 256
 397 -11 460 87 460 188 c 256
  PathStart: -2
EndSplineSet
Validated: 37
PickledDataWithLists: "(dp1
S'com.schriftgestaltung.Glyphs.lastChange'
p2
S'2018-07-27 16:12:40 +0000'
p3
s."
EndChar
StartChar: seven
Encoding: 55 55 147
GlifName: seven
Width: 483
VWidth: 0
Flags: W
LayerCount: 2
Fore
SplineSet
460 584 m 257
 424 625 l 257
 351 619 188 614 45 620 c 257
 39 481 l 257
 98 485 l 257
 104 507 105 554 146 557 c 257
 89 549 l 257
 400 549 l 257
 399 571 l 257
 283 473 167 188 132 34 c 257
 143 14 186 2 223 2 c 257
 269 239 374 476 460 584 c 257
  PathStart: -2
EndSplineSet
Validated: 37
PickledDataWithLists: "(dp1
S'com.schriftgestaltung.Glyphs.lastChange'
p2
S'2018-07-27 16:12:40 +0000'
p3
s."
EndChar
StartChar: eight
Encoding: 56 56 64
GlifName: eight
Width: 462
VWidth: 0
Flags: W
LayerCount: 2
Fore
SplineSet
425 162 m 256
 425 341 138 342 138 488 c 256
 138 540 172 581 228 581 c 256
 283 581 321 536 321 474 c 256
 321 407 283 360 239 343 c 257
 260 320 l 257
 310 325 397 380 397 482 c 256
 397 576 325 628 234 628 c 256
 142 628 58 567 58 464 c 256
 58 284 333 290 333 152 c 256
 333 93 296 42 233 42 c 256
 172 42 126 79 126 150 c 256
 126 226 181 278 222 300 c 257
 209 322 l 257
 99 315 42 232 42 153 c 256
 42 71 102 -7 234 -7 c 256
 346 -7 425 59 425 162 c 256
  PathStart: -2
EndSplineSet
Validated: 5
PickledDataWithLists: "(dp1
S'com.schriftgestaltung.Glyphs.lastChange'
p2
S'2018-07-27 16:12:40 +0000'
p3
sS'com.typemytype.robofont.layerData'
p4
(dp5
S'Jan 19 17, 19:20'
p6
(dp7
S'name'
p8
S'eight'
p9
sS'lib'
p10
(dp11
sS'unicodes'
p12
(lp13
sS'width'
p14
I626
sS'contours'
p15
(lp16
(dp17
S'points'
p18
(lp19
(dp20
S'y'
I-25
sS'x'
I455
sS'smooth'
p21
I0
sa(dp22
S'y'
I55
sS'x'
I566
sg21
I0
sa(dp23
S'segmentType'
p24
S'curve'
p25
sS'x'
I566
sg21
I1
sS'y'
I202
sa(dp26
S'y'
I442
sS'x'
I566
sg21
I0
sa(dp27
S'y'
I417
sS'x'
I204
sg21
I0
sa(dp28
g24
S'curve'
p29
sS'x'
I185
sg21
I1
sS'y'
I605
sa(dp30
S'y'
I609
sS'x'
I185
sg21
I0
sa(dp31
S'y'
I614
sS'x'
I184
sg21
I0
sa(dp32
g24
S'curve'
p33
sS'x'
I184
sg21
I1
sS'y'
I618
sa(dp34
S'y'
I685
sS'x'
I184
sg21
I0
sa(dp35
S'y'
I739
sS'x'
I234
sg21
I0
sa(dp36
g24
S'curve'
p37
sS'x'
I309
sg21
I1
sS'y'
I739
sa(dp38
S'y'
I739
sS'x'
I388
sg21
I0
sa(dp39
S'y'
I680
sS'x'
I435
sg21
I0
sa(dp40
g24
S'curve'
p41
sS'x'
I435
sg21
I1
sS'y'
I600
sa(dp42
S'y'
I512
sS'x'
I435
sg21
I0
sa(dp43
S'y'
I442
sS'x'
I378
sg21
I0
sa(dp44
g24
S'curve'
p45
sS'x'
I320
sg21
I0
sS'y'
I420
sa(dp46
g24
S'line'
p47
sS'x'
I348
sg21
I0
sS'y'
I390
sa(dp48
S'y'
I396
sS'x'
I420
sg21
I0
sa(dp49
S'y'
I471
sS'x'
I539
sg21
I0
sa(dp50
g24
S'curve'
p51
sS'x'
I539
sg21
I1
sS'y'
I604
sa(dp52
S'y'
I726
sS'x'
I539
sg21
I0
sa(dp53
S'y'
I799
sS'x'
I439
sg21
I0
sa(dp54
g24
S'curve'
p55
sS'x'
I318
sg21
I1
sS'y'
I799
sa(dp56
S'y'
I799
sS'x'
I187
sg21
I0
sa(dp57
S'y'
I720
sS'x'
I77
sg21
I0
sa(dp58
g24
S'curve'
p59
sS'x'
I77
sg21
I1
sS'y'
I587
sa(dp60
S'y'
I333
sS'x'
I77
sg21
I0
sa(dp61
S'y'
I400
sS'x'
I423
sg21
I0
sa(dp62
g24
S'curve'
p63
sS'x'
I437
sg21
I1
sS'y'
I192
sa(dp64
S'y'
I121
sS'x'
I442
sg21
I0
sa(dp65
S'y'
I38
sS'x'
I405
sg21
I0
sa(dp66
g24
S'curve'
p67
sS'x'
I302
sg21
I1
sS'y'
I38
sa(dp68
S'y'
I38
sS'x'
I214
sg21
I0
sa(dp69
S'y'
I107
sS'x'
I167
sg21
I0
sa(dp70
g24
S'curve'
p71
sS'x'
I167
sg21
I1
sS'y'
I189
sa(dp72
S'y'
I286
sS'x'
I167
sg21
I0
sa(dp73
S'y'
I332
sS'x'
I235
sg21
I0
sa(dp74
g24
S'curve'
p75
sS'x'
I288
sg21
I0
sS'y'
I360
sa(dp76
g24
S'line'
p77
sS'x'
I282
sg21
I0
sS'y'
I392
sa(dp78
S'y'
I383
sS'x'
I133
sg21
I0
sa(dp79
S'y'
I280
sS'x'
I48
sg21
I0
sa(dp80
g24
S'curve'
p81
sS'x'
I48
sg21
I1
sS'y'
I173
sa(dp82
S'y'
I71
sS'x'
I48
sg21
I0
sa(dp83
S'y'
I-25
sS'x'
I125
sg21
I0
sa(dp84
g24
S'curve'
p85
sS'x'
I293
sg21
I1
sS'y'
I-25
sasasS'components'
p86
(lp87
sS'anchors'
p88
(lp89
sss."
EndChar
StartChar: nine
Encoding: 57 57 109
GlifName: nine
Width: 487
VWidth: 0
Flags: W
LayerCount: 2
Fore
SplineSet
453 392 m 256
 453 488 407 621 251 621 c 256
 118 621 58 515 58 407 c 256
 58 272 153 219 226 219 c 256
 276 219 339 236 400 323 c 257
 402 324 383 352 384 352 c 257
 375 343 330 291 246 291 c 256
 195 291 141 333 141 433 c 256
 141 516 179 572 243 572 c 256
 329 572 359 469 359 362 c 256
 359 208 279 58 94 52 c 257
 100 -3 l 257
 333 -11 453 183 453 392 c 256
  PathStart: -2
EndSplineSet
Validated: 37
PickledDataWithLists: "(dp1
S'com.schriftgestaltung.Glyphs.lastChange'
p2
S'2018-07-27 16:12:40 +0000'
p3
s."
EndChar
StartChar: less
Encoding: 60 60 98
GlifName: less
Width: 462
VWidth: 0
Flags: W
LayerCount: 2
Fore
SplineSet
374 10 m 257
 393 31 411 50 431 68 c 257
 334 136 238 202 154 270 c 257
 154 248 l 257
 240 323 353 405 429 457 c 257
 407 477 385 497 367 517 c 257
 281 432 159 338 57 257 c 257
 215 140 307 75 374 10 c 257
  PathStart: -2
EndSplineSet
Validated: 5
PickledDataWithLists: "(dp1
S'com.schriftgestaltung.Glyphs.lastChange'
p2
S'2018-07-27 16:12:40 +0000'
p3
s."
EndChar
StartChar: equal
Encoding: 61 61 68
GlifName: equal
Width: 462
VWidth: 0
Flags: W
LayerCount: 2
Fore
SplineSet
49 332 m 257
 151 336 272 336 410 332 c 257
 417 407 l 257
 296 403 169 403 50 407 c 257
 49 332 l 257
49 193 m 257
 151 196 273 196 411 193 c 257
 415 267 l 257
 294 263 171 263 52 267 c 257
 49 193 l 257
EndSplineSet
Validated: 41
PickledDataWithLists: "(dp1
S'com.schriftgestaltung.Glyphs.lastChange'
p2
S'2018-07-27 16:12:40 +0000'
p3
s."
EndChar
StartChar: greater
Encoding: 62 62 86
GlifName: greater
Width: 462
VWidth: 0
Flags: W
LayerCount: 2
Fore
SplineSet
122 517 m 257
 103 497 81 477 59 457 c 257
 136 405 248 323 334 248 c 257
 334 270 l 257
 250 202 154 136 57 68 c 257
 77 50 95 31 114 10 c 257
 181 75 273 140 431 257 c 257
 330 338 207 432 122 517 c 257
  PathStart: -2
EndSplineSet
Validated: 5
PickledDataWithLists: "(dp1
S'com.schriftgestaltung.Glyphs.lastChange'
p2
S'2018-07-27 16:12:40 +0000'
p3
s."
EndChar
StartChar: question
Encoding: 63 63 130
GlifName: question
Width: 417
VWidth: 0
Flags: W
LayerCount: 2
Fore
SplineSet
211 153 m 257
 208 169 201 230 201 280 c 256
 201 291 160 239 164 245 c 257
 229 266 355 303 382 447 c 256
 403 565 328 617 236 617 c 256
 169 617 102 589 62 564 c 257
 81 534 l 257
 104 547 137 567 179 564 c 256
 274 556 311 490 298 410 c 256
 282 308 169 284 129 280 c 257
 129 262 125 180 124 152 c 257
 211 153 l 257
132 456 m 257
 135 483 140 537 148 564 c 257
 62 564 l 257
 58 537 61 471 67 447 c 257
 132 456 l 257
EndSplineSet
Refer: 123 46 N 1 0 0 1 51 -8 2
Validated: 37
PickledDataWithLists: "(dp1
S'com.schriftgestaltung.Glyphs.lastChange'
p2
S'2018-07-27 16:12:40 +0000'
p3
s."
EndChar
StartChar: at
Encoding: 64 64 34
GlifName: at
Width: 737
VWidth: 0
Flags: W
LayerCount: 2
Fore
SplineSet
387 589 m 256
 183 589 27 410 27 196 c 256
 27 -76 255 -172 456 -172 c 257
 460 -157 476 -112 471 -95 c 257
 217 -95 83 28 83 216 c 256
 83 397 216 519 375 517 c 256
 571 516 660 417 663 256 c 256
 665 169 628 52 517 68 c 257
 488 75 505 306 514 402 c 257
 497 410 437 411 385 397 c 256
 309 375 195 286 195 156 c 256
 195 65 253 15 315 15 c 256
 377 15 434 65 438 82 c 257
 430 91 l 257
 424 39 430 5 473 -2 c 256
 571 -19 721 50 721 253 c 256
 721 420 638 589 387 589 c 256
  PathStart: -2
337 69 m 256
 291 69 272 106 272 171 c 256
 272 285 336 370 430 354 c 257
 433 298 431 186 427 112 c 257
 419 99 379 69 337 69 c 256
  PathStart: -2
EndSplineSet
Validated: 37
PickledDataWithLists: "(dp1
S'com.schriftgestaltung.Glyphs.lastChange'
p2
S'2018-07-27 16:12:40 +0000'
p3
s."
EndChar
StartChar: A
Encoding: 65 65 1
GlifName: A_
Width: 650
VWidth: 0
Flags: W
LayerCount: 2
Fore
SplineSet
263 0 m 257
 255 39 l 257
 218 39 167 38 183 112 c 256
 195 162 263 377 310 537 c 257
 316 505 327 455 333 425 c 257
 367 313 424 207 450 95 c 256
 460 50 430 44 376 45 c 257
 383 0 l 257
 634 0 l 257
 627 39 l 257
 574 38 558 80 545 116 c 256
 468 322 415 462 368 624 c 257
 338 614 301 604 271 600 c 257
 229 457 172 290 104 105 c 256
 89 66 61 50 15 47 c 257
 23 0 l 257
 263 0 l 257
446 216 m 257
 446 275 l 257
 197 269 l 257
 197 214 l 257
 446 216 l 257
EndSplineSet
Validated: 37
PickledDataWithLists: "(dp1
S'com.schriftgestaltung.Glyphs.lastChange'
p2
S'2018-07-27 16:12:40 +0000'
p3
s."
EndChar
StartChar: B
Encoding: 66 66 2
GlifName: B_
Width: 567
VWidth: 0
Flags: W
LayerCount: 2
Fore
SplineSet
288 0 m 258
 412 0 534 45 536 177 c 256
 537 256 484 324 392 336 c 257
 367 317 l 257
 450 321 501 403 500 476 c 256
 499 568 421 618 317 618 c 256
 202 618 164 607 42 614 c 257
 50 566 l 257
 116 565 122 528 125 484 c 256
 131 360 129 263 122 98 c 256
 120 59 105 44 44 44 c 257
 52 0 l 257
 288 0 l 258
207 102 m 256
 199 159 197 212 198 289 c 257
 225 294 272 298 305 297 c 256
 393 295 441 243 441 176 c 256
 441 99 375 52 296 52 c 256
 237 52 213 58 207 102 c 256
  PathStart: -2
206 562 m 257
 224 569 258 574 293 573 c 256
 353 571 406 533 405 461 c 256
 404 413 376 351 301 347 c 256
 273 346 240 345 199 347 c 257
 200 422 200 503 206 562 c 257
  PathStart: -2
EndSplineSet
Validated: 37
PickledDataWithLists: "(dp1
S'com.schriftgestaltung.Glyphs.lastChange'
p2
S'2018-07-27 16:12:40 +0000'
p3
s."
EndChar
StartChar: C
Encoding: 67 67 3
GlifName: C_
Width: 617
VWidth: 0
Flags: W
LayerCount: 2
Fore
SplineSet
77 246 m 256
 77 477 229 615 452 615 c 256
 537 615 583 595 583 595 c 257
 584 587 584 575 584 562 c 256
 584 516 581 449 574 424 c 257
 529 426 l 257
 504 494 450 571 414 577 c 257
 417 580 424 581 433 581 c 256
 464 581 523 563 523 523 c 256
 523 514 521 506 515 496 c 257
 502 499 470 552 376 552 c 256
 253 552 179 448 179 280 c 256
 179 148 238 48 390 48 c 256
 456 48 517 80 557 118 c 257
 588 85 l 257
 535 17 458 -18 360 -18 c 256
 183 -18 77 84 77 246 c 256
  PathStart: -2
EndSplineSet
Validated: 5
PickledDataWithLists: "(dp1
S'com.schriftgestaltung.Glyphs.lastChange'
p2
S'2018-07-27 16:12:40 +0000'
p3
s."
EndChar
StartChar: D
Encoding: 68 68 5
GlifName: D_
Width: 631
VWidth: 0
Flags: W
LayerCount: 2
Fore
SplineSet
263 0 m 256
 477 3 591 158 591 363 c 256
 590 531 500 619 328 619 c 256
 259 619 162 607 22 615 c 257
 28 567 l 257
 99 572 105 529 107 484 c 256
 113 361 111 266 104 100 c 256
 102 62 71 43 18 46 c 257
 25 0 l 257
 82 0 211 -1 263 0 c 256
  PathStart: -2
189 111 m 256
 182 172 186 249 186 343 c 256
 187 408 192 479 197 554 c 257
 218 561 257 569 299 568 c 256
 443 565 504 460 504 319 c 256
 502 184 436 62 307 60 c 256
 229 59 193 75 189 111 c 256
  PathStart: -2
EndSplineSet
Validated: 41
PickledDataWithLists: "(dp1
S'com.schriftgestaltung.Glyphs.lastChange'
p2
S'2018-07-27 16:12:40 +0000'
p3
s."
EndChar
StartChar: E
Encoding: 69 69 6
GlifName: E_
Width: 537
VWidth: 0
Flags: W
LayerCount: 2
Fore
SplineSet
481 0 m 257
 484 40 484 89 484 123 c 256
 484 146 484 162 484 163 c 257
 429 157 l 257
 417 106 400 60 367 22 c 257
 427 70 l 257
 395 62 319 55 258 55 c 256
 243 55 225 55 215 56 c 256
 187 59 183 83 182 104 c 256
 181 146 179 203 179 266 c 256
 179 343 182 432 190 518 c 256
 193 541 202 564 240 564 c 256
 296 564 367 562 429 556 c 257
 356 594 l 257
 389 564 408 511 413 465 c 257
 469 460 l 257
 469 460 474 509 474 554 c 257
 474 617 l 257
 399 613 313 612 266 612 c 256
 250 612 231 612 210 612 c 256
 148 612 72 613 28 616 c 257
 32 569 l 257
 85 570 96 547 99 511 c 256
 101 460 102 405 102 351 c 256
 102 263 99 176 94 109 c 256
 91 71 86 52 27 47 c 257
 32 0 l 257
 481 0 l 257
323 287 m 256
 350 287 377 286 405 285 c 257
 405 355 l 257
 288 342 l 257
 132 341 l 257
 132 283 l 257
 200 283 260 287 323 287 c 256
  PathStart: -2
EndSplineSet
Validated: 37
PickledDataWithLists: "(dp1
S'com.schriftgestaltung.Glyphs.lastChange'
p2
S'2018-07-27 16:12:40 +0000'
p3
s."
EndChar
StartChar: F
Encoding: 70 70 7
GlifName: F_
Width: 514
VWidth: 0
Flags: W
LayerCount: 2
Fore
SplineSet
408 363 m 257
 305 350 l 257
 123 349 l 257
 123 292 l 257
 219 293 312 292 408 286 c 257
 408 363 l 257
194 511 m 256
 196 543 209 561 253 561 c 258
 437 555 l 257
 371 594 l 257
 404 564 424 504 429 459 c 257
 484 453 l 257
 484 453 490 509 490 554 c 257
 489 617 l 257
 391 613 306 611 240 611 c 256
 176 611 92 611 33 616 c 257
 38 569 l 257
 96 568 103 547 105 511 c 256
 112 374 109 209 102 109 c 256
 99 68 102 52 35 47 c 257
 40 0 l 257
 270 0 l 257
 263 39 l 257
 249 39 188 39 187 112 c 256
 186 165 182 347 194 511 c 256
  PathStart: -2
EndSplineSet
Validated: 37
PickledDataWithLists: "(dp1
S'com.schriftgestaltung.Glyphs.lastChange'
p2
S'2018-07-27 16:12:40 +0000'
p3
s."
EndChar
StartChar: G
Encoding: 71 71 8
GlifName: G_
Width: 637
VWidth: 0
Flags: W
LayerCount: 2
Fore
SplineSet
26 248 m 256
 24 439 142 616 395 618 c 256
 488 618 549 598 549 598 c 257
 551 559 556 482 554 450 c 257
 503 452 l 257
 478 520 430 576 394 581 c 257
 405 598 545 583 504 510 c 257
 491 513 432 567 337 565 c 256
 222 564 127 448 125 297 c 256
 122 163 193 44 336 42 c 256
 420 40 459 66 494 106 c 257
 544 82 l 257
 488 1 387 -21 312 -21 c 256
 147 -21 28 89 26 248 c 256
  PathStart: -2
460 203 m 257
 457 234 436 254 383 251 c 257
 378 300 l 257
 465 294 522 296 605 300 c 257
 613 254 l 257
 600 255 547 260 547 201 c 256
 547 160 547 109 544 82 c 257
 440 35 l 257
 459 83 461 148 460 203 c 257
  PathStart: -2
EndSplineSet
Validated: 37
PickledDataWithLists: "(dp1
S'com.schriftgestaltung.Glyphs.lastChange'
p2
S'2018-07-27 16:12:40 +0000'
p3
s."
EndChar
StartChar: H
Encoding: 72 72 9
GlifName: H_
Width: 693
VWidth: 0
Flags: W
LayerCount: 2
Fore
SplineSet
298 0 m 257
 290 49 l 257
 249 45 208 63 206 118 c 256
 199 283 205 409 213 511 c 256
 216 559 248 564 295 567 c 257
 293 581 289 617 289 617 c 257
 214 613 121 612 27 616 c 257
 28 609 32 579 34 567 c 257
 109 569 117 537 119 491 c 256
 124 350 121 192 116 106 c 256
 113 58 79 49 30 49 c 257
 36 -1 l 257
 298 0 l 257
567 276 m 257
 567 341 l 257
 410 336 l 257
 149 335 l 257
 149 276 l 257
 567 276 l 257
670 0 m 257
 661 49 l 257
 621 45 580 63 578 118 c 256
 571 283 577 409 584 511 c 256
 588 559 620 564 667 567 c 257
 665 581 661 617 661 617 c 257
 586 613 494 612 400 616 c 257
 402 609 405 579 407 567 c 257
 483 569 490 537 492 491 c 256
 497 350 494 192 490 106 c 256
 487 58 452 49 403 49 c 257
 410 -1 l 257
 670 0 l 257
EndSplineSet
Validated: 37
PickledDataWithLists: "(dp1
S'com.schriftgestaltung.Glyphs.lastChange'
p2
S'2018-07-27 16:12:40 +0000'
p3
s."
EndChar
StartChar: I
Encoding: 73 73 10
GlifName: I_
Width: 315
VWidth: 0
Flags: W
LayerCount: 2
Fore
SplineSet
287 0 m 257
 279 42 l 257
 239 39 200 63 198 118 c 256
 192 283 197 409 205 511 c 256
 209 559 240 567 287 569 c 257
 281 617 l 257
 206 613 117 612 23 616 c 257
 25 609 28 579 30 567 c 257
 105 569 113 537 115 491 c 256
 120 350 117 192 112 106 c 256
 109 58 75 49 26 48 c 257
 32 -1 l 257
 287 0 l 257
EndSplineSet
Validated: 41
PickledDataWithLists: "(dp1
S'com.schriftgestaltung.Glyphs.lastChange'
p2
S'2018-07-27 16:12:40 +0000'
p3
s."
EndChar
StartChar: J
Encoding: 74 74 11
GlifName: J_
Width: 325
VWidth: 0
Flags: W
LayerCount: 2
Fore
SplineSet
210 30 m 256
 206 201 205 320 213 512 c 256
 216 554 239 564 294 567 c 257
 292 581 288 617 288 617 c 257
 188 611 122 611 31 616 c 257
 32 609 34 579 36 567 c 257
 59 567 119 565 119 503 c 256
 121 362 132 158 128 65 c 256
 125 -14 133 -144 -5 -109 c 257
 -26 -149 l 257
 -15 -155 16 -175 59 -175 c 256
 187 -174 213 -72 210 30 c 256
  PathStart: -2
EndSplineSet
Validated: 41
PickledDataWithLists: "(dp1
S'com.schriftgestaltung.Glyphs.lastChange'
p2
S'2018-07-27 16:12:40 +0000'
p3
s."
EndChar
StartChar: K
Encoding: 75 75 12
GlifName: K_
Width: 656
VWidth: 0
Flags: W
LayerCount: 2
Fore
SplineSet
621 0 m 257
 611 47 l 257
 553 46 407 253 336 336 c 257
 320 315 l 257
 361 359 472 480 514 527 c 256
 537 552 557 571 588 571 c 257
 581 616 l 257
 581 616 470 610 378 614 c 257
 385 567 l 257
 441 569 444 547 432 531 c 256
 370 450 278 353 249 326 c 257
 257 301 l 257
 311 239 405 117 419 97 c 256
 454 47 412 43 384 44 c 257
 395 0 l 257
 483 0 533 1 621 0 c 257
  PathStart: -2
301 0 m 257
 293 44 l 257
 253 41 214 55 212 110 c 256
 206 276 211 410 219 511 c 256
 223 560 266 570 306 569 c 257
 303 584 300 617 300 617 c 257
 217 612 139 611 45 616 c 257
 46 609 49 580 51 567 c 257
 111 569 129 544 129 495 c 256
 129 354 129 193 125 108 c 256
 122 59 101 50 50 49 c 257
 56 -1 l 257
 301 0 l 257
EndSplineSet
Validated: 37
PickledDataWithLists: "(dp1
S'com.schriftgestaltung.Glyphs.lastChange'
p2
S'2018-07-27 16:12:40 +0000'
p3
s."
EndChar
StartChar: L
Encoding: 76 76 13
GlifName: L_
Width: 528
VWidth: 0
Flags: W
LayerCount: 2
Fore
SplineSet
494 0 m 257
 499 21 498 129 494 163 c 257
 437 157 l 257
 433 128 422 92 407 63 c 257
 369 58 284 52 238 56 c 256
 210 59 204 85 203 112 c 256
 202 152 203 363 216 518 c 256
 219 564 245 568 299 568 c 257
 293 615 l 257
 228 612 126 609 41 616 c 257
 45 569 l 257
 99 570 121 547 123 511 c 256
 130 377 130 213 119 113 c 256
 114 63 89 49 41 49 c 257
 47 0 l 257
 494 0 l 257
EndSplineSet
Validated: 41
PickledDataWithLists: "(dp1
S'com.schriftgestaltung.Glyphs.lastChange'
p2
S'2018-07-27 16:12:40 +0000'
p3
s."
EndChar
StartChar: M
Encoding: 77 77 14
GlifName: M_
Width: 888
VWidth: 0
Flags: W
LayerCount: 2
Fore
SplineSet
855 42 m 257
 798 41 778 53 774 117 c 256
 768 203 766 369 770 495 c 256
 772 557 804 567 858 567 c 257
 851 616 l 257
 775 611 695 611 646 614 c 257
 610 524 497 230 419 62 c 257
 475 31 l 257
 536 187 598 340 655 466 c 257
 667 494 675 547 688 570 c 256
 692 578 675 554 680 562 c 257
 689 422 686 143 681 107 c 256
 673 53 644 45 597 47 c 257
 604 0 l 257
 862 -1 l 257
 855 42 l 257
289 0 m 257
 280 42 l 257
 233 42 215 53 206 107 c 256
 202 141 195 401 204 541 c 257
 196 551 l 257
 203 540 222 445 230 428 c 256
 293 306 397 73 421 15 c 257
 474 31 l 257
 453 69 l 257
 451 115 446 166 435 204 c 257
 390 324 266 551 238 615 c 257
 166 613 112 612 36 616 c 257
 38 609 39 579 42 567 c 257
 88 567 134 559 135 497 c 256
 136 370 136 203 129 117 c 256
 126 61 94 45 38 47 c 257
 44 -1 l 257
 289 0 l 257
EndSplineSet
Validated: 37
PickledDataWithLists: "(dp1
S'com.schriftgestaltung.Glyphs.lastChange'
p2
S'2018-07-27 16:12:40 +0000'
p3
s."
EndChar
StartChar: N
Encoding: 78 78 15
GlifName: N_
Width: 713
VWidth: 0
Flags: W
LayerCount: 2
Fore
SplineSet
532 -12 m 257
 571 -4 593 -3 614 0 c 257
 608 166 606 374 618 512 c 256
 621 554 643 569 690 568 c 257
 683 617 l 257
 636 611 604 611 573 611 c 256
 517 611 487 613 444 616 c 257
 446 609 449 579 451 567 c 257
 505 567 530 557 535 487 c 256
 542 391 544 136 530 74 c 257
 549 54 l 257
 536 73 526 172 504 205 c 256
 410 338 273 542 226 614 c 257
 146 612 98 611 22 616 c 257
 23 609 25 579 28 567 c 257
 82 567 111 542 112 487 c 256
 113 361 112 210 106 125 c 256
 102 61 80 48 24 47 c 257
 30 -1 l 257
 269 0 l 257
 262 43 l 257
 222 43 193 55 185 109 c 256
 180 145 177 399 186 539 c 257
 186 539 173 559 177 554 c 257
 180 550 219 446 222 442 c 257
 329 295 400 184 531 -13 c 257
 532 -12 l 257
EndSplineSet
Validated: 37
PickledDataWithLists: "(dp1
S'com.schriftgestaltung.Glyphs.lastChange'
p2
S'2018-07-27 16:12:40 +0000'
p3
s."
EndChar
StartChar: O
Encoding: 79 79 16
GlifName: O_
Width: 630
VWidth: 0
Flags: W
LayerCount: 2
Fore
SplineSet
592 336 m 256
 592 522 472 619 345 619 c 256
 160 619 36 477 36 263 c 256
 36 117 128 -12 303 -12 c 256
 480 -12 592 119 592 336 c 256
  PathStart: -2
129 304 m 256
 129 486 228 564 308 565 c 256
 418 567 493 460 494 321 c 256
 494 162 427 47 317 47 c 256
 192 47 129 156 129 304 c 256
  PathStart: -2
EndSplineSet
Validated: 41
PickledDataWithLists: "(dp1
S'com.schriftgestaltung.Glyphs.lastChange'
p2
S'2018-07-27 16:12:40 +0000'
p3
s."
EndChar
StartChar: P
Encoding: 80 80 17
GlifName: P_
Width: 520
VWidth: 0
Flags: W
LayerCount: 2
Fore
SplineSet
270 0 m 257
 260 43 l 257
 219 43 192 52 187 96 c 256
 182 139 182 201 182 280 c 257
 182 280 154 264 162 263 c 257
 176 254 227 249 254 249 c 256
 399 249 492 340 491 466 c 256
 490 551 435 619 309 619 c 256
 199 619 119 608 18 615 c 257
 22 567 l 257
 88 564 99 529 101 484 c 256
 105 400 112 266 98 101 c 256
 95 62 80 47 27 47 c 257
 35 0 l 257
 92 0 218 -1 270 0 c 257
  PathStart: -2
184 324 m 257
 185 400 182 503 188 563 c 257
 203 570 228 577 257 576 c 256
 353 574 407 529 406 442 c 256
 405 372 370 299 276 298 c 256
 240 298 205 311 184 324 c 257
  PathStart: -2
EndSplineSet
Validated: 37
PickledDataWithLists: "(dp1
S'com.schriftgestaltung.Glyphs.lastChange'
p2
S'2018-07-27 16:12:40 +0000'
p3
s."
EndChar
StartChar: Q
Encoding: 81 81 18
GlifName: Q_
Width: 648
VWidth: 0
Flags: W
LayerCount: 2
Fore
SplineSet
691 -165 m 257
 699 -100 l 257
 687 -74 l 257
 687 -74 618 -100 524 -99 c 256
 437 -97 278 -62 235 16 c 257
 180 9 l 257
 203 -45 316 -181 504 -184 c 256
 591 -185 643 -180 691 -165 c 257
  PathStart: -2
EndSplineSet
Refer: 16 79 N 1 0 0 1 0 0 2
Validated: 37
PickledDataWithLists: "(dp1
S'com.schriftgestaltung.Glyphs.lastChange'
p2
S'2018-07-27 16:12:40 +0000'
p3
s."
EndChar
StartChar: R
Encoding: 82 82 19
GlifName: R_
Width: 609
VWidth: 0
Flags: W
LayerCount: 2
Fore
SplineSet
33 568 m 257
 99 566 110 531 112 486 c 256
 119 363 116 266 109 101 c 256
 108 62 92 47 39 47 c 257
 46 0 l 257
 282 0 l 257
 272 43 l 257
 231 43 203 52 199 96 c 256
 194 139 193 236 194 314 c 257
 174 283 l 257
 189 279 243 272 282 272 c 256
 396 273 508 349 507 475 c 256
 506 560 458 621 340 621 c 256
 232 621 136 610 29 617 c 257
 33 568 l 257
464 0 m 257
 599 0 l 257
 590 47 l 257
 517 46 409 249 359 329 c 257
 280 308 l 257
 352 139 427 32 464 0 c 257
  PathStart: -2
279 575 m 256
 379 574 421 533 420 454 c 256
 420 388 381 326 290 323 c 256
 259 323 219 330 196 336 c 257
 196 413 193 504 199 564 c 257
 217 571 243 576 279 575 c 256
  PathStart: -2
EndSplineSet
Validated: 37
PickledDataWithLists: "(dp1
S'com.schriftgestaltung.Glyphs.lastChange'
p2
S'2018-07-27 16:12:40 +0000'
p3
s."
EndChar
StartChar: S
Encoding: 83 83 20
GlifName: S_
Width: 469
VWidth: 0
Flags: W
LayerCount: 2
Fore
SplineSet
420 170 m 256
 420 349 149 392 149 501 c 256
 149 544 182 575 233 575 c 256
 311 575 336 511 351 493 c 257
 297 609 l 257
 318 561 332 505 333 468 c 257
 404 460 l 257
 407 481 410 514 410 547 c 256
 410 566 409 584 407 598 c 257
 407 598 344 623 259 623 c 256
 125 623 63 546 63 466 c 256
 63 318 326 291 326 145 c 256
 326 98 293 46 224 45 c 256
 152 45 135 78 104 114 c 257
 112 72 106 47 152 36 c 257
 122 70 120 106 117 152 c 257
 48 160 l 257
 42 121 40 89 40 55 c 256
 40 39 41 25 42 13 c 257
 42 13 102 -11 210 -10 c 256
 366 -9 420 88 420 170 c 256
  PathStart: -2
EndSplineSet
Validated: 37
PickledDataWithLists: "(dp1
S'com.schriftgestaltung.Glyphs.lastChange'
p2
S'2018-07-27 16:12:40 +0000'
p3
s."
EndChar
StartChar: T
Encoding: 84 84 21
GlifName: T_
Width: 532
VWidth: 0
Flags: W
LayerCount: 2
Fore
SplineSet
376 0 m 257
 367 50 l 257
 347 49 305 52 301 99 c 256
 290 233 298 440 319 601 c 257
 319 601 210 583 162 584 c 257
 167 574 l 257
 190 574 208 572 211 538 c 256
 219 440 220 251 206 112 c 256
 203 76 176 49 122 47 c 257
 126 0 l 257
 376 0 l 257
524 617 m 257
 446 611 310 610 257 610 c 256
 166 610 99 611 16 616 c 257
 15 572 10 501 6 465 c 257
 70 474 l 257
 81 501 87 558 116 586 c 257
 75 554 l 257
 103 554 187 557 257 557 c 256
 323 557 399 561 467 537 c 257
 402 594 l 257
 435 564 454 512 460 467 c 257
 515 460 l 257
 515 464 523 595 524 617 c 257
  PathStart: -2
EndSplineSet
Validated: 37
PickledDataWithLists: "(dp1
S'com.schriftgestaltung.Glyphs.lastChange'
p2
S'2018-07-27 16:12:40 +0000'
p3
s."
EndChar
StartChar: U
Encoding: 85 85 22
GlifName: U_
Width: 591
VWidth: 0
Flags: W
LayerCount: 2
Fore
SplineSet
505 182 m 256
 512 265 506 384 513 511 c 256
 515 551 536 564 590 566 c 257
 588 581 584 616 584 616 c 257
 551 614 504 613 457 613 c 256
 420 613 381 614 347 615 c 257
 349 608 352 583 354 571 c 257
 408 571 444 564 444 494 c 256
 444 494 l 256
 445 437 447 380 447 324 c 256
 447 284 446 245 443 206 c 256
 436 113 387 47 295 47 c 256
 201 47 159 109 152 194 c 256
 152 205 151 229 151 260 c 256
 151 325 153 420 158 487 c 256
 162 538 174 562 252 567 c 257
 249 581 246 617 246 617 c 257
 199 614 157 613 116 613 c 256
 72 613 29 614 -17 616 c 257
 -15 609 -12 580 -10 567 c 257
 54 568 65 547 69 493 c 256
 69 483 69 470 69 457 c 256
 69 382 63 259 63 179 c 256
 63 21 189 -13 278 -13 c 256
 377 -13 493 35 505 182 c 256
  PathStart: -2
EndSplineSet
Validated: 41
PickledDataWithLists: "(dp1
S'com.schriftgestaltung.Glyphs.lastChange'
p2
S'2018-07-27 16:12:40 +0000'
p3
s."
EndChar
StartChar: V
Encoding: 86 86 23
GlifName: V_
Width: 636
VWidth: 0
Flags: W
LayerCount: 2
Fore
SplineSet
359 6 m 257
 404 145 478 330 550 511 c 256
 564 549 581 575 644 568 c 257
 636 615 l 257
 557 608 472 612 387 615 c 257
 394 576 l 257
 431 577 493 578 477 504 c 256
 465 455 370 206 316 59 c 257
 313 90 304 153 298 183 c 257
 265 290 216 428 190 520 c 256
 178 565 216 574 270 566 c 257
 263 615 l 257
 199 611 90 611 4 615 c 257
 12 573 l 257
 64 581 80 543 93 515 c 257
 170 309 213 144 260 -18 c 257
 290 -8 329 2 359 6 c 257
  PathStart: -2
EndSplineSet
Validated: 41
PickledDataWithLists: "(dp1
S'com.schriftgestaltung.Glyphs.lastChange'
p2
S'2018-07-27 16:12:40 +0000'
p3
s."
EndChar
StartChar: W
Encoding: 87 87 24
GlifName: W_
Width: 971
VWidth: 0
Flags: W
LayerCount: 2
Fore
SplineSet
695 6 m 257
 738 145 810 331 866 511 c 256
 879 551 897 568 952 569 c 257
 944 616 l 257
 715 616 l 257
 722 572 l 257
 782 573 805 567 796 513 c 256
 788 464 700 228 651 77 c 257
 649 104 651 148 644 173 c 257
 611 285 574 424 547 520 c 256
 535 565 571 567 621 566 c 257
 614 615 l 257
 361 615 l 257
 367 573 l 257
 420 574 437 547 452 500 c 256
 517 298 556 139 603 -18 c 257
 633 -8 665 2 695 6 c 257
  PathStart: -2
336 6 m 257
 394 145 472 315 536 487 c 257
 464 477 l 257
 446 429 363 236 296 82 c 257
 290 109 289 159 283 184 c 257
 249 296 207 425 181 521 c 256
 169 567 215 570 263 568 c 257
 255 617 l 257
 187 614 62 614 -5 617 c 257
 3 567 l 257
 55 569 69 544 85 501 c 256
 155 300 193 139 239 -18 c 257
 270 -8 306 2 336 6 c 257
  PathStart: -2
EndSplineSet
Validated: 37
PickledDataWithLists: "(dp1
S'com.schriftgestaltung.Glyphs.lastChange'
p2
S'2018-07-27 16:12:40 +0000'
p3
s."
EndChar
StartChar: X
Encoding: 88 88 25
GlifName: X_
Width: 620
VWidth: 0
Flags: W
LayerCount: 2
Fore
SplineSet
245 1 m 257
 238 47 l 257
 167 47 179 90 200 126 c 256
 232 181 278 249 320 294 c 257
 334 304 l 257
 362 344 419 426 460 482 c 256
 501 537 534 567 594 567 c 257
 588 617 l 257
 521 611 425 611 350 617 c 257
 356 563 l 257
 411 562 432 554 402 505 c 256
 377 465 332 394 293 344 c 257
 263 323 l 257
 223 258 149 153 117 113 c 256
 91 81 72 51 5 51 c 257
 11 1 l 257
 245 1 l 257
588 1 m 257
 575 48 l 257
 495 48 484 74 323 342 c 256
 310 361 263 447 230 503 c 256
 208 541 205 566 283 567 c 257
 275 616 l 257
 199 615 97 610 15 617 c 257
 22 565 l 257
 93 565 95 547 136 481 c 256
 182 404 219 346 253 287 c 257
 266 272 l 257
 292 227 331 156 357 110 c 256
 387 56 350 49 306 48 c 257
 315 1 l 257
 588 1 l 257
EndSplineSet
Validated: 37
PickledDataWithLists: "(dp1
S'com.schriftgestaltung.Glyphs.lastChange'
p2
S'2018-07-27 16:12:40 +0000'
p3
s."
EndChar
StartChar: Y
Encoding: 89 89 26
GlifName: Y_
Width: 558
VWidth: 0
Flags: W
LayerCount: 2
Fore
SplineSet
313 248 m 257
 341 310 403 389 477 510 c 256
 500 547 522 571 568 573 c 257
 560 618 l 257
 485 614 411 613 336 618 c 257
 343 569 l 257
 396 571 436 556 412 512 c 256
 367 429 314 352 280 296 c 257
 255 376 l 257
 227 426 204 478 186 516 c 256
 165 557 180 571 239 576 c 257
 228 618 l 257
 140 615 75 614 -12 618 c 257
 -6 573 l 257
 30 574 59 562 85 514 c 256
 164 370 193 310 234 231 c 257
 260 239 290 246 313 248 c 257
  PathStart: -2
407 0 m 257
 390 53 l 257
 350 48 334 56 326 94 c 256
 317 130 307 187 324 296 c 257
 223 287 l 257
 234 192 233 151 228 112 c 256
 223 72 206 42 150 53 c 257
 156 -1 l 257
 407 0 l 257
EndSplineSet
Validated: 37
PickledDataWithLists: "(dp1
S'com.schriftgestaltung.Glyphs.lastChange'
p2
S'2018-07-27 16:12:40 +0000'
p3
s."
EndChar
StartChar: Z
Encoding: 90 90 27
GlifName: Z_
Width: 563
VWidth: 0
Flags: W
LayerCount: 2
Fore
SplineSet
527 0 m 257
 527 62 l 258
 527 107 525 163 525 163 c 257
 462 157 l 257
 459 128 451 90 437 61 c 257
 400 55 309 55 246 56 c 256
 199 57 136 59 112 82 c 257
 144 43 l 257
 159 57 443 517 511 569 c 257
 505 616 l 257
 447 613 318 614 254 614 c 256
 188 614 97 614 61 616 c 257
 62 554 l 258
 62 508 65 452 65 452 c 257
 129 458 l 257
 132 490 141 528 159 559 c 257
 203 562 288 564 344 564 c 256
 383 564 379 554 370 541 c 256
 293 417 95 106 22 55 c 257
 21 35 27 11 26 0 c 257
 527 0 l 257
EndSplineSet
Validated: 37
PickledDataWithLists: "(dp1
S'com.schriftgestaltung.Glyphs.lastChange'
p2
S'2018-07-27 16:12:40 +0000'
p3
s."
EndChar
StartChar: bracketleft
Encoding: 91 91 40
GlifName: bracketleft
Width: 338
VWidth: 0
Flags: W
LayerCount: 2
Fore
SplineSet
142 584 m 257
 112 568 l 257
 295 568 l 257
 297 598 298 607 299 633 c 257
 237 631 116 633 62 633 c 257
 66 518 66 67 62 -124 c 257
 62 -124 l 257
 62 -125 l 257
 133 -123 220 -119 299 -125 c 257
 296 -96 295 -85 291 -52 c 257
 240 -54 165 -55 111 -52 c 257
 142 -83 l 257
 132 47 134 457 142 584 c 257
  PathStart: -2
EndSplineSet
Validated: 37
PickledDataWithLists: "(dp1
S'com.schriftgestaltung.Glyphs.lastChange'
p2
S'2018-07-27 16:12:40 +0000'
p3
s."
EndChar
StartChar: backslash
Encoding: 92 92 36
GlifName: backslash
Width: 462
VWidth: 0
Flags: W
LayerCount: 2
Fore
SplineSet
85 648 m 257
 7 651 l 257
 71 521 237 167 332 -62 c 257
 406 -62 l 257
 286 175 182 412 85 648 c 257
  PathStart: -2
EndSplineSet
Validated: 9
PickledDataWithLists: "(dp1
S'com.schriftgestaltung.Glyphs.lastChange'
p2
S'2018-07-27 16:12:40 +0000'
p3
s."
EndChar
StartChar: bracketright
Encoding: 93 93 41
GlifName: bracketright
Width: 462
VWidth: 0
Flags: W
LayerCount: 2
Fore
SplineSet
249 -52 m 257
 196 -55 120 -54 69 -52 c 257
 65 -85 64 -96 62 -125 c 257
 140 -119 227 -123 298 -125 c 257
 298 -124 l 257
 299 -124 l 257
 294 67 294 518 298 633 c 257
 244 633 123 631 62 633 c 257
 62 607 63 598 65 568 c 257
 248 568 l 257
 218 584 l 257
 226 457 228 47 219 -83 c 257
 249 -52 l 257
EndSplineSet
Validated: 37
PickledDataWithLists: "(dp1
S'com.schriftgestaltung.Glyphs.lastChange'
p2
S'2018-07-27 16:12:40 +0000'
p3
s."
EndChar
StartChar: asciicircum
Encoding: 94 94 31
GlifName: asciicircum
Width: 289
VWidth: 0
Flags: W
LayerCount: 2
Fore
SplineSet
163 682 m 257
 147 681 l 257
 162 662 210 598 242 559 c 257
 259 570 281 589 294 609 c 257
 270 628 186 709 156 743 c 257
 128 705 65 634 27 588 c 257
 41 578 56 567 75 556 c 257
 112 611 149 660 163 682 c 257
  PathStart: -2
EndSplineSet
Validated: 5
PickledDataWithLists: "(dp1
S'com.schriftgestaltung.Glyphs.lastChange'
p2
S'2018-07-27 16:12:40 +0000'
p3
s."
EndChar
StartChar: underscore
Encoding: 95 95 676
GlifName: underscore
Width: 515
VWidth: 0
Flags: W
LayerCount: 2
Fore
SplineSet
477 1 m 257
 478 27 483 53 484 74 c 257
 352 69 186 66 41 74 c 257
 30 1 l 257
 477 1 l 257
EndSplineSet
Validated: 41
PickledDataWithLists: "(dp1
S'com.schriftgestaltung.Glyphs.lastChange'
p2
S'2018-07-27 16:12:40 +0000'
p3
s."
EndChar
StartChar: a
Encoding: 97 97 28
GlifName: a
Width: 479
VWidth: 0
Flags: W
LayerCount: 2
Fore
SplineSet
156 -10 m 256
 291 -10 333 92 333 92 c 257
 312 124 l 257
 307 93 263 49 200 49 c 256
 156 49 129 75 129 119 c 256
 129 178 176 224 253 224 c 256
 298 224 332 210 332 210 c 257
 332 274 l 257
 332 274 275 271 204 255 c 256
 85 228 31 174 31 96 c 256
 31 25 91 -10 156 -10 c 256
  PathStart: -2
61 378 m 256
 61 356 62 328 64 302 c 257
 132 309 l 257
 136 359 149 394 166 429 c 257
 126 365 l 257
 150 391 172 427 227 427 c 256
 259 427 293 410 307 352 c 256
 312 331 314 288 314 240 c 256
 314 186 311 125 306 88 c 257
 314 88 l 257
 317 29 332 -8 390 -8 c 256
 424 -8 455 6 467 12 c 257
 458 42 l 257
 448 42 l 257
 393 42 393 100 393 162 c 256
 393 226 399 293 398 341 c 256
 396 440 358 470 259 470 c 256
 175 470 99 436 62 415 c 257
 62 415 61 400 61 378 c 256
  PathStart: -2
EndSplineSet
Validated: 37
PickledDataWithLists: "(dp1
S'com.schriftgestaltung.Glyphs.lastChange'
p2
S'2018-07-27 16:12:40 +0000'
p3
s."
EndChar
StartChar: b
Encoding: 98 98 35
GlifName: b
Width: 530
VWidth: 0
Flags: W
LayerCount: 2
Fore
SplineSet
491 265 m 256
 495 403 417 472 321 472 c 256
 256 472 178 431 141 344 c 257
 164 311 l 257
 192 376 243 410 286 411 c 256
 337 412 396 372 395 266 c 256
 394 126 341 37 256 39 c 256
 173 39 130 109 130 109 c 257
 79 17 l 257
 112 4 166 -10 242 -9 c 256
 419 -8 487 139 491 265 c 256
  PathStart: -2
176 51 m 257
 174 62 171 92 169 125 c 256
 166 169 158 525 182 655 c 257
 182 655 51 638 -13 639 c 257
 -9 590 l 257
 46 591 76 581 81 544 c 256
 95 440 89 98 79 17 c 257
 176 51 l 257
EndSplineSet
Validated: 37
PickledDataWithLists: "(dp1
S'com.schriftgestaltung.Glyphs.lastChange'
p2
S'2018-07-27 16:12:40 +0000'
p3
s."
EndChar
StartChar: c
Encoding: 99 99 45
GlifName: c
Width: 447
VWidth: 0
Flags: W
LayerCount: 2
Fore
SplineSet
294 470 m 256
 364 470 408 447 408 447 c 257
 409 437 409 424 409 410 c 256
 409 383 408 352 404 330 c 257
 358 334 l 257
 342 367 327 397 290 424 c 257
 316 417 333 402 344 383 c 257
 327 397 293 418 253 418 c 256
 175 418 128 333 128 216 c 256
 128 108 185 41 280 41 c 256
 331 41 374 62 403 86 c 257
 420 59 l 257
 377 11 319 -16 246 -16 c 256
 132 -16 34 40 34 198 c 256
 34 320 115 470 294 470 c 256
  PathStart: -2
EndSplineSet
Validated: 5
PickledDataWithLists: "(dp1
S'com.schriftgestaltung.Glyphs.lastChange'
p2
S'2018-07-27 16:12:40 +0000'
p3
sS'com.schriftgestaltung.Glyphs.leftMetricsKey'
p4
S'=o'
p5
s."
EndChar
StartChar: d
Encoding: 100 100 54
GlifName: d
Width: 574
VWidth: 0
Flags: W
LayerCount: 2
Fore
SplineSet
551 10 m 257
 541 44 l 257
 534 42 527 42 521 42 c 256
 476 42 459 69 455 125 c 256
 454 144 451 224 451 318 c 256
 451 438 455 582 469 655 c 257
 469 655 349 639 282 639 c 258
 273 639 l 257
 277 590 l 257
 283 590 l 258
 335 590 366 579 367 544 c 256
 370 492 373 390 373 296 c 256
 373 219 370 146 366 109 c 257
 373 76 l 257
 373 34 391 -16 460 -16 c 256
 493 -16 524 -6 551 10 c 257
  PathStart: -2
393 108 m 257
 370 139 l 257
 354 100 313 52 260 52 c 256
 176 52 139 120 139 207 c 256
 139 328 197 420 288 420 c 256
 344 420 383 385 383 385 c 257
 414 453 l 257
 395 460 362 467 325 467 c 256
 132 467 43 314 43 191 c 256
 43 73 116 -10 226 -10 c 256
 320 -10 369 51 393 108 c 257
  PathStart: -2
EndSplineSet
Validated: 5
PickledDataWithLists: "(dp1
S'com.schriftgestaltung.Glyphs.lastChange'
p2
S'2018-07-27 16:12:40 +0000'
p3
sS'com.typemytype.robofont.layerData'
p4
(dp5
S'Jan 30 17, 19:39'
p6
(dp7
S'name'
p8
S'd'
sS'lib'
p9
(dp10
sS'unicodes'
p11
(lp12
sS'width'
p13
I745
sS'contours'
p14
(lp15
(dp16
S'points'
p17
(lp18
(dp19
S'y'
I-21
sS'x'
I640
sS'smooth'
p20
I0
sa(dp21
S'y'
I-8
sS'x'
I681
sg20
I0
sa(dp22
S'segmentType'
p23
S'curve'
p24
sS'x'
I716
sg20
I0
sS'y'
I13
sa(dp25
g23
S'line'
p26
sS'x'
I703
sg20
I0
sS'y'
I57
sa(dp27
S'y'
I55
sS'x'
I693
sg20
I0
sa(dp28
S'y'
I55
sS'x'
I684
sg20
I0
sa(dp29
g23
S'curve'
p30
sS'x'
I676
sg20
I1
sS'y'
I55
sa(dp31
S'y'
I55
sS'x'
I618
sg20
I0
sa(dp32
S'y'
I90
sS'x'
I596
sg20
I0
sa(dp33
g23
S'curve'
p34
sS'x'
I591
sg20
I1
sS'y'
I162
sa(dp35
S'y'
I187
sS'x'
I589
sg20
I0
sa(dp36
S'y'
I291
sS'x'
I586
sg20
I0
sa(dp37
g23
S'curve'
p38
sS'x'
I586
sg20
I1
sS'y'
I413
sa(dp39
S'y'
I569
sS'x'
I586
sg20
I0
sa(dp40
S'y'
I756
sS'x'
I591
sg20
I0
sa(dp41
g23
S'curve'
p42
sS'x'
I609
sg20
I0
sS'y'
I850
sa(dp43
S'y'
I850
sS'x'
I609
sg20
I0
sa(dp44
S'y'
I830
sS'x'
I453
sg20
I0
sa(dp45
g23
S'curve'
p46
sS'x'
I366
sg20
I1
sS'y'
I830
sa(dp47
g23
S'line'
p48
sS'x'
I355
sg20
I0
sS'y'
I830
sa(dp49
g23
S'line'
p50
sS'x'
I360
sg20
I0
sS'y'
I766
sa(dp51
g23
S'line'
p52
sS'x'
I367
sg20
I1
sS'y'
I766
sa(dp53
S'y'
I766
sS'x'
I435
sg20
I0
sa(dp54
S'y'
I752
sS'x'
I475
sg20
I0
sa(dp55
g23
S'curve'
p56
sS'x'
I477
sg20
I1
sS'y'
I707
sa(dp57
S'y'
I639
sS'x'
I480
sg20
I0
sa(dp58
S'y'
I507
sS'x'
I484
sg20
I0
sa(dp59
g23
S'curve'
p60
sS'x'
I484
sg20
I1
sS'y'
I385
sa(dp61
S'y'
I284
sS'x'
I484
sg20
I0
sa(dp62
S'y'
I189
sS'x'
I481
sg20
I0
sa(dp63
g23
S'curve'
p64
sS'x'
I475
sg20
I0
sS'y'
I142
sa(dp65
g23
S'line'
p66
sS'x'
I484
sg20
I0
sS'y'
I99
sa(dp67
S'y'
I44
sS'x'
I484
sg20
I0
sa(dp68
S'y'
I-21
sS'x'
I508
sg20
I0
sa(dp69
g23
S'curve'
p70
sS'x'
I598
sg20
I1
sS'y'
I-21
sasa(dp71
g17
(lp72
(dp73
S'y'
I-13
sS'x'
I403
sg20
I0
sa(dp74
S'y'
I66
sS'x'
I479
sg20
I0
sa(dp75
g23
S'curve'
p76
sS'x'
I511
sg20
I0
sS'y'
I140
sa(dp77
g23
S'line'
p78
sS'x'
I480
sg20
I0
sS'y'
I181
sa(dp79
S'y'
I130
sS'x'
I460
sg20
I0
sa(dp80
S'y'
I67
sS'x'
I407
sg20
I0
sa(dp81
g23
S'curve'
p82
sS'x'
I328
sg20
I1
sS'y'
I67
sa(dp83
S'y'
I67
sS'x'
I228
sg20
I0
sa(dp84
S'y'
I156
sS'x'
I180
sg20
I0
sa(dp85
g23
S'curve'
p86
sS'x'
I180
sg20
I1
sS'y'
I261
sa(dp87
S'y'
I426
sS'x'
I180
sg20
I0
sa(dp88
S'y'
I545
sS'x'
I256
sg20
I0
sa(dp89
g23
S'curve'
p90
sS'x'
I374
sg20
I1
sS'y'
I545
sa(dp91
S'y'
I545
sS'x'
I447
sg20
I0
sa(dp92
S'y'
I500
sS'x'
I498
sg20
I0
sa(dp93
g23
S'curve'
p94
sS'x'
I498
sg20
I0
sS'y'
I500
sa(dp95
g23
S'line'
p96
sS'x'
I538
sg20
I0
sS'y'
I588
sa(dp97
S'y'
I597
sS'x'
I513
sg20
I0
sa(dp98
S'y'
I606
sS'x'
I470
sg20
I0
sa(dp99
g23
S'curve'
p100
sS'x'
I422
sg20
I1
sS'y'
I606
sa(dp101
S'y'
I606
sS'x'
I171
sg20
I0
sa(dp102
S'y'
I408
sS'x'
I56
sg20
I0
sa(dp103
g23
S'curve'
p104
sS'x'
I56
sg20
I1
sS'y'
I248
sa(dp105
S'y'
I95
sS'x'
I56
sg20
I0
sa(dp106
S'y'
I-13
sS'x'
I164
sg20
I0
sa(dp107
g23
S'curve'
p108
sS'x'
I307
sg20
I1
sS'y'
I-13
sasasS'components'
p109
(lp110
sS'anchors'
p111
(lp112
sss."
EndChar
StartChar: e
Encoding: 101 101 63
GlifName: e
Width: 470
VWidth: 0
Flags: W
LayerCount: 2
Fore
SplineSet
254 -15 m 256
 352 -15 404 42 417 59 c 257
 401 85 l 257
 400 85 353 40 277 41 c 256
 156 42 126 137 128 239 c 256
 129 350 179 422 244 422 c 256
 306 423 338 354 338 279 c 257
 289 278 l 257
 105 260 l 257
 118 223 l 257
 433 225 l 257
 450 383 367 464 258 463 c 256
 142 461 35 373 35 197 c 256
 35 58 132 -16 254 -15 c 256
  PathStart: -2
EndSplineSet
Validated: 37
PickledDataWithLists: "(dp1
S'com.schriftgestaltung.Glyphs.lastChange'
p2
S'2018-07-27 16:12:40 +0000'
p3
s."
EndChar
StartChar: f
Encoding: 102 102 72
GlifName: f
Width: 376
VWidth: 0
Flags: W
LayerCount: 2
Fore
SplineSet
276 0 m 257
 268 42 l 257
 217 40 189 69 184 140 c 256
 178 249 181 400 182 517 c 256
 184 617 205 649 239 653 c 256
 296 659 340 601 372 553 c 257
 388 584 405 640 405 682 c 257
 405 682 357 699 306 699 c 256
 216 700 105 655 103 480 c 256
 103 464 102 450 102 436 c 257
 103 424 101 412 101 400 c 256
 103 314 105 242 105 169 c 256
 105 87 109 42 19 47 c 257
 25 0 l 257
 276 0 l 257
158 388 m 257
 306 402 l 257
 296 453 l 257
 195 449 132 449 23 453 c 257
 31 400 l 257
 68 400 125 390 126 339 c 257
 158 388 l 257
EndSplineSet
Validated: 37
PickledDataWithLists: "(dp1
S'com.schriftgestaltung.Glyphs.lastChange'
p2
S'2018-07-27 16:12:40 +0000'
p3
s."
EndChar
StartChar: g
Encoding: 103 103 85
GlifName: g
Width: 592
VWidth: 0
Flags: W
LayerCount: 2
Fore
SplineSet
524 -18 m 256
 525 91 389 100 206 100 c 256
 159 100 169 143 210 176 c 257
 199 199 l 257
 147 169 98 134 65 95 c 257
 72 53 94 46 149 44 c 256
 271 38 427 44 427 -44 c 256
 428 -92 371 -159 262 -159 c 256
 175 -159 129 -132 129 -82 c 257
 129 -16 214 34 282 49 c 257
 205 54 l 257
 124 23 38 -22 39 -103 c 256
 39 -166 112 -206 233 -206 c 256
 404 -206 523 -121 524 -18 c 256
  PathStart: -2
445 348 m 256
 445 439 343 470 270 470 c 256
 161 470 56 404 57 296 c 256
 58 222 126 176 237 176 c 256
 342 176 445 236 445 348 c 256
  PathStart: -2
150 315 m 256
 150 383 206 429 258 429 c 256
 320 429 350 379 350 330 c 256
 350 270 314 219 248 218 c 256
 199 217 150 244 150 315 c 256
  PathStart: -2
567 467 m 257
 488 421 427 399 403 397 c 257
 436 365 l 257
 475 365 526 365 569 363 c 257
 572 387 571 439 567 467 c 257
  PathStart: -2
EndSplineSet
Validated: 37
PickledDataWithLists: "(dp1
S'com.schriftgestaltung.Glyphs.lastChange'
p2
S'2018-07-27 16:12:40 +0000'
p3
s."
EndChar
StartChar: h
Encoding: 104 104 92
GlifName: h
Width: 598
VWidth: 0
Flags: W
LayerCount: 2
Fore
SplineSet
571 0 m 257
 564 39 l 257
 540 39 496 43 495 101 c 257
 497 162 500 232 500 287 c 256
 500 322 499 353 497 370 c 256
 486 443 441 471 383 471 c 256
 300 471 216 402 178 350 c 257
 197 321 l 257
 197 321 249 395 327 395 c 256
 373 395 405 370 412 321 c 256
 415 298 417 267 417 233 c 256
 417 193 416 147 411 105 c 256
 403 43 368 43 322 48 c 257
 330 0 l 257
 571 0 l 257
281 0 m 257
 273 39 l 257
 269 39 l 258
 225 39 202 59 202 132 c 256
 202 250 206 528 221 655 c 257
 221 655 95 637 30 638 c 257
 35 590 l 257
 95 590 119 588 122 554 c 257
 124 498 125 435 125 372 c 256
 125 270 122 169 118 105 c 257
 113 68 89 47 39 47 c 258
 29 47 l 257
 37 0 l 257
 281 0 l 257
EndSplineSet
Validated: 37
PickledDataWithLists: "(dp1
S'com.schriftgestaltung.Glyphs.lastChange'
p2
S'2018-07-27 16:12:40 +0000'
p3
s."
EndChar
StartChar: i
Encoding: 105 105 94
GlifName: i
Width: 305
VWidth: 0
Flags: HW
LayerCount: 2
Fore
SplineSet
209.200195312 653.25 m 260
 209.200195312 697.349761074 175.600106869 725.349609375 135 725.349609375 c 260
 91.5998857606 725.349609375 60.0998028449 694.549850321 60.7998046875 650.450195312 c 260
 60.7998046875 612.650296725 87.3997365969 577.650390625 137.099609375 577.650390625 c 260
 175.599922254 577.650390625 209.200195312 607.750235098 209.200195312 653.25 c 260
277 0 m 257
 269 39 l 257
 265 39 l 258
 221 39 199 56 198 132 c 256
 197 210 202 351 217 477 c 257
 217 477 95 460 30 461 c 257
 35 413 l 257
 95 413 119 410 122 377 c 257
 124 321 125 258 125 195 c 256
 125 160 122 126 118 105 c 257
 113 68 89 47 39 47 c 258
 29 47 l 257
 37 0 l 257
 277 0 l 257
EndSplineSet
PickledDataWithLists: "(dp1
S'com.schriftgestaltung.Glyphs.lastChange'
p2
S'2018-07-27 16:20:03 +0000'
p3
s."
EndChar
StartChar: j
Encoding: 106 106 95
GlifName: j
Width: 282
VWidth: 0
Flags: HW
LayerCount: 2
Fore
SplineSet
203.200195312 633.25 m 256
 203.200195312 677.349761074 169.600106869 705.349609375 129 705.349609375 c 256
 85.5998857606 705.349609375 54.0998028449 674.549850321 54.7998046875 630.450195312 c 256
 54.7998046875 592.650296725 81.3997365969 557.650390625 131.099609375 557.650390625 c 256
 169.599922254 557.650390625 203.200195312 587.750235098 203.200195312 633.25 c 256
209 466 m 257
 209 466 101 456 14 457 c 257
 18 410 l 257
 89 410 112 387 116 353 c 256
 120 306 130 150 119 -2 c 256
 108 -116 52 -164 -22 -146 c 257
 -39 -185 l 257
 -28 -191 11 -204 53 -203 c 256
 151 -203 203 -142 201 -6 c 256
 200 76 201 366 209 466 c 257
EndSplineSet
PickledDataWithLists: "(dp1
S'com.schriftgestaltung.Glyphs.lastChange'
p2
S'2018-07-27 16:12:40 +0000'
p3
s."
EndChar
StartChar: k
Encoding: 107 107 96
GlifName: k
Width: 563
VWidth: 0
Flags: W
LayerCount: 2
Fore
SplineSet
281 0 m 257
 273 39 l 257
 269 39 l 258
 225 39 202 59 202 132 c 256
 202 250 206 528 221 655 c 257
 221 655 95 637 30 638 c 257
 35 590 l 257
 95 590 119 588 122 554 c 257
 124 498 125 435 125 372 c 256
 125 270 122 169 118 105 c 257
 113 68 89 47 39 47 c 258
 29 47 l 257
 37 0 l 257
 281 0 l 257
556 9 m 257
 547 49 l 257
 416 51 316 265 321 275 c 257
 295 267 259 257 236 263 c 257
 264 206 366 6 436 -6 c 257
 470 -8 507 -5 556 9 c 257
  PathStart: -2
319 242 m 257
 341 263 399 330 450 383 c 256
 473 407 488 419 512 420 c 257
 502 457 l 257
 428 454 362 453 303 457 c 257
 318 417 l 257
 378 419 373 399 363 383 c 256
 330 334 277 290 263 282 c 257
 242 282 224 286 203 290 c 257
 187 236 l 257
 227 236 295 236 319 242 c 257
  PathStart: -2
EndSplineSet
Validated: 37
PickledDataWithLists: "(dp1
S'com.schriftgestaltung.Glyphs.lastChange'
p2
S'2018-07-27 16:12:40 +0000'
p3
s."
EndChar
StartChar: l
Encoding: 108 108 97
GlifName: l
Width: 307
VWidth: 0
Flags: W
LayerCount: 2
Fore
SplineSet
281 0 m 257
 273 39 l 257
 269 39 l 258
 225 39 203 56 202 132 c 256
 199 250 206 528 221 655 c 257
 221 655 95 637 30 638 c 257
 35 590 l 257
 95 590 119 588 122 554 c 257
 124 498 125 435 125 372 c 256
 125 270 122 169 118 105 c 257
 113 68 89 47 39 47 c 258
 29 47 l 257
 37 0 l 257
 281 0 l 257
EndSplineSet
Validated: 41
PickledDataWithLists: "(dp1
S'com.schriftgestaltung.Glyphs.lastChange'
p2
S'2018-07-27 16:12:40 +0000'
p3
s."
EndChar
StartChar: m
Encoding: 109 109 101
GlifName: m
Width: 890
VWidth: 0
Flags: W
LayerCount: 2
Fore
SplineSet
869 0 m 257
 862 39 l 257
 838 39 794 43 793 101 c 257
 795 162 798 232 798 287 c 256
 798 322 797 353 795 370 c 256
 784 443 739 471 681 471 c 256
 598 471 514 402 476 350 c 257
 495 321 l 257
 495 321 547 395 625 395 c 256
 671 395 703 370 710 321 c 256
 713 298 715 267 715 233 c 256
 715 193 714 147 709 105 c 256
 701 43 662 42 629 45 c 257
 637 0 l 257
 869 0 l 257
287 0 m 257
 280 37 l 257
 250 37 214 42 214 105 c 256
 215 194 217 305 221 391 c 257
 204 381 l 257
 209 401 218 468 218 468 c 256
 218 468 91 457 30 458 c 257
 35 411 l 257
 131 409 132 374 132 291 c 256
 132 240 132 162 126 94 c 256
 122 53 82 43 39 48 c 257
 45 0 l 257
 287 0 l 257
571 0 m 257
 564 39 l 257
 540 39 502 43 501 101 c 257
 504 162 506 232 506 287 c 256
 506 322 505 353 503 370 c 256
 492 443 451 471 393 471 c 256
 310 471 235 420 197 373 c 257
 216 344 l 257
 216 344 256 397 333 397 c 256
 379 397 408 370 415 321 c 256
 418 298 420 267 420 233 c 256
 420 193 419 147 414 105 c 256
 407 43 373 43 340 46 c 257
 348 0 l 257
 571 0 l 257
EndSplineSet
Validated: 37
PickledDataWithLists: "(dp1
S'com.schriftgestaltung.Glyphs.lastChange'
p2
S'2018-07-27 16:12:40 +0000'
p3
s."
EndChar
StartChar: n
Encoding: 110 110 107
GlifName: n
Width: 622
VWidth: 0
Flags: W
LayerCount: 2
Fore
SplineSet
594 0 m 257
 587 39 l 257
 563 39 519 43 518 101 c 257
 521 162 523 232 523 287 c 256
 523 322 522 353 520 370 c 256
 509 443 464 471 406 471 c 256
 323 471 239 402 201 350 c 257
 220 321 l 257
 220 321 273 395 350 395 c 256
 396 395 428 370 435 321 c 256
 438 298 440 267 440 233 c 256
 440 193 439 147 434 105 c 256
 427 43 391 43 345 48 c 257
 353 0 l 257
 594 0 l 257
295 0 m 257
 287 37 l 257
 258 37 222 42 222 105 c 256
 223 194 221 282 225 368 c 257
 208 358 l 257
 213 378 226 468 226 468 c 256
 226 468 99 457 38 458 c 257
 43 411 l 257
 139 409 140 374 140 291 c 256
 140 240 140 162 133 94 c 256
 129 53 97 46 47 48 c 257
 53 0 l 257
 295 0 l 257
EndSplineSet
Validated: 37
PickledDataWithLists: "(dp1
S'com.schriftgestaltung.Glyphs.lastChange'
p2
S'2018-07-27 16:12:40 +0000'
p3
s."
EndChar
StartChar: o
Encoding: 111 111 113
GlifName: o
Width: 509
VWidth: 0
Flags: W
LayerCount: 2
Fore
SplineSet
474 249 m 256
 479 409 397 473 279 474 c 256
 138 474 32 359 34 189 c 256
 35 69 101 -12 230 -14 c 256
 402 -17 470 114 474 249 c 256
  PathStart: -2
132 245 m 256
 136 389 209 425 245 428 c 256
 330 436 387 350 383 229 c 256
 380 129 340 42 265 34 c 256
 177 24 128 120 132 245 c 256
  PathStart: -2
EndSplineSet
Validated: 41
PickledDataWithLists: "(dp1
S'com.schriftgestaltung.Glyphs.lastChange'
p2
S'2018-07-27 16:12:40 +0000'
p3
s."
EndChar
StartChar: p
Encoding: 112 112 118
GlifName: p
Width: 592
VWidth: 0
Flags: W
LayerCount: 2
Fore
SplineSet
36 409 m 257
 100 410 127 386 131 351 c 256
 132 338 133 316 133 289 c 256
 133 252 132 137 129 40 c 256
 127 -75 129 -118 69 -126 c 256
 62 -127 55 -128 46 -128 c 257
 52 -176 l 257
 313 -176 l 257
 306 -139 l 257
 302 -139 298 -139 294 -138 c 257
 220 -132 216 -74 214 23 c 256
 213 63 213 102 213 136 c 258
 213 215 l 258
 213 269 216 325 219 376 c 257
 201 370 l 257
 206 390 219 468 219 468 c 256
 219 468 140 457 68 457 c 256
 55 457 42 457 31 458 c 257
 36 409 l 257
260 -3 m 256
 426 -3 548 120 548 283 c 256
 548 405 476 473 378 473 c 256
 291 473 217 412 193 355 c 257
 216 323 l 257
 233 364 283 410 336 410 c 256
 417 410 445 337 445 258 c 256
 445 148 403 45 301 45 c 256
 246 45 206 77 206 77 c 257
 175 9 l 257
 194 2 225 -3 260 -3 c 256
  PathStart: -2
EndSplineSet
Validated: 37
PickledDataWithLists: "(dp1
S'com.schriftgestaltung.Glyphs.lastChange'
p2
S'2018-07-27 16:12:40 +0000'
p3
s."
EndChar
StartChar: q
Encoding: 113 113 129
GlifName: q
Width: 525
VWidth: 0
Flags: W
LayerCount: 2
Fore
SplineSet
384 123 m 257
 358 155 l 257
 330 90 276 56 233 55 c 256
 185 55 127 92 128 197 c 256
 129 334 184 414 247 426 c 256
 337 442 387 349 387 349 c 257
 443 449 l 257
 410 462 360 476 284 475 c 256
 113 474 39 341 35 201 c 256
 30 69 99 -6 210 -6 c 256
 281 -6 347 36 384 123 c 257
  PathStart: -2
518 -176 m 257
 514 -139 l 257
 466 -139 443 -99 440 -50 c 256
 433 126 430 350 443 449 c 257
 288 464 l 257
 298 430 l 257
 358 439 349 404 353 341 c 256
 355 319 357 122 356 15 c 256
 353 -96 344 -123 264 -128 c 257
 270 -176 l 257
 518 -176 l 257
EndSplineSet
Validated: 37
PickledDataWithLists: "(dp1
S'com.schriftgestaltung.Glyphs.lastChange'
p2
S'2018-07-27 16:12:40 +0000'
p3
s."
EndChar
StartChar: r
Encoding: 114 114 140
GlifName: r
Width: 446
VWidth: 0
Flags: W
LayerCount: 2
Fore
SplineSet
43 411 m 257
 112 410 132 391 138 349 c 256
 140 333 140 314 140 291 c 256
 140 240 140 162 133 94 c 256
 130 62 110 49 82 48 c 257
 73 47 65 47 56 48 c 257
 62 0 l 257
 325 0 l 257
 317 37 l 257
 306 37 l 257
 274 39 223 49 222 113 c 256
 220 202 221 282 225 368 c 257
 210 358 l 257
 215 378 226 468 226 468 c 256
 226 468 126 459 61 458 c 258
 38 458 l 257
 43 411 l 257
296 370 m 256
 331 381 386 370 386 370 c 257
 322 381 l 257
 352 370 364 350 369 332 c 257
 417 330 l 257
 422 365 427 441 426 470 c 257
 331 470 197 383 172 293 c 257
 191 265 l 257
 216 322 255 357 296 370 c 256
  PathStart: -2
EndSplineSet
Validated: 37
PickledDataWithLists: "(dp1
S'com.schriftgestaltung.Glyphs.lastChange'
p2
S'2018-07-27 16:12:40 +0000'
p3
sS'com.schriftgestaltung.Glyphs.leftMetricsKey'
p4
S'=n'
p5
s."
EndChar
StartChar: s
Encoding: 115 115 143
GlifName: s
Width: 398
VWidth: 0
Flags: W
LayerCount: 2
Fore
SplineSet
49 5 m 257
 49 14 48 25 48 38 c 256
 48 64 50 95 55 127 c 257
 119 120 l 257
 121 84 121 50 139 23 c 257
 108 32 105 65 100 99 c 257
 109 80 134 28 197 28 c 256
 248 28 282 57 282 105 c 256
 282 203 60 206 60 334 c 256
 60 406 119 467 227 467 c 256
 299 467 353 447 353 447 c 257
 353 436 354 422 354 407 c 256
 354 381 353 353 350 336 c 257
 289 343 l 257
 288 371 276 418 260 455 c 257
 303 356 l 257
 292 368 276 427 211 427 c 256
 171 427 140 403 140 366 c 256
 140 262 367 271 367 125 c 256
 367 43 298 -19 189 -19 c 256
 113 -19 49 5 49 5 c 257
  PathStart: -2
EndSplineSet
Validated: 5
PickledDataWithLists: "(dp1
S'com.schriftgestaltung.Glyphs.lastChange'
p2
S'2018-07-27 16:12:40 +0000'
p3
sS'com.typemytype.robofont.layerData'
p4
(dp5
S'Regular Nov 4 16, 19:41'
p6
(dp7
S'name'
p8
S's'
sS'lib'
p9
(dp10
sS'unicodes'
p11
(lp12
sS'width'
p13
I531
sS'contours'
p14
(lp15
(dp16
S'points'
p17
(lp18
(dp19
S'y'
I-25
sS'x'
I387
sS'smooth'
p20
I0
sa(dp21
S'y'
I56
sS'x'
I477
sg20
I0
sa(dp22
S'segmentType'
p23
S'curve'
p24
sS'x'
I477
sg20
I1
sS'y'
I162
sa(dp25
S'y'
I352
sS'x'
I477
sg20
I0
sa(dp26
S'y'
I340
sS'x'
I182
sg20
I0
sa(dp27
g23
S'curve'
p28
sS'x'
I182
sg20
I1
sS'y'
I475
sa(dp29
S'y'
I524
sS'x'
I182
sg20
I0
sa(dp30
S'y'
I555
sS'x'
I222
sg20
I0
sa(dp31
g23
S'curve'
p32
sS'x'
I274
sg20
I1
sS'y'
I555
sa(dp33
S'y'
I554
sS'x'
I358
sg20
I0
sa(dp34
S'y'
I478
sS'x'
I379
sg20
I0
sa(dp35
g23
S'curve'
p36
sS'x'
I393
sg20
I0
sS'y'
I462
sa(dp37
g23
S'line'
p38
sS'x'
I338
sg20
I1
sS'y'
I591
sa(dp39
S'y'
I543
sS'x'
I359
sg20
I0
sa(dp40
S'y'
I482
sS'x'
I374
sg20
I0
sa(dp41
g23
S'curve'
p42
sS'x'
I375
sg20
I0
sS'y'
I445
sa(dp43
g23
S'line'
p44
sS'x'
I455
sg20
I0
sS'y'
I437
sa(dp45
S'y'
I459
sS'x'
I458
sg20
I0
sa(dp46
S'y'
I495
sS'x'
I460
sg20
I0
sa(dp47
g23
S'curve'
p48
sS'x'
I460
sg20
I1
sS'y'
I528
sa(dp49
S'y'
I548
sS'x'
I460
sg20
I0
sa(dp50
S'y'
I566
sS'x'
I459
sg20
I0
sa(dp51
g23
S'curve'
p52
sS'x'
I458
sg20
I0
sS'y'
I580
sa(dp53
S'y'
I580
sS'x'
I458
sg20
I0
sa(dp54
S'y'
I606
sS'x'
I388
sg20
I0
sa(dp55
g23
S'curve'
p56
sS'x'
I295
sg20
I1
sS'y'
I606
sa(dp57
S'y'
I606
sS'x'
I154
sg20
I0
sa(dp58
S'y'
I527
sS'x'
I78
sg20
I0
sa(dp59
g23
S'curve'
p60
sS'x'
I78
sg20
I1
sS'y'
I434
sa(dp61
S'y'
I267
sS'x'
I78
sg20
I0
sa(dp62
S'y'
I264
sS'x'
I366
sg20
I0
sa(dp63
g23
S'curve'
p64
sS'x'
I366
sg20
I1
sS'y'
I136
sa(dp65
S'y'
I74
sS'x'
I366
sg20
I0
sa(dp66
S'y'
I36
sS'x'
I322
sg20
I0
sa(dp67
g23
S'curve'
p68
sS'x'
I256
sg20
I1
sS'y'
I36
sa(dp69
S'y'
I36
sS'x'
I168
sg20
I0
sa(dp70
S'y'
I94
sS'x'
I147
sg20
I0
sa(dp71
g23
S'curve'
p72
sS'x'
I115
sg20
I0
sS'y'
I128
sa(dp73
S'y'
I85
sS'x'
I122
sg20
I0
sa(dp74
S'y'
I41
sS'x'
I134
sg20
I0
sa(dp75
g23
S'curve'
p76
sS'x'
I175
sg20
I0
sS'y'
I30
sa(dp77
S'y'
I65
sS'x'
I151
sg20
I0
sa(dp78
S'y'
I109
sS'x'
I142
sg20
I0
sa(dp79
g23
S'curve'
p80
sS'x'
I139
sg20
I0
sS'y'
I156
sa(dp81
g23
S'line'
p82
sS'x'
I56
sg20
I0
sS'y'
I165
sa(dp83
S'y'
I124
sS'x'
I50
sg20
I0
sa(dp84
S'y'
I83
sS'x'
I47
sg20
I0
sa(dp85
g23
S'curve'
p86
sS'x'
I47
sg20
I1
sS'y'
I49
sa(dp87
S'y'
I33
sS'x'
I47
sg20
I0
sa(dp88
S'y'
I18
sS'x'
I48
sg20
I0
sa(dp89
g23
S'curve'
p90
sS'x'
I49
sg20
I0
sS'y'
I7
sa(dp91
S'y'
I7
sS'x'
I49
sg20
I0
sa(dp92
S'y'
I-25
sS'x'
I132
sg20
I0
sa(dp93
g23
S'curve'
p94
sS'x'
I245
sg20
I1
sS'y'
I-25
sasasS'components'
p95
(lp96
sS'anchors'
p97
(lp98
(dp99
S'y'
I670
sS'x'
I284
sg8
S'top'
p100
sa(dp101
S'y'
I-10
sS'x'
I256
sg8
S'bottom'
p102
sasss."
EndChar
StartChar: t
Encoding: 116 116 668
GlifName: t
Width: 354
VWidth: 0
Flags: W
LayerCount: 2
Fore
SplineSet
330 43 m 257
 310 69 l 257
 291 57 271 51 253 51 c 256
 223 51 194 66 182 99 c 256
 173 125 177 189 177 283 c 256
 177 312 179 358 182 390 c 257
 311 400 l 257
 302 450 l 257
 184 450 l 257
 186 506 189 562 193 610 c 257
 105 591 l 257
 104 522 104 450 104 450 c 256
 12 450 l 257
 19 398 l 257
 65 398 99 383 99 383 c 257
 102 297 91 149 91 99 c 256
 91 28 122 -13 195 -13 c 256
 258 -13 313 25 330 43 c 257
  PathStart: -2
EndSplineSet
Validated: 41
PickledDataWithLists: "(dp1
S'com.schriftgestaltung.Glyphs.lastChange'
p2
S'2018-07-27 16:12:40 +0000'
p3
s."
EndChar
StartChar: u
Encoding: 117 117 675
GlifName: u
Width: 561
VWidth: 0
Flags: W
LayerCount: 2
Fore
SplineSet
407 111 m 257
 387 139 l 257
 387 139 335 65 257 65 c 256
 212 65 177 91 170 139 c 256
 167 162 166 193 166 227 c 256
 166 309 171 396 184 463 c 257
 130 456 68 450 -3 454 c 257
 2 404 l 257
 25 406 92 403 89 348 c 256
 87 290 83 228 83 173 c 256
 83 139 85 107 88 90 c 256
 99 18 143 -11 202 -11 c 256
 284 -11 369 59 407 111 c 257
  PathStart: -2
554 0 m 257
 547 43 l 257
 461 45 467 89 467 169 c 256
 467 240 472 346 480 457 c 257
 392 447 l 257
 384 370 383 312 383 246 c 258
 383 190 l 258
 383 156 383 124 382 92 c 257
 382 92 390 109 396 109 c 256
 398 109 397 105 397 99 c 257
 392 79 387 0 387 0 c 257
 554 0 l 257
474 355 m 257
 481 464 l 257
 437 457 346 451 290 455 c 257
 296 409 l 257
 325 410 389 412 385 345 c 257
 474 355 l 257
EndSplineSet
Validated: 37
PickledDataWithLists: "(dp1
S'com.schriftgestaltung.Glyphs.lastChange'
p2
S'2018-07-27 16:12:40 +0000'
p3
s."
EndChar
StartChar: v
Encoding: 118 118 677
GlifName: v
Width: 507
VWidth: 0
Flags: W
LayerCount: 2
Fore
SplineSet
291 14 m 257
 320 75 383 216 443 353 c 256
 457 385 462 415 516 417 c 257
 507 461 l 257
 433 458 374 457 300 461 c 257
 306 413 l 257
 359 415 398 407 383 363 c 256
 336 234 275 112 252 55 c 257
 252 55 250 105 246 122 c 257
 223 193 196 281 172 357 c 257
 160 407 179 415 238 420 c 257
 227 461 l 257
 142 459 87 457 2 461 c 257
 13 412 l 257
 49 413 67 408 82 358 c 256
 141 176 172 74 202 -12 c 257
 291 14 l 257
EndSplineSet
Validated: 41
PickledDataWithLists: "(dp1
S'com.schriftgestaltung.Glyphs.lastChange'
p2
S'2018-07-27 16:12:40 +0000'
p3
s."
EndChar
StartChar: w
Encoding: 119 119 678
GlifName: w
Width: 751
VWidth: 0
Flags: W
LayerCount: 2
Fore
SplineSet
554 1 m 257
 578 62 631 215 684 351 c 256
 699 391 705 413 752 414 c 257
 743 459 l 257
 671 454 618 454 543 459 c 257
 550 410 l 257
 602 413 639 399 624 353 c 256
 580 226 547 122 523 67 c 257
 523 67 520 132 512 159 c 256
 490 233 470 278 448 354 c 256
 434 403 448 415 495 417 c 257
 487 459 l 257
 415 457 365 456 280 459 c 257
 293 410 l 257
 330 411 353 398 360 371 c 256
 413 189 457 74 483 -12 c 257
 554 1 l 257
279 1 m 257
 306 62 360 215 420 351 c 257
 369 353 l 257
 316 226 273 120 250 65 c 257
 250 65 249 132 240 159 c 256
 217 233 200 279 175 354 c 256
 155 413 199 417 242 417 c 257
 231 459 l 257
 149 454 97 452 5 459 c 257
 11 410 l 257
 47 410 69 405 85 356 c 256
 146 172 179 74 209 -12 c 257
 279 1 l 257
EndSplineSet
Validated: 37
PickledDataWithLists: "(dp1
S'com.schriftgestaltung.Glyphs.lastChange'
p2
S'2018-07-27 16:12:40 +0000'
p3
s."
EndChar
StartChar: x
Encoding: 120 120 679
GlifName: x
Width: 495
VWidth: 0
Flags: W
LayerCount: 2
Fore
SplineSet
479 -2 m 257
 467 45 l 257
 442 45 422 55 393 90 c 256
 349 143 305 213 279 248 c 258
 268 262 l 257
 244 296 216 341 200 368 c 256
 182 400 192 417 236 417 c 257
 228 460 l 257
 169 456 100 456 25 460 c 257
 29 416 l 257
 59 417 83 409 112 363 c 256
 145 310 181 259 205 219 c 257
 211 219 l 257
 243 182 275 126 302 89 c 256
 330 51 302 40 259 41 c 257
 266 -2 l 257
 479 -2 l 257
216 -2 m 257
 206 39 l 257
 152 36 158 61 176 88 c 256
 201 127 236 182 266 216 c 257
 274 222 l 257
 297 253 341 312 377 358 c 256
 403 393 424 417 466 419 c 257
 460 460 l 257
 407 457 336 457 276 461 c 257
 285 417 l 257
 332 416 333 394 323 375 c 256
 301 338 263 291 231 249 c 257
 220 243 l 257
 188 196 133 115 112 88 c 256
 92 64 65 41 24 42 c 257
 31 -2 l 257
 216 -2 l 257
EndSplineSet
Validated: 37
PickledDataWithLists: "(dp1
S'com.schriftgestaltung.Glyphs.lastChange'
p2
S'2018-07-27 16:12:40 +0000'
p3
s."
EndChar
StartChar: y
Encoding: 121 121 680
GlifName: y
Width: 512
VWidth: 0
Flags: W
LayerCount: 2
Fore
SplineSet
293 12 m 257
 321 74 379 215 437 351 c 256
 454 390 459 413 513 414 c 257
 504 459 l 257
 430 456 371 454 296 459 c 257
 303 410 l 257
 356 413 387 399 373 353 c 256
 347 272 281 109 255 54 c 257
 255 54 239 129 231 156 c 256
 207 229 188 280 166 354 c 256
 151 403 191 413 249 417 c 257
 239 459 l 257
 151 457 85 455 -2 459 c 257
 4 414 l 257
 40 415 64 405 80 356 c 256
 140 172 172 80 202 -6 c 257
 228 -3 270 10 293 12 c 257
  PathStart: -2
230 -122 m 256
 256 -82 284 -7 304 39 c 257
 252 43 l 257
 218 -30 182 -129 33 -110 c 257
 25 -126 19 -178 49 -203 c 257
 114 -206 189 -185 230 -122 c 256
  PathStart: -2
EndSplineSet
Validated: 37
PickledDataWithLists: "(dp1
S'com.schriftgestaltung.Glyphs.lastChange'
p2
S'2018-07-27 16:12:40 +0000'
p3
s."
EndChar
StartChar: z
Encoding: 122 122 682
GlifName: z
Width: 438
VWidth: 0
Flags: W
LayerCount: 2
Fore
SplineSet
403 0 m 257
 413 42 414 91 413 139 c 257
 411 139 375 135 367 135 c 257
 367 96 361 62 350 60 c 256
 293 51 237 52 230 52 c 256
 146 52 156 68 186 116 c 256
 201 139 373 378 416 420 c 257
 411 460 l 257
 355 457 172 453 54 460 c 257
 50 417 49 363 52 322 c 257
 99 326 l 257
 98 342 105 387 114 401 c 257
 151 407 252 411 295 404 c 257
 263 349 111 129 28 45 c 257
 33 0 l 257
 403 0 l 257
EndSplineSet
Validated: 41
PickledDataWithLists: "(dp1
S'com.schriftgestaltung.Glyphs.lastChange'
p2
S'2018-07-27 16:12:40 +0000'
p3
s."
EndChar
StartChar: braceleft
Encoding: 123 123 38
GlifName: braceleft
Width: 337
VWidth: 0
Flags: W
LayerCount: 2
Fore
SplineSet
293 -39 m 257
 241 -16 230 21 233 62 c 256
 234 109 262 136 262 197 c 256
 262 247 231 276 192 293 c 257
 192 313 l 257
 166 320 87 313 58 315 c 257
 58 275 l 257
 237 271 146 152 149 48 c 256
 151 -24 226 -69 275 -76 c 257
 293 -39 l 257
257 400 m 256
 257 461 226 506 228 552 c 256
 229 594 236 626 288 648 c 257
 264 678 l 257
 223 665 147 618 145 547 c 256
 142 443 237 326 58 323 c 257
 58 283 l 257
 152 287 257 308 257 400 c 256
  PathStart: -2
EndSplineSet
Validated: 37
PickledDataWithLists: "(dp1
S'com.schriftgestaltung.Glyphs.lastChange'
p2
S'2018-07-27 16:12:40 +0000'
p3
s."
EndChar
StartChar: bar
Encoding: 124 124 37
GlifName: bar
Width: 183
VWidth: 0
Flags: W
LayerCount: 2
Fore
SplineSet
128 -119 m 257
 119 -24 126 458 128 571 c 257
 109 567 83 564 63 562 c 257
 67 450 65 42 62 -124 c 257
 128 -119 l 257
EndSplineSet
Validated: 41
PickledDataWithLists: "(dp1
S'com.schriftgestaltung.Glyphs.lastChange'
p2
S'2018-07-27 16:12:40 +0000'
p3
s."
EndChar
StartChar: asciitilde
Encoding: 126 126 32
GlifName: asciitilde
Width: 462
VWidth: 0
Flags: W
LayerCount: 2
Fore
SplineSet
142 327 m 256
 228 327 254 283 323 283 c 256
 360 283 384 296 408 319 c 257
 423 313 433 305 443 295 c 257
 419 243 382 218 311 218 c 256
 219 218 198 267 126 267 c 256
 94 267 64 249 51 226 c 257
 40 232 27 239 17 249 c 257
 34 290 72 327 142 327 c 256
  PathStart: -2
EndSplineSet
Validated: 1
PickledDataWithLists: "(dp1
S'com.schriftgestaltung.Glyphs.lastChange'
p2
S'2018-07-27 16:12:40 +0000'
p3
s."
EndChar
StartChar: cent
Encoding: 162 162 47
GlifName: cent
Width: 447
VWidth: 0
Flags: W
LayerCount: 2
Fore
SplineSet
291 504 m 256
 357 504 400 483 400 483 c 257
 400 474 400 461 400 447 c 256
 400 421 400 392 396 371 c 257
 352 375 l 257
 336 407 323 435 286 460 c 257
 312 454 327 440 339 421 c 257
 323 434 290 455 251 455 c 256
 182 455 132 373 132 263 c 256
 132 159 192 96 278 96 c 256
 326 96 367 116 394 139 c 257
 410 113 l 257
 370 67 314 42 246 42 c 256
 137 42 43 95 43 246 c 256
 43 362 120 504 291 504 c 256
  PathStart: -2
229 585 m 257
 249 588 271 591 290 594 c 257
 288 481 273 61 282 -34 c 257
 220 -39 l 257
 224 127 233 473 229 585 c 257
  PathStart: -2
EndSplineSet
Validated: 37
PickledDataWithLists: "(dp1
S'com.schriftgestaltung.Glyphs.lastChange'
p2
S'2018-07-27 16:12:40 +0000'
p3
s."
EndChar
StartChar: sterling
Encoding: 163 163 665
GlifName: sterling
Width: 462
VWidth: 0
Flags: W
LayerCount: 2
Fore
SplineSet
350 543 m 257
 338 562 321 577 295 577 c 257
 333 557 340 527 356 494 c 257
 410 490 l 257
 415 524 415 578 413 608 c 257
 413 608 342 623 277 623 c 256
 229 623 79 611 79 482 c 256
 79 337 230 320 199 219 c 256
 176 146 94 80 35 34 c 257
 52 0 l 257
 430 1 l 257
 438 59 442 94 439 125 c 257
 425 126 411 126 386 123 c 257
 382 95 370 69 356 46 c 257
 372 66 l 257
 318 71 193 75 83 44 c 257
 112 19 l 257
 149 43 277 111 277 219 c 256
 277 316 172 384 169 487 c 256
 168 552 214 579 266 579 c 256
 306 579 333 557 350 543 c 257
  PathStart: -2
399 271 m 257
 395 290 391 319 387 340 c 257
 255 332 143 332 39 340 c 257
 43 271 l 257
 399 271 l 257
EndSplineSet
Validated: 37
PickledDataWithLists: "(dp1
S'com.schriftgestaltung.Glyphs.lastChange'
p2
S'2018-07-27 16:12:40 +0000'
p3
s."
EndChar
StartChar: currency
Encoding: 164 164 53
GlifName: currency
Width: 462
VWidth: 0
Flags: W
LayerCount: 2
Fore
SplineSet
391 280 m 256
 391 363 330 422 244 422 c 256
 153 422 77 357 77 262 c 256
 77 183 134 115 227 115 c 256
 341 115 391 196 391 280 c 256
  PathStart: -2
142 263 m 256
 142 354 193 380 236 380 c 256
 283 380 329 338 329 273 c 256
 329 210 296 158 234 158 c 256
 175 158 142 204 142 263 c 256
  PathStart: -2
116 326 m 257
 142 368 l 257
 116 383 49 430 28 444 c 257
 18 433 8 416 -5 390 c 257
 32 372 80 347 116 326 c 257
  PathStart: -2
441 444 m 257
 421 427 357 379 330 362 c 257
 359 321 l 257
 393 343 440 370 477 391 c 257
 463 416 451 432 441 444 c 257
  PathStart: -2
43 82 m 257
 63 99 128 147 154 164 c 257
 126 205 l 257
 91 182 44 156 7 135 c 257
 22 110 33 94 43 82 c 257
  PathStart: -2
351 203 m 257
 323 162 l 257
 349 145 413 96 434 80 c 257
 444 92 455 108 470 132 c 257
 433 153 386 180 351 203 c 257
  PathStart: -2
EndSplineSet
Validated: 5
PickledDataWithLists: "(dp1
S'com.schriftgestaltung.Glyphs.lastChange'
p2
S'2018-07-27 16:12:40 +0000'
p3
sS'com.typemytype.robofont.layerData'
p4
(dp5
S'Jan 19 17, 15:45'
p6
(dp7
S'name'
p8
S'currency'
p9
sS'lib'
p10
(dp11
sS'unicodes'
p12
(lp13
sS'width'
p14
I600
sS'contours'
p15
(lp16
(dp17
S'points'
p18
(lp19
(dp20
S'y'
I159
sS'x'
I428
sS'smooth'
p21
I0
sa(dp22
S'y'
I266
sS'x'
I481
sg21
I0
sa(dp23
S'segmentType'
p24
S'curve'
p25
sS'x'
I481
sg21
I1
sS'y'
I374
sa(dp26
S'y'
I492
sS'x'
I481
sg21
I0
sa(dp27
S'y'
I538
sS'x'
I413
sg21
I0
sa(dp28
g24
S'curve'
p29
sS'x'
I317
sg21
I1
sS'y'
I538
sa(dp30
S'y'
I538
sS'x'
I210
sg21
I0
sa(dp31
S'y'
I453
sS'x'
I129
sg21
I0
sa(dp32
g24
S'curve'
p33
sS'x'
I129
sg21
I1
sS'y'
I330
sa(dp34
S'y'
I228
sS'x'
I129
sg21
I0
sa(dp35
S'y'
I159
sS'x'
I182
sg21
I0
sa(dp36
g24
S'curve'
p37
sS'x'
I287
sg21
I1
sS'y'
I159
sasa(dp38
g18
(lp39
(dp40
S'y'
I195
sS'x'
I232
sg21
I0
sa(dp41
S'y'
I259
sS'x'
I195
sg21
I0
sa(dp42
g24
S'curve'
p43
sS'x'
I195
sg21
I1
sS'y'
I342
sa(dp44
S'y'
I468
sS'x'
I195
sg21
I0
sa(dp45
S'y'
I500
sS'x'
I261
sg21
I0
sa(dp46
g24
S'curve'
p47
sS'x'
I293
sg21
I1
sS'y'
I503
sa(dp48
S'y'
I510
sS'x'
I363
sg21
I0
sa(dp49
S'y'
I446
sS'x'
I411
sg21
I0
sa(dp50
g24
S'curve'
p51
sS'x'
I411
sg21
I1
sS'y'
I356
sa(dp52
S'y'
I269
sS'x'
I411
sg21
I0
sa(dp53
S'y'
I195
sS'x'
I370
sg21
I0
sa(dp54
g24
S'curve'
p55
sS'x'
I296
sg21
I1
sS'y'
I195
sasasS'components'
p56
(lp57
sS'anchors'
p58
(lp59
sss."
EndChar
StartChar: yen
Encoding: 165 165 681
GlifName: yen
Width: 558
VWidth: 0
Flags: W
LayerCount: 2
Fore
SplineSet
501 256 m 257
 497 275 493 296 489 316 c 257
 357 309 218 309 69 316 c 257
 74 256 l 257
 501 256 l 257
501 156 m 257
 497 174 493 196 489 216 c 257
 357 209 218 209 69 216 c 257
 74 156 l 257
 501 156 l 257
EndSplineSet
Refer: 26 89 N 1 0 0 1 0 0 2
Validated: 37
PickledDataWithLists: "(dp1
S'com.schriftgestaltung.Glyphs.lastChange'
p2
S'2018-07-27 16:12:40 +0000'
p3
s."
EndChar
StartChar: brokenbar
Encoding: 166 166 42
GlifName: brokenbar
Width: 186
VWidth: 0
Flags: W
LayerCount: 2
Fore
SplineSet
126 263 m 257
 126 358 128 458 129 571 c 257
 109 567 82 564 62 563 c 257
 65 450 65 353 66 263 c 257
 126 263 l 257
66 178 m 257
 66 83 65 -28 63 -122 c 257
 127 -122 l 257
 124 -28 126 83 126 178 c 257
 66 178 l 257
EndSplineSet
Validated: 41
PickledDataWithLists: "(dp1
S'com.schriftgestaltung.Glyphs.lastChange'
p2
S'2018-07-27 16:12:40 +0000'
p3
s."
EndChar
StartChar: section
Encoding: 167 167 145
GlifName: section
Width: 462
VWidth: 0
Flags: W
LayerCount: 2
Fore
SplineSet
478 170 m 256
 478 355 242 398 242 500 c 256
 242 537 271 565 315 565 c 256
 383 565 404 509 418 494 c 257
 371 571 l 257
 389 530 401 504 403 472 c 257
 464 464 l 257
 467 484 469 512 469 541 c 256
 469 557 468 573 467 585 c 257
 467 585 412 607 338 607 c 256
 221 607 170 542 170 472 c 256
 170 343 404 306 404 158 c 256
 404 91 375 51 315 50 c 257
 303 9 l 257
 430 10 478 89 478 170 c 256
  PathStart: -2
365 33 m 256
 365 189 129 234 129 347 c 256
 129 403 166 432 209 432 c 257
 233 474 l 257
 116 474 54 406 54 316 c 256
 54 169 283 139 283 11 c 256
 283 -30 254 -75 194 -75 c 256
 132 -76 116 -48 89 -16 c 257
 97 -53 92 -74 131 -84 c 257
 105 -54 104 -22 101 18 c 257
 42 25 l 257
 36 -10 34 -38 34 -67 c 256
 34 -81 35 -94 36 -104 c 257
 36 -104 88 -125 182 -124 c 256
 317 -123 365 -39 365 33 c 256
  PathStart: -2
EndSplineSet
Validated: 37
PickledDataWithLists: "(dp1
S'com.schriftgestaltung.Glyphs.lastChange'
p2
S'2018-07-27 16:12:40 +0000'
p3
sS'com.typemytype.robofont.layerData'
p4
(dp5
S'Jan 18 17, 00:43'
p6
(dp7
S'name'
p8
S'section'
p9
sS'lib'
p10
(dp11
sS'unicodes'
p12
(lp13
sS'width'
p14
I600
sS'contours'
p15
(lp16
(dp17
S'points'
p18
(lp19
(dp20
S'y'
I104
sS'x'
I559
sS'smooth'
p21
I0
sa(dp22
S'y'
I207
sS'x'
I621
sg21
I0
sa(dp23
S'segmentType'
p24
S'curve'
p25
sS'x'
I621
sg21
I1
sS'y'
I312
sa(dp26
S'y'
I552
sS'x'
I621
sg21
I0
sa(dp27
S'y'
I608
sS'x'
I314
sg21
I0
sa(dp28
g24
S'curve'
p29
sS'x'
I314
sg21
I1
sS'y'
I740
sa(dp30
S'y'
I789
sS'x'
I314
sg21
I0
sa(dp31
S'y'
I825
sS'x'
I352
sg21
I0
sa(dp32
g24
S'curve'
p33
sS'x'
I409
sg21
I1
sS'y'
I825
sa(dp34
S'y'
I825
sS'x'
I497
sg21
I0
sa(dp35
S'y'
I752
sS'x'
I525
sg21
I0
sa(dp36
g24
S'curve'
p37
sS'x'
I543
sg21
I0
sS'y'
I732
sa(dp38
g24
S'line'
p39
sS'x'
I482
sg21
I0
sS'y'
I863
sa(dp40
S'y'
I809
sS'x'
I505
sg21
I0
sa(dp41
S'y'
I746
sS'x'
I521
sg21
I0
sa(dp42
g24
S'curve'
p43
sS'x'
I523
sg21
I0
sS'y'
I704
sa(dp44
g24
S'line'
p45
sS'x'
I603
sg21
I0
sS'y'
I694
sa(dp46
S'y'
I719
sS'x'
I606
sg21
I0
sa(dp47
S'y'
I756
sS'x'
I609
sg21
I0
sa(dp48
g24
S'curve'
p49
sS'x'
I609
sg21
I1
sS'y'
I793
sa(dp50
S'y'
I814
sS'x'
I609
sg21
I0
sa(dp51
S'y'
I835
sS'x'
I608
sg21
I0
sa(dp52
g24
S'curve'
p53
sS'x'
I606
sg21
I0
sS'y'
I851
sa(dp54
S'y'
I851
sS'x'
I606
sg21
I0
sa(dp55
S'y'
I879
sS'x'
I535
sg21
I0
sa(dp56
g24
S'curve'
p57
sS'x'
I439
sg21
I1
sS'y'
I879
sa(dp58
S'y'
I879
sS'x'
I287
sg21
I0
sa(dp59
S'y'
I795
sS'x'
I221
sg21
I0
sa(dp60
g24
S'curve'
p61
sS'x'
I221
sg21
I1
sS'y'
I704
sa(dp62
S'y'
I537
sS'x'
I221
sg21
I0
sa(dp63
S'y'
I488
sS'x'
I525
sg21
I0
sa(dp64
g24
S'curve'
p65
sS'x'
I525
sg21
I1
sS'y'
I296
sa(dp66
S'y'
I209
sS'x'
I525
sg21
I0
sa(dp67
S'y'
I157
sS'x'
I487
sg21
I0
sa(dp68
g24
S'curve'
p69
sS'x'
I409
sg21
I0
sS'y'
I156
sa(dp70
g24
S'line'
p71
sS'x'
I393
sg21
I0
sS'y'
I103
sasa(dp72
g18
(lp73
(dp74
S'y'
I31
sS'x'
I402
sg21
I0
sa(dp75
S'y'
I141
sS'x'
I464
sg21
I0
sa(dp76
g24
S'curve'
p77
sS'x'
I464
sg21
I1
sS'y'
I234
sa(dp78
S'y'
I436
sS'x'
I464
sg21
I0
sa(dp79
S'y'
I495
sS'x'
I157
sg21
I0
sa(dp80
g24
S'curve'
p81
sS'x'
I157
sg21
I1
sS'y'
I641
sa(dp82
S'y'
I715
sS'x'
I157
sg21
I0
sa(dp83
S'y'
I752
sS'x'
I205
sg21
I0
sa(dp84
g24
S'curve'
p85
sS'x'
I262
sg21
I0
sS'y'
I752
sa(dp86
g24
S'line'
p87
sS'x'
I292
sg21
I0
sS'y'
I806
sa(dp88
S'y'
I806
sS'x'
I140
sg21
I0
sa(dp89
S'y'
I718
sS'x'
I60
sg21
I0
sa(dp90
g24
S'curve'
p91
sS'x'
I60
sg21
I1
sS'y'
I602
sa(dp92
S'y'
I411
sS'x'
I60
sg21
I0
sa(dp93
S'y'
I371
sS'x'
I357
sg21
I0
sa(dp94
g24
S'curve'
p95
sS'x'
I357
sg21
I1
sS'y'
I205
sa(dp96
S'y'
I152
sS'x'
I357
sg21
I0
sa(dp97
S'y'
I94
sS'x'
I320
sg21
I0
sa(dp98
g24
S'curve'
p99
sS'x'
I242
sg21
I1
sS'y'
I93
sa(dp100
S'y'
I92
sS'x'
I161
sg21
I0
sa(dp101
S'y'
I129
sS'x'
I141
sg21
I0
sa(dp102
g24
S'curve'
p103
sS'x'
I106
sg21
I0
sS'y'
I170
sa(dp104
S'y'
I122
sS'x'
I116
sg21
I0
sa(dp105
S'y'
I95
sS'x'
I109
sg21
I0
sa(dp106
g24
S'curve'
p107
sS'x'
I160
sg21
I0
sS'y'
I82
sa(dp108
S'y'
I121
sS'x'
I127
sg21
I0
sa(dp109
S'y'
I162
sS'x'
I125
sg21
I0
sa(dp110
g24
S'curve'
p111
sS'x'
I121
sg21
I0
sS'y'
I214
sa(dp112
g24
S'line'
p113
sS'x'
I44
sg21
I0
sS'y'
I223
sa(dp114
S'y'
I178
sS'x'
I37
sg21
I0
sa(dp115
S'y'
I142
sS'x'
I34
sg21
I0
sa(dp116
g24
S'curve'
p117
sS'x'
I34
sg21
I1
sS'y'
I104
sa(dp118
S'y'
I86
sS'x'
I34
sg21
I0
sa(dp119
S'y'
I69
sS'x'
I35
sg21
I0
sa(dp120
g24
S'curve'
p121
sS'x'
I37
sg21
I0
sS'y'
I56
sa(dp122
S'y'
I56
sS'x'
I37
sg21
I0
sa(dp123
S'y'
I29
sS'x'
I104
sg21
I0
sa(dp124
g24
S'curve'
p125
sS'x'
I226
sg21
I1
sS'y'
I30
sasasS'components'
p126
(lp127
sS'anchors'
p128
(lp129
sss."
EndChar
StartChar: copyright
Encoding: 169 169 51
GlifName: copyright
Width: 795
VWidth: 0
Flags: W
LayerCount: 2
Fore
SplineSet
80 287 m 256
 80 462 223 604 398 604 c 256
 573 604 715 462 715 287 c 256
 715 112 573 -31 398 -31 c 256
 223 -31 80 112 80 287 c 256
  PathStart: -2
772 287 m 256
 772 494 604 661 398 661 c 256
 191 661 23 494 23 287 c 256
 23 80 191 -88 398 -88 c 256
 604 -88 772 80 772 287 c 256
  PathStart: -2
EndSplineSet
Refer: 45 99 N 0.924 0 0 0.924 165 73 2
Validated: 5
PickledDataWithLists: "(dp1
S'com.schriftgestaltung.Glyphs.lastChange'
p2
S'2018-07-27 16:12:40 +0000'
p3
s."
EndChar
StartChar: logicalnot
Encoding: 172 172 100
GlifName: logicalnot
Width: 485
VWidth: 0
Flags: W
LayerCount: 2
Fore
SplineSet
40 258 m 257
 399 258 l 257
 400 199 399 139 398 79 c 257
 454 80 l 257
 454 319 l 257
 330 315 174 316 42 316 c 257
 40 258 l 257
EndSplineSet
Validated: 41
PickledDataWithLists: "(dp1
S'com.schriftgestaltung.Glyphs.lastChange'
p2
S'2018-07-27 16:12:40 +0000'
p3
s."
EndChar
StartChar: registered
Encoding: 174 174 141
GlifName: registered
Width: 400
VWidth: 0
Flags: W
LayerCount: 2
Fore
SplineSet
33 424 m 256
 33 511 94 591 198 591 c 256
 285 591 354 518 354 424 c 256
 354 336 297 259 193 259 c 256
 105 259 33 319 33 424 c 256
  PathStart: -2
390 423 m 256
 390 531 306 619 193 619 c 256
 83 619 -4 532 -4 424 c 256
 -4 314 83 230 193 230 c 256
 302 230 390 313 390 423 c 256
  PathStart: -2
109 511 m 257
 130 511 134 499 135 484 c 256
 136 470 136 456 136 441 c 256
 136 419 135 393 133 362 c 256
 132 349 127 343 110 343 c 257
 112 323 l 257
 196 323 l 257
 193 343 l 257
 179 343 169 347 169 362 c 257
 168 374 166 403 167 427 c 257
 160 417 l 257
 166 416 179 413 192 413 c 256
 236 413 271 438 271 479 c 256
 271 507 253 531 213 531 c 256
 186 531 158 529 131 529 c 256
 123 529 115 529 107 530 c 257
 109 511 l 257
256 323 m 257
 300 323 l 257
 297 345 l 257
 273 344 246 403 229 430 c 257
 202 425 l 257
 216 385 243 334 256 323 c 257
  PathStart: -2
195 512 m 256
 221 512 233 498 233 478 c 256
 233 456 224 437 194 437 c 256
 184 437 172 437 167 440 c 257
 167 461 167 490 169 507 c 257
 174 509 183 512 195 512 c 256
  PathStart: -2
EndSplineSet
Validated: 37
PickledDataWithLists: "(dp1
S'com.schriftgestaltung.Glyphs.lastChange'
p2
S'2018-07-27 16:12:40 +0000'
p3
s."
EndChar
StartChar: degree
Encoding: 176 176 57
GlifName: degree
Width: 463
VWidth: 0
Flags: W
LayerCount: 2
Fore
SplineSet
209 477 m 256
 209 533 164 578 109 578 c 256
 52 578 8 533 8 477 c 256
 8 421 52 377 109 377 c 256
 164 377 209 421 209 477 c 256
  PathStart: -2
64 477 m 256
 64 501 85 522 110 522 c 256
 135 522 156 501 156 477 c 256
 156 451 135 430 110 430 c 256
 85 430 64 451 64 477 c 256
  PathStart: -2
EndSplineSet
Validated: 9
PickledDataWithLists: "(dp1
S'com.schriftgestaltung.Glyphs.lastChange'
p2
S'2018-07-27 16:12:40 +0000'
p3
s."
EndChar
StartChar: plusminus
Encoding: 177 177 128
GlifName: plusminus
Width: 462
VWidth: 0
Flags: W
LayerCount: 2
Fore
SplineSet
211 470 m 257
 216 349 214 229 211 109 c 257
 285 112 l 257
 281 219 280 335 285 472 c 257
 211 470 l 257
59 252 m 257
 161 256 296 256 434 252 c 257
 441 326 l 257
 320 323 179 323 60 326 c 257
 59 252 l 257
72 -8 m 257
 174 -4 286 -4 424 -8 c 257
 431 67 l 257
 310 63 193 63 73 67 c 257
 72 -8 l 257
EndSplineSet
Validated: 37
PickledDataWithLists: "(dp1
S'com.schriftgestaltung.Glyphs.lastChange'
p2
S'2018-07-27 16:12:40 +0000'
p3
s."
EndChar
StartChar: twosuperior
Encoding: 178 178 674
GlifName: twosuperior
Width: 324
VWidth: 0
Flags: W
LayerCount: 2
Fore
SplineSet
293 417 m 257
 297 504 l 257
 253 500 l 257
 251 487 253 461 221 461 c 258
 89 460 l 257
 77 442 l 257
 154 488 281 574 280 682 c 256
 279 747 237 772 167 772 c 256
 126 772 71 759 49 747 c 257
 49 747 48 714 51 685 c 257
 85 689 l 257
 94 732 123 738 141 739 c 256
 182 742 203 717 203 674 c 256
 203 578 117 519 41 455 c 257
 47 417 l 257
 293 417 l 257
EndSplineSet
Validated: 37
PickledDataWithLists: "(dp1
S'com.schriftgestaltung.Glyphs.rightMetricsKey'
p2
S'two'
p3
sS'com.schriftgestaltung.Glyphs.lastChange'
p4
S'2018-07-27 16:12:40 +0000'
p5
sS'com.schriftgestaltung.Glyphs.leftMetricsKey'
p6
S'two'
p7
s."
EndChar
StartChar: threesuperior
Encoding: 179 179 671
GlifName: threesuperior
Width: 273
VWidth: 0
Flags: W
LayerCount: 2
Fore
SplineSet
237 518 m 256
 237 569 189 613 104 601 c 257
 117 594 l 257
 196 613 224 653 224 701 c 256
 224 745 196 772 129 774 c 256
 91 775 47 764 24 753 c 257
 24 753 23 745 23 732 c 256
 23 721 24 706 25 693 c 257
 60 697 l 257
 66 730 80 745 112 745 c 256
 142 745 166 732 166 697 c 256
 166 652 120 619 54 610 c 257
 58 579 l 257
 152 581 183 555 183 513 c 256
 183 477 163 448 119 448 c 256
 79 448 49 470 37 493 c 257
 29 477 24 448 24 427 c 256
 24 424 25 422 25 420 c 257
 42 416 69 411 102 411 c 256
 178 411 237 449 237 518 c 256
  PathStart: -1
EndSplineSet
Validated: 37
PickledDataWithLists: "(dp1
S'com.schriftgestaltung.Glyphs.rightMetricsKey'
p2
S'three'
p3
sS'com.schriftgestaltung.Glyphs.lastChange'
p4
S'2018-07-27 16:12:40 +0000'
p5
s."
EndChar
StartChar: micro
Encoding: 181 181 102
GlifName: micro
Width: 561
VWidth: 0
Flags: W
LayerCount: 2
Fore
SplineSet
549 0 m 257
 542 43 l 257
 456 45 455 89 455 169 c 256
 455 240 460 353 468 464 c 257
 436 464 409 461 378 454 c 257
 385 377 383 312 383 246 c 258
 383 190 l 258
 383 156 383 124 382 92 c 257
 382 92 390 109 396 109 c 256
 398 109 393 105 393 99 c 257
 389 79 379 0 379 0 c 257
 549 0 l 257
257 69 m 256
 212 69 176 95 170 143 c 256
 167 166 166 193 166 227 c 256
 166 309 166 357 172 463 c 257
 134 463 115 457 82 454 c 257
 91 380 94 224 91 128 c 258
 82 -179 l 257
 164 -179 l 257
 156 -92 153 -6 155 63 c 257
 144 47 l 257
 146 39 166 -3 236 -3 c 256
 314 -3 369 59 407 111 c 257
 387 139 l 257
 387 139 335 69 257 69 c 256
  PathStart: -2
EndSplineSet
Validated: 37
PickledDataWithLists: "(dp1
S'com.schriftgestaltung.Glyphs.lastChange'
p2
S'2018-07-27 16:12:40 +0000'
p3
s."
EndChar
StartChar: paragraph
Encoding: 182 182 119
GlifName: paragraph
Width: 642
VWidth: 0
Flags: W
LayerCount: 2
Fore
SplineSet
534 -119 m 257
 525 -24 529 497 534 609 c 257
 515 606 460 603 440 601 c 257
 448 395 434 42 426 -124 c 257
 534 -119 l 257
359 534 m 257
 403 537 534 542 600 544 c 257
 604 616 l 257
 497 609 375 618 259 611 c 256
 133 604 70 535 69 418 c 256
 69 293 162 203 277 203 c 256
 315 203 331 204 360 212 c 257
 353 255 348 387 359 534 c 257
  PathStart: -2
EndSplineSet
Validated: 37
PickledDataWithLists: "(dp1
S'com.schriftgestaltung.Glyphs.lastChange'
p2
S'2018-07-27 16:12:40 +0000'
p3
s."
EndChar
StartChar: periodcentered
Encoding: 183 183 124
GlifName: periodcentered
Width: 307
VWidth: 0
Flags: W
LayerCount: 2
Fore
SplineSet
245 253 m 256
 245 306 203 341 153 341 c 256
 99 341 61 303 62 249 c 256
 62 202 95 159 156 159 c 256
 203 159 245 196 245 253 c 256
  PathStart: -2
EndSplineSet
Validated: 41
PickledDataWithLists: "(dp1
S'com.schriftgestaltung.Glyphs.lastChange'
p2
S'2018-07-27 16:12:40 +0000'
p3
s."
EndChar
StartChar: onesuperior
Encoding: 185 185 117
GlifName: onesuperior
Width: 221
VWidth: 0
Flags: W
LayerCount: 2
Fore
SplineSet
151 494 m 256
 152 583 153 738 157 770 c 257
 157 770 70 747 26 748 c 257
 28 714 l 257
 60 714 89 701 90 681 c 257
 93 656 95 564 90 490 c 256
 88 460 65 453 39 454 c 257
 42 414 l 257
 198 414 l 257
 193 455 l 257
 181 455 150 452 151 494 c 256
  PathStart: -2
EndSplineSet
Validated: 41
PickledDataWithLists: "(dp1
S'com.schriftgestaltung.Glyphs.rightMetricsKey'
p2
S'one'
p3
sS'com.schriftgestaltung.Glyphs.lastChange'
p4
S'2018-07-27 16:12:40 +0000'
p5
sS'com.schriftgestaltung.Glyphs.leftMetricsKey'
p6
S'one'
p7
s."
EndChar
StartChar: questiondown
Encoding: 191 191 131
GlifName: questiondown
Width: 462
VWidth: 0
Flags: W
LayerCount: 2
Fore
SplineSet
188 457 m 257
 191 440 198 380 198 330 c 256
 198 319 239 371 235 365 c 257
 169 344 44 307 17 163 c 256
 -5 45 71 -7 162 -7 c 256
 229 -7 296 21 337 46 c 257
 318 76 l 257
 295 63 262 43 220 46 c 256
 125 54 88 120 101 200 c 256
 117 302 229 326 270 330 c 257
 270 348 274 430 275 458 c 257
 188 457 l 257
266 154 m 257
 264 127 259 73 251 46 c 257
 337 46 l 257
 341 73 338 139 332 163 c 257
 266 154 l 257
EndSplineSet
Refer: 123 46 N -1 0 0 -1 348 617 2
Validated: 37
PickledDataWithLists: "(dp1
S'com.schriftgestaltung.Glyphs.lastChange'
p2
S'2018-07-27 16:12:40 +0000'
p3
s."
EndChar
StartChar: multiply
Encoding: 215 215 106
GlifName: multiply
Width: 462
VWidth: 0
Flags: W
LayerCount: 2
Fore
SplineSet
92 337 m 257
 179 255 285 149 365 65 c 257
 421 121 l 257
 349 188 242 295 147 392 c 257
 92 337 l 257
362 391 m 257
 280 303 176 202 90 119 c 257
 146 63 l 257
 219 141 318 241 418 335 c 257
 362 391 l 257
EndSplineSet
Validated: 5
PickledDataWithLists: "(dp1
S'com.schriftgestaltung.Glyphs.lastChange'
p2
S'2018-07-27 16:12:40 +0000'
p3
s."
EndChar
StartChar: divide
Encoding: 247 247 58
GlifName: divide
Width: 462
VWidth: 0
Flags: W
LayerCount: 2
Fore
SplineSet
25 186 m 257
 128 189 249 189 387 186 c 257
 387 260 l 257
 266 256 145 256 25 260 c 257
 25 186 l 257
245 346 m 256
 245 370 226 389 202 389 c 256
 177 389 158 370 158 346 c 256
 158 321 177 302 202 302 c 256
 226 302 245 321 245 346 c 256
  PathStart: -2
245 99 m 256
 245 123 226 142 202 142 c 256
 177 142 158 123 158 99 c 256
 158 75 177 55 202 55 c 256
 226 55 245 75 245 99 c 256
  PathStart: -2
EndSplineSet
Validated: 41
PickledDataWithLists: "(dp1
S'com.schriftgestaltung.Glyphs.lastChange'
p2
S'2018-07-27 16:12:40 +0000'
p3
s."
EndChar
StartChar: florin
Encoding: 278 402 80
GlifName: florin
Width: 509
VWidth: 0
Flags: W
LayerCount: 2
Fore
SplineSet
205 388 m 257
 353 402 l 257
 343 453 l 257
 242 449 179 449 70 453 c 257
 78 400 l 257
 115 400 172 390 172 339 c 257
 205 388 l 257
229 517 m 256
 231 617 252 649 286 653 c 256
 343 659 387 601 419 553 c 257
 435 584 452 640 452 682 c 257
 452 682 403 699 353 699 c 256
 263 700 152 655 150 480 c 256
 150 464 149 450 149 436 c 257
 150 424 148 412 148 400 c 256
 150 314 153 8 152 -32 c 256
 150 -159 37 -142 -39 -127 c 257
 -55 -158 -44 -197 -28 -216 c 257
 92 -216 226 -175 230 33 c 256
 230 68 228 400 229 517 c 256
  PathStart: -2
EndSplineSet
Validated: 37
PickledDataWithLists: "(dp1
S'com.schriftgestaltung.Glyphs.lastChange'
p2
S'2018-07-27 16:12:40 +0000'
p3
s."
EndChar
StartChar: schwa
Encoding: 300 601 144
GlifName: schwa
Width: 470
VWidth: 0
Flags: W
LayerCount: 2
Fore
SplineSet
234 463 m 256
 136 462 84 405 72 389 c 257
 87 362 l 257
 89 362 136 407 211 407 c 256
 333 405 362 310 360 208 c 256
 359 97 310 25 244 25 c 256
 182 25 143 93 143 169 c 257
 199 169 l 257
 383 187 l 257
 370 224 l 257
 55 223 l 257
 39 64 121 -17 230 -15 c 256
 346 -14 453 75 453 250 c 256
 453 390 357 464 234 463 c 256
  PathStart: -2
EndSplineSet
Validated: 37
PickledDataWithLists: "(dp1
S'com.schriftgestaltung.Glyphs.lastChange'
p2
S'2018-07-27 16:12:40 +0000'
p3
s."
EndChar
StartChar: sinAnusvara
Encoding: 306 3458 153
GlifName: sinA_nusvara
Width: 453
VWidth: 0
Flags: W
LayerCount: 2
Fore
SplineSet
393 248 m 256
 391 326 333 403 225 403 c 256
 136 403 57 331 59 219 c 256
 61 126 121 53 234 54 c 256
 354 55 395 158 393 248 c 256
  PathStart: -2
97 226 m 256
 97 294 154 331 227 331 c 256
 296 331 356 300 356 229 c 256
 356 175 308 126 232 126 c 256
 168 126 97 152 97 226 c 256
  PathStart: -2
EndSplineSet
Validated: 41
PickledDataWithLists: "(dp1
S'com.schriftgestaltung.Glyphs.lastChange'
p2
S'2018-07-27 16:12:40 +0000'
p3
s."
EndChar
StartChar: sinVisarga
Encoding: 797 3459 644
GlifName: sinV_isarga
Width: 276
VWidth: 0
Flags: W
LayerCount: 2
Fore
SplineSet
229 106 m 256
 229 156 199 192 141 192 c 256
 88 192 39 155 39 85 c 256
 39 40 69 2 126 2 c 256
 191 2 229 48 229 106 c 256
  PathStart: -2
78 87 m 256
 78 129 109 151 140 151 c 256
 169 151 186 133 186 108 c 256
 186 77 164 42 126 42 c 256
 95 42 78 62 78 87 c 256
  PathStart: -2
78 330 m 256
 78 377 116 403 148 403 c 256
 176 403 191 385 191 360 c 256
 191 325 167 288 122 288 c 256
 95 288 78 305 78 330 c 256
  PathStart: -2
234 350 m 256
 234 396 196 437 136 437 c 256
 89 437 42 407 42 342 c 256
 42 290 78 248 134 248 c 256
 202 248 234 299 234 350 c 256
  PathStart: -2
EndSplineSet
Validated: 9
PickledDataWithLists: "(dp1
S'com.schriftgestaltung.Glyphs.lastChange'
p2
S'2018-07-27 16:12:40 +0000'
p3
s."
EndChar
StartChar: sinA
Encoding: 301 3461 148
GlifName: sinA_
Width: 551
VWidth: 0
Flags: W
LayerCount: 2
Fore
SplineSet
274 -15 m 256
 354 -15 435 -6 486 19 c 257
 491 36 489 68 481 89 c 257
 419 39 348 22 305 22 c 256
 165 22 101 81 101 157 c 256
 101 224 148 287 231 287 c 256
 258 287 296 277 320 262 c 257
 333 272 l 257
 334 280 335 291 335 299 c 256
 335 395 268 465 179 465 c 256
 113 465 77 429 77 388 c 256
 77 353 101 336 118 335 c 257
 128 379 171 414 214 414 c 256
 260 414 287 381 287 332 c 256
 287 296 281 293 279 290 c 257
 311 320 l 257
 286 323 266 325 250 325 c 256
 122 325 22 268 22 153 c 256
 22 40 153 -15 274 -15 c 256
418 -227 m 257
 410 325 l 258
 409 363 409 380 420 421 c 257
 459 389 472 362 472 327 c 256
 472 274 439 246 373 246 c 257
 390 214 l 257
 470 220 521 269 521 327 c 256
 521 399 471 418 419 461 c 257
 403 454 l 257
 390 438 367 399 367 361 c 256
 367 92 357 -136 353 -227 c 257
 418 -227 l 257
EndSplineSet
Validated: 37
PickledDataWithLists: "(dp1
S'com.schriftgestaltung.Glyphs.lastChange'
p2
S'2018-07-27 16:12:40 +0000'
p3
s."
EndChar
StartChar: sinI
Encoding: 450 3465 297
GlifName: sinI_
Width: 668
VWidth: 0
Flags: W
LayerCount: 2
Fore
SplineSet
621 244 m 256
 621 403 507 491 366 490 c 256
 237 489 99 406 99 265 c 256
 99 171 155 68 288 68 c 256
 412 68 458 160 458 230 c 256
 458 300 409 332 360 333 c 256
 302 334 264 296 264 245 c 256
 264 207 286 175 343 174 c 256
 410 173 430 213 432 218 c 257
 434 245 l 257
 434 245 397 213 354 213 c 256
 321 213 296 230 296 246 c 256
 296 269 320 279 351 279 c 256
 385 279 428 259 428 217 c 256
 428 178 366 144 288 144 c 256
 205 144 130 197 130 273 c 256
 130 364 220 405 323 405 c 256
 488 405 585 316 585 218 c 256
 585 101 416 9 255 12 c 257
 254 -10 262 -38 271 -58 c 257
 488 -31 621 64 621 244 c 256
  PathStart: -2
307 -255 m 256
 461 -253 515 -173 515 -115 c 256
 515 -27 420 -32 355 -41 c 257
 268 -30 l 257
 271 -58 l 257
 349 -58 463 -83 463 -140 c 256
 463 -170 441 -191 365 -191 c 256
 311 -191 261 -174 233 -165 c 257
 228 -192 232 -228 242 -249 c 257
 265 -252 286 -255 307 -255 c 256
  PathStart: -2
EndSplineSet
Validated: 37
PickledDataWithLists: "(dp1
S'com.schriftgestaltung.Glyphs.lastChange'
p2
S'2018-07-27 16:12:40 +0000'
p3
sS'com.typemytype.robofont.layerData'
p4
(dp5
S'Regular Nov 5 16, 14:31'
p6
(dp7
S'name'
p8
S'sinI'
p9
sS'lib'
p10
(dp11
sS'unicodes'
p12
(lp13
sS'width'
p14
I867
sS'contours'
p15
(lp16
(dp17
S'points'
p18
(lp19
(dp20
S'segmentType'
p21
S'curve'
p22
sS'x'
F275.13299999999998
sS'smooth'
p23
I0
sS'y'
I-320
sa(dp24
S'y'
F-351.21199999999999
sS'x'
F493.49000000000001
sg23
I0
sa(dp25
S'y'
F-272.79500000000002
sS'x'
F638.40999999999997
sg23
I0
sa(dp26
g21
S'curve'
p27
sS'x'
F643.20399999999995
sg23
I1
sS'y'
I-166
sa(dp28
S'y'
F-44.881
sS'x'
F648.67200000000003
sg23
I0
sa(dp29
S'y'
I-28
sS'x'
F507.43700000000001
sg23
I0
sa(dp30
g21
S'curve'
p31
sS'x'
F507.43700000000001
sg23
I0
sS'y'
I-28
sa(dp32
g21
S'line'
p33
sS'x'
F368.43200000000002
sg23
I0
sS'y'
I-19
sa(dp34
g21
S'line'
p35
sS'x'
F363.55000000000001
sg23
I0
sS'y'
I-74
sa(dp36
S'y'
F-73.686000000000007
sS'x'
F491.87400000000002
sg23
I0
sa(dp37
S'y'
F-89.076999999999998
sS'x'
F543.52700000000004
sg23
I0
sa(dp38
g21
S'curve'
p39
sS'x'
F542.93799999999999
sg23
I1
sS'y'
I-152
sa(dp40
S'y'
F-215.458
sS'x'
F542.34400000000005
sg23
I0
sa(dp41
S'y'
F-280.77100000000002
sS'x'
F439.44299999999998
sg23
I0
sa(dp42
g21
S'curve'
p43
sS'x'
F263.32600000000002
sg23
I0
sS'y'
I-240
sa(dp44
S'y'
F-267.33800000000002
sS'x'
F252.43000000000001
sg23
I0
sa(dp45
S'y'
F-310.08999999999997
sS'x'
F267.87
sg23
I0
sasa(dp46
g18
(lp47
(dp48
g21
S'curve'
p49
sS'x'
F104.774
sg23
I1
sS'y'
I321
sa(dp50
S'y'
I162
sS'x'
I105
sg23
I0
sa(dp51
S'y'
F78.811999999999998
sS'x'
F202.184
sg23
I0
sa(dp52
g21
S'curve'
p53
sS'x'
F338.56299999999999
sg23
I1
sS'y'
I78
sa(dp54
S'y'
F77.060000000000002
sS'x'
F496.363
sg23
I0
sa(dp55
S'y'
F169.41300000000001
sS'x'
F575.31299999999999
sg23
I0
sa(dp56
g21
S'curve'
p57
sS'x'
F582.10199999999998
sg23
I1
sS'y'
I260
sa(dp58
S'y'
F349.07400000000001
sS'x'
F588.84000000000003
sg23
I0
sa(dp59
S'y'
F414.07999999999998
sS'x'
F531.98500000000001
sg23
I0
sa(dp60
g21
S'curve'
p61
sS'x'
F462.226
sg23
I1
sS'y'
I415
sa(dp62
S'y'
F416.03500000000003
sS'x'
F388.60500000000002
sg23
I0
sa(dp63
S'y'
F367.065
sS'x'
F335.71300000000002
sg23
I0
sa(dp64
g21
S'curve'
p65
sS'x'
F332.35500000000002
sg23
I1
sS'y'
I303
sa(dp66
S'y'
I243
sS'x'
F329.21100000000001
sg23
I0
sa(dp67
S'y'
F194.619
sS'x'
F366.59800000000001
sg23
I0
sa(dp68
g21
S'curve'
p69
sS'x'
F445.64299999999997
sg23
I1
sS'y'
I194
sa(dp70
S'y'
F193.31999999999999
sS'x'
F532.39400000000001
sg23
I0
sa(dp71
S'y'
I263
sS'x'
F559.25
sg23
I0
sa(dp72
g21
S'curve'
p73
sS'x'
F560.62599999999998
sg23
I0
sS'y'
I270
sa(dp74
g21
S'line'
p75
sS'x'
F549.779
sg23
I1
sS'y'
I292
sa(dp76
S'y'
I292
sS'x'
F549.779
sg23
I0
sa(dp77
S'y'
I239
sS'x'
F515.55600000000004
sg23
I0
sa(dp78
g21
S'curve'
p79
sS'x'
F460.00099999999998
sg23
I1
sS'y'
I239
sa(dp80
S'y'
I239
sS'x'
F415.79599999999999
sg23
I0
sa(dp81
S'y'
I261
sS'x'
F385.154
sg23
I0
sa(dp82
g21
S'curve'
p83
sS'x'
F387.041
sg23
I1
sS'y'
I297
sa(dp84
S'y'
F326.17700000000002
sS'x'
F388.56999999999999
sg23
I0
sa(dp85
S'y'
I349
sS'x'
F417.233
sg23
I0
sa(dp86
g21
S'curve'
p87
sS'x'
F455.767
sg23
I1
sS'y'
I349
sa(dp88
S'y'
I349
sS'x'
F501.46300000000002
sg23
I0
sa(dp89
S'y'
F309.43599999999998
sS'x'
F545.69200000000001
sg23
I0
sa(dp90
g21
S'curve'
p91
sS'x'
F542.68299999999999
sg23
I1
sS'y'
I252
sa(dp92
S'y'
F197.60400000000001
sS'x'
F539.83199999999999
sg23
I0
sa(dp93
S'y'
F157.34700000000001
sS'x'
F446.91899999999998
sg23
I0
sa(dp94
g21
S'curve'
p95
sS'x'
F335.27999999999997
sg23
I1
sS'y'
I168
sa(dp96
S'y'
F177.02199999999999
sS'x'
F240.73400000000001
sg23
I0
sa(dp97
S'y'
I226
sS'x'
I161
sg23
I0
sa(dp98
g21
S'curve'
p99
sS'x'
I159
sg23
I1
sS'y'
I339
sa(dp100
S'y'
I457
sS'x'
I156
sg23
I0
sa(dp101
S'y'
I529
sS'x'
I316
sg23
I0
sa(dp102
g21
S'curve'
p103
sS'x'
I487
sg23
I1
sS'y'
I522
sa(dp104
S'y'
I515
sS'x'
I662
sg23
I0
sa(dp105
S'y'
F388.63499999999999
sS'x'
F733.90700000000004
sg23
I0
sa(dp106
g21
S'curve'
p107
sS'x'
F728.73000000000002
sg23
I1
sS'y'
I262
sa(dp108
S'y'
F98.634
sS'x'
F722.053
sg23
I0
sa(dp109
S'y'
F-7.8079999999999998
sS'x'
F552.27599999999995
sg23
I0
sa(dp110
g21
S'curve'
p111
sS'x'
F331.166
sg23
I0
sS'y'
I-5
sa(dp112
S'y'
F-25.908999999999999
sS'x'
F326.06999999999999
sg23
I0
sa(dp113
S'y'
F-63.182000000000002
sS'x'
F334.11599999999999
sg23
I0
sa(dp114
g21
S'curve'
p115
sS'x'
F352.49700000000001
sg23
I0
sS'y'
I-75
sa(dp116
S'y'
F-66.198999999999998
sS'x'
F630.95600000000002
sg23
I0
sa(dp117
S'y'
I80
sS'x'
I806
sg23
I0
sa(dp118
g21
S'curve'
p119
sS'x'
F806.93200000000002
sg23
I1
sS'y'
I314
sa(dp120
S'y'
I522
sS'x'
I808
sg23
I0
sa(dp121
S'y'
I623
sS'x'
F643.64300000000003
sg23
I0
sa(dp122
g21
S'curve'
p123
sS'x'
F464.64999999999998
sg23
I1
sS'y'
I623
sa(dp124
S'y'
I623
sS'x'
F278.05799999999999
sg23
I0
sa(dp125
S'y'
I515
sS'x'
I105
sg23
I0
sasasS'components'
p126
(lp127
sS'anchors'
p128
(lp129
sss."
EndChar
StartChar: sinIi
Encoding: 451 3466 298
GlifName: sinI_i
Width: 528
VWidth: 0
Flags: W
LayerCount: 2
Fore
SplineSet
207 596 m 256
 210 621 189 641 164 641 c 256
 140 641 120 621 117 596 c 256
 114 571 136 551 161 551 c 256
 185 551 204 571 207 596 c 256
  PathStart: -2
492 491 m 256
 495 515 478 534 454 534 c 256
 430 534 409 515 406 491 c 256
 403 467 422 448 446 448 c 256
 470 448 489 467 492 491 c 256
  PathStart: -2
EndSplineSet
Refer: 545 3515 N 1 0 0 1 0 0 2
Validated: 37
PickledDataWithLists: "(dp1
S'com.schriftgestaltung.Glyphs.rightMetricsKey'
p2
S'sinRa'
p3
sS'com.schriftgestaltung.Glyphs.lastChange'
p4
S'2018-07-27 16:12:40 +0000'
p5
sS'com.schriftgestaltung.Glyphs.leftMetricsKey'
p6
S'sinRa'
p7
s."
EndChar
StartChar: sinU
Encoding: 784 3467 631
GlifName: sinU_
Width: 532
VWidth: 0
Flags: W
LayerCount: 2
Fore
SplineSet
497 -85 m 257
 497 -69 492 -51 483 -47 c 257
 453 -68 381 -87 310 -87 c 256
 190 -87 68 -37 68 72 c 256
 68 183 194 267 345 267 c 256
 367 267 413 264 438 260 c 257
 456 277 l 257
 471 378 412 484 301 484 c 256
 229 484 172 449 172 394 c 256
 172 364 196 351 219 351 c 256
 222 351 226 351 229 352 c 257
 240 401 260 447 320 447 c 256
 385 447 416 371 395 305 c 257
 416 339 l 257
 403 340 381 343 333 342 c 256
 169 333 27 209 27 69 c 256
 27 -81 115 -173 293 -173 c 256
 414 -173 472 -112 497 -85 c 257
  PathStart: -2
EndSplineSet
Validated: 37
PickledDataWithLists: "(dp1
S'com.schriftgestaltung.Glyphs.lastChange'
p2
S'2018-07-27 16:12:40 +0000'
p3
s."
EndChar
StartChar: sinVocalicR
Encoding: 798 3469 645
GlifName: sinV_ocalicR_
Width: 996
VWidth: 0
Flags: W
LayerCount: 2
Fore
SplineSet
642 162 m 256
 634 244 581 315 480 316 c 256
 436 316 425 306 394 295 c 257
 441 290 l 257
 431 302 427 312 424 347 c 256
 421 382 455 417 493 417 c 256
 533 417 573 390 572 348 c 256
 571 322 554 288 551 282 c 257
 574 295 634 318 630 373 c 256
 625 420 595 462 518 462 c 256
 417 462 373 374 382 252 c 257
 393 243 l 257
 425 255 457 263 488 263 c 256
 548 261 603 238 608 170 c 256
 612 114 562 59 490 59 c 256
 395 59 353 106 362 166 c 257
 356 165 350 162 345 161 c 257
 329 89 288 59 220 59 c 256
 146 59 95 88 89 141 c 256
 83 198 163 270 320 243 c 257
 330 254 l 257
 348 333 308 463 200 463 c 256
 139 463 103 428 102 389 c 256
 101 352 136 333 161 332 c 257
 166 370 189 410 229 409 c 256
 270 408 306 336 283 300 c 257
 205 299 l 258
 98 296 53 199 59 121 c 256
 64 55 102 -21 209 -20 c 256
 306 -19 346 57 357 95 c 257
 358 97 336 108 337 109 c 257
 323 47 377 -22 486 -22 c 256
 573 -22 651 52 642 162 c 256
  PathStart: -2
EndSplineSet
Refer: 409 3544 N 1 0 0 1 648 0 2
Validated: 37
PickledDataWithLists: "(dp1
S'com.schriftgestaltung.Glyphs.lastChange'
p2
S'2018-07-27 16:12:40 +0000'
p3
s."
EndChar
StartChar: sinVocalicl
Encoding: 799 3471 646
GlifName: sinV_ocalicl
Width: 883
VWidth: 0
Flags: W
LayerCount: 2
Fore
SplineSet
168 8 m 257
 149 40 120 92 120 182 c 256
 120 304 177 406 266 414 c 257
 307 461 l 257
 158 461 66 338 66 187 c 256
 66 88 109 25 136 -11 c 257
 148 -8 164 3 168 8 c 257
  PathStart: -2
704 203 m 256
 704 283 643 330 562 330 c 256
 523 330 496 323 474 312 c 257
 506 290 l 257
 498 301 492 326 492 345 c 256
 492 398 544 417 577 417 c 256
 614 417 647 395 647 358 c 256
 647 322 626 306 621 299 c 257
 634 285 l 257
 661 295 698 321 698 375 c 256
 698 419 658 463 594 463 c 256
 487 463 446 372 458 264 c 257
 468 256 l 257
 501 270 535 281 570 281 c 256
 624 281 671 259 671 203 c 256
 671 127 573 63 440 63 c 256
 283 63 201 116 201 179 c 256
 201 239 260 268 346 268 c 256
 365 268 386 266 408 263 c 257
 419 275 l 257
 423 292 425 312 425 332 c 256
 425 394 400 461 307 461 c 256
 246 461 208 427 208 390 c 256
 208 360 228 347 246 346 c 257
 253 377 291 411 334 411 c 256
 375 411 390 387 390 356 c 256
 390 323 370 303 360 294 c 257
 397 323 l 257
 385 325 373 326 362 326 c 256
 266 326 169 269 169 169 c 256
 169 78 240 -20 444 -20 c 256
 587 -20 704 70 704 203 c 256
  PathStart: -2
814 203 m 256
 814 354 737 463 595 463 c 257
 637 415 l 257
 704 407 762 320 762 198 c 256
 762 108 738 41 720 8 c 257
 725 2 742 -8 752 -10 c 257
 778 25 814 104 814 203 c 256
  PathStart: -2
EndSplineSet
Validated: 37
PickledDataWithLists: "(dp1
S'com.schriftgestaltung.Glyphs.lastChange'
p2
S'2018-07-27 16:12:40 +0000'
p3
s."
EndChar
StartChar: sinE
Encoding: 407 3473 254
GlifName: sinE_
Width: 680
VWidth: 0
Flags: W
LayerCount: 2
Fore
SplineSet
628 283 m 256
 628 488 459 630 298 630 c 257
 272 566 l 257
 416 566 588 465 588 298 c 256
 588 170 505 59 356 55 c 256
 246 52 155 78 155 135 c 256
 155 192 228 220 306 220 c 256
 326 220 347 219 367 216 c 257
 382 228 l 257
 383 235 384 246 384 256 c 256
 384 327 336 414 232 414 c 256
 187 414 146 389 146 346 c 256
 146 319 167 300 206 304 c 257
 206 313 223 357 271 357 c 256
 309 357 344 326 345 275 c 257
 232 272 114 225 114 122 c 256
 114 34 201 -34 347 -32 c 256
 522 -29 628 108 628 283 c 256
  PathStart: -2
307 263 m 257
 351 275 l 257
 263 275 107 271 43 259 c 257
 37 242 34 212 33 189 c 257
 43 181 l 257
 80 208 184 256 307 263 c 257
  PathStart: -2
551 476 m 257
 530 467 497 461 461 461 c 256
 410 461 357 474 327 513 c 256
 301 547 302 603 298 630 c 257
 267 614 l 257
 265 605 262 584 262 565 c 256
 262 537 268 508 281 482 c 256
 305 434 362 417 420 417 c 256
 477 417 535 434 559 455 c 257
 551 476 l 257
EndSplineSet
Validated: 37
PickledDataWithLists: "(dp1
S'com.schriftgestaltung.Glyphs.lastChange'
p2
S'2018-07-27 16:12:40 +0000'
p3
s."
EndChar
StartChar: sinO
Encoding: 673 3476 520
GlifName: sinO_
Width: 643
VWidth: 0
Flags: W
LayerCount: 2
Fore
SplineSet
155 366 m 257
 155 363 143 177 330 177 c 256
 428 177 477 239 477 322 c 256
 477 401 420 465 349 465 c 256
 275 465 247 415 247 368 c 256
 247 319 280 287 327 287 c 256
 376 287 414 321 414 377 c 256
 414 390 412 406 406 423 c 257
 392 426 l 257
 388 347 350 335 326 335 c 256
 307 335 286 343 286 365 c 256
 286 388 311 415 357 415 c 256
 407 415 444 386 444 337 c 256
 444 269 399 239 334 239 c 256
 200 239 177 351 188 388 c 257
 182 396 173 404 166 407 c 257
 104 395 38 326 38 199 c 256
 38 112 80 -14 203 -14 c 256
 281 -14 314 39 323 78 c 257
 323 79 313 78 314 79 c 257
 313 38 353 -15 434 -15 c 256
 554 -15 613 130 613 275 c 256
 613 449 513 614 303 614 c 256
 238 614 181 603 145 588 c 257
 138 564 134 539 136 511 c 257
 175 528 244 547 306 547 c 256
 456 547 570 461 570 291 c 256
 570 184 526 72 425 72 c 256
 373 72 332 102 332 149 c 256
 332 154 332 159 333 164 c 257
 313 159 l 257
 299 104 265 70 204 70 c 256
 113 70 75 138 75 213 c 256
 75 305 137 335 164 338 c 257
 155 366 l 257
EndSplineSet
Validated: 37
PickledDataWithLists: "(dp1
S'com.schriftgestaltung.Glyphs.lastChange'
p2
S'2018-07-27 16:12:40 +0000'
p3
s."
EndChar
StartChar: sinOo
Encoding: 674 3477 521
GlifName: sinO_o
Width: 630
VWidth: 0
Flags: W
LayerCount: 2
Fore
SplineSet
306 679 m 256
 213 680 159 642 159 642 c 257
 146 618 142 592 141 582 c 257
 163 597 173 601 200 611 c 257
 222 641 l 257
 208 631 164 594 144 527 c 257
 171 522 l 257
 189 571 242 624 276 629 c 257
 253 630 231 631 205 611 c 257
 205 611 219 621 281 621 c 256
 543 618 562 420 561 372 c 257
 598 310 l 257
 598 452 544 677 306 679 c 256
  PathStart: -2
425 72 m 256
 373 72 332 102 332 149 c 256
 332 154 332 159 333 164 c 257
 313 159 l 257
 299 104 265 73 196 73 c 256
 113 73 78 142 78 208 c 256
 78 305 137 335 164 338 c 257
 155 366 l 257
 155 363 143 177 330 177 c 256
 428 177 480 239 480 322 c 256
 480 401 418 465 346 465 c 256
 272 465 245 415 245 368 c 256
 245 319 278 287 325 287 c 256
 374 287 412 321 412 377 c 256
 412 390 410 406 404 423 c 257
 390 426 l 257
 386 347 348 335 324 335 c 256
 305 335 284 343 284 365 c 256
 284 388 309 415 355 415 c 256
 405 415 442 386 442 339 c 256
 442 269 399 239 334 239 c 256
 200 239 177 351 188 388 c 257
 182 397 173 405 166 407 c 257
 103 397 38 326 38 199 c 256
 38 112 80 -14 193 -14 c 256
 281 -14 304 39 323 78 c 257
 314 76 l 257
 314 33 353 -15 434 -15 c 256
 554 -15 613 130 613 275 c 256
 613 471 480 578 303 578 c 256
 231 578 182 561 147 537 c 257
 140 517 138 497 137 471 c 257
 139 471 203 521 303 521 c 256
 419 521 569 473 569 287 c 256
 569 180 526 72 425 72 c 256
  PathStart: -2
EndSplineSet
Validated: 37
PickledDataWithLists: "(dp1
S'com.schriftgestaltung.Glyphs.lastChange'
p2
S'2018-07-27 16:12:40 +0000'
p3
s."
EndChar
StartChar: sinKa
Encoding: 506 3482 353
GlifName: sinK_a
Width: 846
VWidth: 0
Flags: W
LayerCount: 2
Fore
SplineSet
309 62 m 257
 321 18 356 -6 401 -6 c 256
 492 -6 531 93 531 173 c 256
 531 255 486 319 402 319 c 256
 324 319 221 252 188 215 c 257
 219 239 l 257
 221 246 252 270 282 293 c 256
 346 342 430 378 528 378 c 256
 653 378 757 313 757 214 c 256
 757 152 708 70 606 70 c 256
 588 70 562 73 549 76 c 257
 536 71 l 257
 540 42 560 9 579 -6 c 257
 718 3 796 102 796 221 c 256
 796 383 678 456 561 456 c 256
 445 456 357 396 257 314 c 256
 133 212 30 106 21 96 c 257
 17 75 38 62 43 61 c 257
 48 74 56 87 71 103 c 256
 102 137 152 176 185 197 c 256
 237 230 309 252 370 252 c 256
 444 252 499 220 499 161 c 256
 499 104 457 68 419 68 c 256
 353 68 330 119 330 168 c 256
 330 173 330 178 331 183 c 257
 312 179 l 257
 298 116 262 69 203 69 c 256
 151 69 140 121 97 121 c 256
 90 121 83 120 74 117 c 257
 54 89 l 257
 59 94 65 96 72 96 c 256
 84 96 97 89 104 79 c 256
 129 42 156 -6 215 -6 c 256
 259 -6 294 21 309 62 c 257
  PathStart: -2
159 286 m 257
 149 299 141 310 141 336 c 256
 141 385 169 422 208 422 c 256
 240 422 255 396 255 363 c 256
 255 334 244 307 228 290 c 257
 251 298 l 257
 267 314 303 356 303 396 c 256
 303 435 266 450 224 450 c 256
 143 450 71 394 71 325 c 256
 71 294 85 278 119 278 c 256
 131 278 147 280 159 286 c 257
  PathStart: -2
EndSplineSet
Validated: 37
PickledDataWithLists: "(dp1
S'com.schriftgestaltung.Glyphs.lastChange'
p2
S'2018-07-27 16:12:40 +0000'
p3
sS'com.typemytype.robofont.layerData'
p4
(dp5
S'Regular Oct 26 16, 18:32'
p6
(dp7
S'name'
p8
S'sinKa'
p9
sS'lib'
p10
(dp11
sS'unicodes'
p12
(lp13
sS'width'
p14
I1056
sS'contours'
p15
(lp16
(dp17
S'points'
p18
(lp19
(dp20
S'segmentType'
p21
S'curve'
p22
sS'x'
I35
sS'smooth'
p23
I0
sS'y'
I125
sa(dp24
S'y'
I149
sS'x'
I59
sg23
I0
sa(dp25
S'y'
I250
sS'x'
I135
sg23
I0
sa(dp26
g21
S'curve'
p27
sS'x'
I322
sg23
I1
sS'y'
I408
sa(dp28
S'y'
I521
sS'x'
I455
sg23
I0
sa(dp29
S'y'
I582
sS'x'
I556
sg23
I0
sa(dp30
g21
S'curve'
p31
sS'x'
I706
sg23
I1
sS'y'
I582
sa(dp32
S'y'
I582
sS'x'
I862
sg23
I0
sa(dp33
S'y'
I494
sS'x'
I1022
sg23
I0
sa(dp34
g21
S'curve'
p35
sS'x'
I1022
sg23
I1
sS'y'
I291
sa(dp36
S'y'
I135
sS'x'
I1022
sg23
I0
sa(dp37
S'y'
I-8
sS'x'
I940
sg23
I0
sa(dp38
g21
S'curve'
p39
sS'x'
F765.00900000000001
sg23
I0
sS'y'
I-8
sa(dp40
S'y'
F10.555
sS'x'
F739.93399999999997
sg23
I0
sa(dp41
S'y'
I34
sS'x'
I729
sg23
I0
sa(dp42
g21
S'curve'
p43
sS'x'
I731
sg23
I0
sS'y'
I72
sa(dp44
g21
S'line'
p45
sS'x'
I747
sg23
I0
sS'y'
I79
sa(dp46
S'y'
I74
sS'x'
I766
sg23
I0
sa(dp47
S'y'
I68
sS'x'
I792
sg23
I0
sa(dp48
g21
S'curve'
p49
sS'x'
I821
sg23
I1
sS'y'
I69
sa(dp50
S'y'
I72
sS'x'
I919
sg23
I0
sa(dp51
S'y'
I175
sS'x'
I971
sg23
I0
sa(dp52
g21
S'curve'
p53
sS'x'
I971
sg23
I1
sS'y'
I278
sa(dp54
S'y'
I419
sS'x'
I971
sg23
I0
sa(dp55
S'y'
I515
sS'x'
I835
sg23
I0
sa(dp56
g21
S'curve'
p57
sS'x'
I678
sg23
I1
sS'y'
I515
sa(dp58
S'y'
I515
sS'x'
I549
sg23
I0
sa(dp59
S'y'
I441
sS'x'
I429
sg23
I0
sa(dp60
g21
S'curve'
p61
sS'x'
I354
sg23
I1
sS'y'
I380
sa(dp62
S'y'
I366
sS'x'
I337
sg23
I0
sa(dp63
S'y'
I303
sS'x'
I261
sg23
I0
sa(dp64
g21
S'curve'
p65
sS'x'
I285
sg23
I0
sS'y'
I310
sa(dp66
g21
S'line'
p67
sS'x'
I266
sg23
I0
sS'y'
I298
sa(dp68
S'y'
I348
sS'x'
I312
sg23
I0
sa(dp69
S'y'
I414
sS'x'
I407
sg23
I0
sa(dp70
g21
S'curve'
p71
sS'x'
I502
sg23
I1
sS'y'
I414
sa(dp72
S'y'
I414
sS'x'
I613
sg23
I0
sa(dp73
S'y'
I325
sS'x'
I683
sg23
I0
sa(dp74
g21
S'curve'
p75
sS'x'
I678
sg23
I1
sS'y'
I204
sa(dp76
S'y'
I110
sS'x'
I674
sg23
I0
sa(dp77
S'y'
I-8
sS'x'
I621
sg23
I0
sa(dp78
g21
S'curve'
p79
sS'x'
I509
sg23
I1
sS'y'
I-8
sa(dp80
S'y'
I-8
sS'x'
I451
sg23
I0
sa(dp81
S'y'
I23
sS'x'
I405
sg23
I0
sa(dp82
g21
S'curve'
p83
sS'x'
F388.62
sg23
I0
sS'y'
I80
sa(dp84
S'y'
I26
sS'x'
I369
sg23
I0
sa(dp85
S'y'
I-10
sS'x'
I322
sg23
I0
sa(dp86
g21
S'curve'
p87
sS'x'
F262.00900000000001
sg23
I1
sS'y'
I-8
sa(dp88
S'y'
I-6
sS'x'
I192
sg23
I0
sa(dp89
S'y'
I49
sS'x'
I178
sg23
I0
sa(dp90
g21
S'curve'
p91
sS'x'
I143
sg23
I1
sS'y'
I102
sa(dp92
S'y'
I122
sS'x'
I130
sg23
I0
sa(dp93
S'y'
I134
sS'x'
I97
sg23
I0
sa(dp94
g21
S'curve'
p95
sS'x'
I79
sg23
I0
sS'y'
I115
sa(dp96
g21
S'line'
p97
sS'x'
I104
sg23
I0
sS'y'
I152
sa(dp98
S'y'
I176
sS'x'
I186
sg23
I0
sa(dp99
S'y'
I70
sS'x'
I164
sg23
I0
sa(dp100
g21
S'curve'
p101
sS'x'
I272
sg23
I1
sS'y'
I70
sa(dp102
S'y'
I70
sS'x'
I335
sg23
I0
sa(dp103
S'y'
I150
sS'x'
I385
sg23
I0
sa(dp104
g21
S'curve'
p105
sS'x'
I383
sg23
I0
sS'y'
I232
sa(dp106
g21
S'line'
p107
sS'x'
I418
sg23
I0
sS'y'
I232
sa(dp108
S'y'
I116
sS'x'
I420
sg23
I0
sa(dp109
S'y'
I64
sS'x'
I447
sg23
I0
sa(dp110
g21
S'curve'
p111
sS'x'
I519
sg23
I1
sS'y'
I63
sa(dp112
S'y'
I62
sS'x'
I582
sg23
I0
sa(dp113
S'y'
I127
sS'x'
I625
sg23
I0
sa(dp114
g21
S'curve'
p115
sS'x'
I626
sg23
I1
sS'y'
I205
sa(dp116
S'y'
I288
sS'x'
I627
sg23
I0
sa(dp117
S'y'
I347
sS'x'
I563
sg23
I0
sa(dp118
g21
S'curve'
p119
sS'x'
I469
sg23
I1
sS'y'
I347
sa(dp120
S'y'
I347
sS'x'
I389
sg23
I0
sa(dp121
S'y'
I299
sS'x'
I296
sg23
I0
sa(dp122
g21
S'curve'
p123
sS'x'
I228
sg23
I1
sS'y'
I256
sa(dp124
S'y'
I225
sS'x'
I178
sg23
I0
sa(dp125
S'y'
I125
sS'x'
I72
sg23
I0
sa(dp126
g21
S'curve'
p127
sS'x'
I64
sg23
I0
sS'y'
I79
sa(dp128
S'y'
I81
sS'x'
I58
sg23
I0
sa(dp129
S'y'
I98
sS'x'
I31
sg23
I0
sasa(dp130
g18
(lp131
(dp132
g21
S'curve'
p133
sS'x'
I80
sg23
I1
sS'y'
I428
sa(dp134
S'y'
I517
sS'x'
I84
sg23
I0
sa(dp135
S'y'
I584
sS'x'
I158
sg23
I0
sa(dp136
g21
S'curve'
p137
sS'x'
I260
sg23
I1
sS'y'
I584
sa(dp138
S'y'
I584
sS'x'
I315
sg23
I0
sa(dp139
S'y'
I544
sS'x'
I364
sg23
I0
sa(dp140
g21
S'curve'
p141
sS'x'
I362
sg23
I1
sS'y'
I491
sa(dp142
S'y'
I440
sS'x'
I360
sg23
I0
sa(dp143
S'y'
I408
sS'x'
I335
sg23
I0
sa(dp144
g21
S'curve'
p145
sS'x'
F313.70999999999998
sg23
I0
sS'y'
I387
sa(dp146
g21
S'line'
p147
sS'x'
F287.13299999999998
sg23
I0
sS'y'
I376
sa(dp148
S'y'
I402
sS'x'
I305
sg23
I0
sa(dp149
S'y'
I417
sS'x'
I318
sg23
I0
sa(dp150
g21
S'curve'
p151
sS'x'
I320
sg23
I1
sS'y'
I454
sa(dp152
S'y'
I501
sS'x'
I322
sg23
I0
sa(dp153
S'y'
I538
sS'x'
I302
sg23
I0
sa(dp154
g21
S'curve'
p155
sS'x'
I256
sg23
I1
sS'y'
I538
sa(dp156
S'y'
I538
sS'x'
I212
sg23
I0
sa(dp157
S'y'
I505
sS'x'
I154
sg23
I0
sa(dp158
g21
S'curve'
p159
sS'x'
I151
sg23
I1
sS'y'
I442
sa(dp160
S'y'
I407
sS'x'
I149
sg23
I0
sa(dp161
S'y'
I389
sS'x'
I161
sg23
I0
sa(dp162
g21
S'curve'
p163
sS'x'
I175
sg23
I0
sS'y'
I372
sa(dp164
S'y'
I364
sS'x'
I159
sg23
I0
sa(dp165
S'y'
I361
sS'x'
I138
sg23
I0
sa(dp166
g21
S'curve'
p167
sS'x'
I122
sg23
I1
sS'y'
I361
sa(dp168
S'y'
I361
sS'x'
I98
sg23
I0
sa(dp169
S'y'
I385
sS'x'
I78
sg23
I0
sasasS'components'
p170
(lp171
sS'anchors'
p172
(lp173
sss."
EndChar
StartChar: sinKha
Encoding: 516 3483 363
GlifName: sinK_ha
Width: 653
VWidth: 0
Flags: W
LayerCount: 2
Fore
SplineSet
338 53 m 257
 352 36 381 -9 437 -9 c 256
 559 -9 617 99 617 250 c 256
 617 473 490 599 295 599 c 256
 230 599 184 585 153 569 c 257
 145 554 142 530 142 516 c 256
 142 505 144 496 145 493 c 257
 147 494 207 528 295 528 c 256
 425 528 571 476 571 279 c 256
 571 173 528 65 430 65 c 256
 413 65 369 72 360 76 c 257
 338 53 l 257
423 217 m 256
 424 308 365 385 260 385 c 256
 142 385 54 291 54 158 c 256
 54 78 88 -14 184 -14 c 256
 251 -14 287 31 287 88 c 256
 287 142 251 173 209 173 c 256
 160 173 133 137 133 98 c 256
 133 74 142 56 152 40 c 257
 187 22 l 257
 172 38 169 49 169 63 c 256
 169 109 199 119 218 119 c 256
 237 119 257 107 257 84 c 256
 257 51 219 38 192 38 c 256
 153 38 91 78 91 177 c 256
 91 267 160 314 244 314 c 256
 303 314 375 289 377 205 c 256
 379 138 326 43 282 -14 c 257
 291 -29 313 -43 324 -44 c 257
 351 -9 422 127 423 217 c 256
  PathStart: -2
EndSplineSet
Validated: 37
PickledDataWithLists: "(dp1
S'com.schriftgestaltung.Glyphs.lastChange'
p2
S'2018-07-27 16:12:40 +0000'
p3
s."
EndChar
StartChar: sinGa
Encoding: 429 3484 276
GlifName: sinG_a
Width: 757
VWidth: 0
Flags: W
LayerCount: 2
Fore
SplineSet
713 248 m 256
 713 371 628 454 519 454 c 256
 378 454 293 333 288 170 c 257
 293 169 297 169 302 169 c 256
 309 169 316 169 324 170 c 257
 322 177 321 190 321 197 c 256
 321 305 382 366 498 366 c 256
 576 366 670 323 671 226 c 256
 671 132 612 76 513 76 c 256
 497 76 475 78 458 82 c 257
 448 76 l 257
 448 59 468 11 487 -6 c 257
 638 -3 713 117 713 248 c 256
  PathStart: -2
439 173 m 256
 439 247 388 302 323 301 c 257
 319 249 l 257
 349 248 405 230 405 180 c 256
 405 113 320 80 252 80 c 256
 155 80 80 130 80 215 c 256
 80 297 142 356 251 356 c 257
 256 363 261 408 261 432 c 256
 261 438 261 444 260 447 c 257
 154 446 44 357 44 194 c 256
 44 71 124 -9 248 -9 c 256
 372 -9 439 79 439 173 c 256
  PathStart: -2
EndSplineSet
Validated: 37
PickledDataWithLists: "(dp1
S'com.schriftgestaltung.Glyphs.lastChange'
p2
S'2018-07-27 16:12:40 +0000'
p3
s."
EndChar
StartChar: sinGha
Encoding: 439 3485 286
GlifName: sinG_ha
Width: 697
VWidth: 0
Flags: W
LayerCount: 2
Fore
SplineSet
653 158 m 256
 653 253 585 316 485 316 c 256
 446 316 432 306 401 295 c 257
 456 282 l 257
 449 290 436 312 436 335 c 256
 436 390 467 417 509 417 c 256
 547 417 584 392 584 350 c 256
 584 322 561 288 557 282 c 257
 575 276 l 257
 604 290 640 325 640 368 c 256
 640 419 605 462 533 462 c 256
 432 462 376 374 378 252 c 257
 389 243 l 257
 421 255 461 263 493 263 c 256
 549 263 617 238 617 171 c 256
 617 100 566 59 486 59 c 256
 424 59 411 84 411 112 c 256
 411 128 414 144 417 158 c 257
 403 164 386 167 368 167 c 256
 343 167 319 162 302 151 c 257
 303 105 272 59 216 59 c 256
 139 59 107 89 107 134 c 256
 107 190 153 249 261 249 c 256
 280 249 300 247 323 243 c 257
 335 254 l 257
 340 272 343 292 343 313 c 256
 343 385 308 463 219 463 c 256
 156 463 109 424 109 382 c 256
 109 350 140 333 164 332 c 257
 172 370 196 409 239 409 c 256
 276 409 300 386 300 346 c 256
 300 323 290 310 283 300 c 257
 213 299 l 257
 210 298 212 302 210 301 c 257
 137 274 72 206 72 122 c 256
 72 33 116 -20 199 -20 c 256
 323 -20 329 98 330 107 c 257
 332 108 342 112 358 112 c 256
 361 112 374 111 377 108 c 257
 374 94 373 72 373 69 c 256
 373 31 404 -22 489 -22 c 256
 591 -22 653 47 653 158 c 256
  PathStart: -2
274 283 m 258
 303 283 l 257
 316 305 l 257
 290 305 l 258
 204 305 78 302 22 292 c 257
 7 226 l 257
 16 219 l 257
 55 243 152 283 274 283 c 258
  PathStart: -2
EndSplineSet
Validated: 37
PickledDataWithLists: "(dp1
S'com.schriftgestaltung.Glyphs.lastChange'
p2
S'2018-07-27 16:12:40 +0000'
p3
s."
EndChar
StartChar: sinNga
Encoding: 640 3486 487
GlifName: sinN_ga
Width: 610
VWidth: 0
Flags: W
LayerCount: 2
Fore
SplineSet
263 216 m 257
 313 239 l 257
 277 264 239 273 201 272 c 256
 111 269 38 214 38 118 c 256
 38 42 95 -15 170 -15 c 256
 264 -15 306 49 309 93 c 257
 311 95 304 90 305 92 c 257
 304 86 304 80 304 75 c 256
 304 30 339 -19 418 -19 c 256
 547 -19 570 127 570 245 c 256
 570 444 460 601 249 601 c 256
 200 601 134 590 94 571 c 257
 87 555 84 519 85 501 c 257
 93 505 162 533 239 533 c 256
 387 533 525 458 525 265 c 256
 525 182 511 63 414 63 c 256
 363 63 324 96 324 146 c 256
 324 155 325 160 326 167 c 257
 306 162 l 257
 290 105 254 64 189 64 c 256
 122 64 81 83 81 135 c 256
 81 184 137 217 205 217 c 256
 245 217 293 206 314 197 c 257
 320 199 323 202 329 208 c 257
 337 232 343 269 343 295 c 256
 343 416 265 462 203 462 c 256
 129 462 93 412 93 368 c 256
 93 329 116 287 173 287 c 256
 212 287 250 321 250 377 c 256
 250 390 248 406 242 423 c 257
 228 426 l 257
 224 347 186 335 162 335 c 256
 143 335 122 343 122 367 c 256
 122 392 148 411 201 411 c 256
 244 411 310 382 310 308 c 257
 311 268 283 235 263 216 c 257
  PathStart: -2
EndSplineSet
Validated: 37
PickledDataWithLists: "(dp1
S'com.schriftgestaltung.Glyphs.lastChange'
p2
S'2018-07-27 16:12:40 +0000'
p3
s."
EndChar
StartChar: sinNnga
Encoding: 658 3487 505
GlifName: sinN_nga
Width: 819
VWidth: 0
Flags: W
LayerCount: 2
Fore
SplineSet
130 9 m 257
 115 36 85 109 85 194 c 256
 85 309 146 406 249 406 c 257
 354 447 l 257
 341 450 333 452 297 453 c 256
 161 457 30 370 30 206 c 256
 30 119 70 33 96 2 c 257
 115 2 126 6 130 9 c 257
  PathStart: -2
EndSplineSet
Refer: 276 3484 N 1 0 0 1 90 0 2
Validated: 37
PickledDataWithLists: "(dp1
S'com.schriftgestaltung.Glyphs.rightMetricsKey'
p2
S'sinGa'
p3
sS'com.schriftgestaltung.Glyphs.lastChange'
p4
S'2018-07-27 16:12:40 +0000'
p5
s."
EndChar
StartChar: sinCa
Encoding: 337 3488 184
GlifName: sinC_a
Width: 675
VWidth: 0
Flags: W
LayerCount: 2
Fore
SplineSet
627 303 m 256
 627 501 495 611 339 611 c 256
 297 611 235 600 199 582 c 257
 191 565 190 539 190 531 c 256
 190 523 191 515 192 512 c 257
 195 512 254 539 332 539 c 256
 440 539 585 482 585 304 c 256
 585 188 513 75 338 75 c 256
 251 75 152 101 152 161 c 256
 152 211 223 236 296 236 c 256
 316 236 336 234 356 231 c 257
 372 243 l 257
 374 255 376 267 376 281 c 256
 376 350 329 430 236 430 c 256
 177 430 142 397 142 360 c 256
 142 335 159 319 189 319 c 256
 193 319 196 319 200 320 c 257
 201 328 220 372 268 372 c 256
 306 372 340 346 338 295 c 257
 332 293 321 293 315 293 c 256
 301 293 115 260 115 136 c 256
 115 43 220 -13 340 -13 c 256
 539 -13 627 141 627 303 c 256
  PathStart: -2
333 284 m 257
 339 296 l 257
 252 296 110 289 49 277 c 257
 42 263 36 234 36 212 c 257
 46 204 l 257
 88 229 195 277 333 284 c 257
  PathStart: -2
EndSplineSet
Validated: 37
PickledDataWithLists: "(dp1
S'com.schriftgestaltung.Glyphs.lastChange'
p2
S'2018-07-27 16:12:40 +0000'
p3
sS'com.typemytype.robofont.layerData'
p4
(dp5
S'Jan 19 17, 02:22'
p6
(dp7
S'name'
p8
S'sinCa'
p9
sS'lib'
p10
(dp11
sS'unicodes'
p12
(lp13
sS'width'
p14
I877
sS'contours'
p15
(lp16
(dp17
S'points'
p18
(lp19
(dp20
S'segmentType'
p21
S'curve'
p22
sS'x'
F122.75700000000001
sS'smooth'
p23
I1
sS'y'
I178
sa(dp24
S'y'
F326.80099999999999
sS'x'
F130.66999999999999
sg23
I0
sa(dp25
S'y'
F351.43700000000001
sS'x'
F299.58999999999997
sg23
I0
sa(dp26
g21
S'curve'
p27
sS'x'
F408.553
sg23
I1
sS'y'
I381
sa(dp28
S'y'
I381
sS'x'
F417.23000000000002
sg23
I0
sa(dp29
S'y'
I381
sS'x'
F430.553
sg23
I0
sa(dp30
g21
S'curve'
p31
sS'x'
F438.5
sg23
I0
sS'y'
I383
sa(dp32
S'y'
I449
sS'x'
F440.959
sg23
I0
sa(dp33
S'y'
I483
sS'x'
F396.74099999999999
sg23
I0
sa(dp34
g21
S'curve'
p35
sS'x'
F347.74099999999999
sg23
I1
sS'y'
I483
sa(dp36
S'y'
I483
sS'x'
F285.74099999999999
sg23
I0
sa(dp37
S'y'
I426
sS'x'
F260.75400000000002
sg23
I0
sa(dp38
g21
S'curve'
p39
sS'x'
F260.17700000000002
sg23
I0
sS'y'
I415
sa(dp40
S'y'
I414
sS'x'
I255
sg23
I0
sa(dp41
S'y'
I414
sS'x'
I250
sg23
I0
sa(dp42
g21
S'curve'
p43
sS'x'
I245
sg23
I1
sS'y'
I414
sa(dp44
S'y'
I414
sS'x'
I206
sg23
I0
sa(dp45
S'y'
I436
sS'x'
I184
sg23
I0
sa(dp46
g21
S'curve'
p47
sS'x'
I184
sg23
I1
sS'y'
I466
sa(dp48
S'y'
I524
sS'x'
I184
sg23
I0
sa(dp49
S'y'
I558
sS'x'
I242
sg23
I0
sa(dp50
g21
S'curve'
p51
sS'x'
F300.67099999999999
sg23
I1
sS'y'
I558
sa(dp52
S'y'
I558
sS'x'
I431
sg23
I0
sa(dp53
S'y'
I454
sS'x'
I488
sg23
I0
sa(dp54
g21
S'curve'
p55
sS'x'
I488
sg23
I1
sS'y'
I364
sa(dp56
S'y'
I347
sS'x'
I488
sg23
I0
sa(dp57
S'y'
I331
sS'x'
I486
sg23
I0
sa(dp58
g21
S'curve'
p59
sS'x'
F482.988
sg23
I0
sS'y'
I316
sa(dp60
g21
S'line'
p61
sS'x'
F462.14999999999998
sg23
I0
sS'y'
I300
sa(dp62
S'y'
I304
sS'x'
F437.35899999999998
sg23
I0
sa(dp63
S'y'
I306
sS'x'
F410.46499999999997
sg23
I0
sa(dp64
g21
S'curve'
p65
sS'x'
F384.46499999999997
sg23
I1
sS'y'
I306
sa(dp66
S'y'
I306
sS'x'
I275
sg23
I0
sa(dp67
S'y'
I274
sS'x'
I172
sg23
I0
sa(dp68
g21
S'curve'
p69
sS'x'
I172
sg23
I1
sS'y'
I198
sa(dp70
S'y'
I138
sS'x'
I172
sg23
I0
sa(dp71
S'y'
I96
sS'x'
I286
sg23
I0
sa(dp72
g21
S'curve'
p73
sS'x'
I427
sg23
I1
sS'y'
I96
sa(dp74
S'y'
I96
sS'x'
I644
sg23
I0
sa(dp75
S'y'
I216
sS'x'
I759
sg23
I0
sa(dp76
g21
S'curve'
p77
sS'x'
F770.59699999999998
sg23
I1
sS'y'
I423
sa(dp78
S'y'
I605
sS'x'
I781
sg23
I0
sa(dp79
S'y'
I715
sS'x'
F646.55200000000002
sg23
I0
sa(dp80
g21
S'curve'
p81
sS'x'
F464.899
sg23
I1
sS'y'
I715
sa(dp82
S'y'
I715
sS'x'
F327.99400000000003
sg23
I0
sa(dp83
S'y'
I655
sS'x'
F233.94499999999999
sg23
I0
sa(dp84
g21
S'curve'
p85
sS'x'
F231.755
sg23
I0
sS'y'
I655
sa(dp86
S'y'
I658
sS'x'
I231
sg23
I0
sa(dp87
S'y'
I662
sS'x'
I230
sg23
I0
sa(dp88
g21
S'curve'
p89
sS'x'
I230
sg23
I1
sS'y'
I667
sa(dp90
S'y'
I692
sS'x'
I230
sg23
I0
sa(dp91
S'y'
I738
sS'x'
I243
sg23
I0
sa(dp92
g21
S'curve'
p93
sS'x'
F252.048
sg23
I0
sS'y'
I756
sa(dp94
S'y'
F777.80799999999999
sS'x'
F297.86900000000003
sg23
I0
sa(dp95
S'y'
I798
sS'x'
F370.62
sg23
I0
sa(dp96
g21
S'curve'
p97
sS'x'
F467.24900000000002
sg23
I1
sS'y'
I798
sa(dp98
S'y'
I798
sS'x'
I686
sg23
I0
sa(dp99
S'y'
I651
sS'x'
I827
sg23
I0
sa(dp100
g21
S'curve'
p101
sS'x'
I827
sg23
I1
sS'y'
I424
sa(dp102
S'y'
I169
sS'x'
I827
sg23
I0
sa(dp103
S'y'
I-17
sS'x'
I688
sg23
I0
sa(dp104
g21
S'curve'
p105
sS'x'
I442
sg23
I1
sS'y'
I-17
sa(dp106
S'y'
I-17
sS'x'
I260
sg23
I0
sa(dp107
S'y'
I54
sS'x'
F116.258
sg23
I0
sasa(dp108
g18
(lp109
(dp110
g21
S'line'
p111
sS'x'
F34.311999999999998
sg23
I0
sS'y'
I275
sa(dp112
g21
S'line'
p113
sS'x'
F49.767000000000003
sg23
I0
sS'y'
I360
sa(dp114
S'y'
F374.60899999999998
sS'x'
F130.35900000000001
sg23
I0
sa(dp115
S'y'
F385.04300000000001
sS'x'
F327.42899999999997
sg23
I0
sa(dp116
g21
S'curve'
p117
sS'x'
F439.97199999999998
sg23
I0
sS'y'
I384
sa(dp118
g21
S'line'
p119
sS'x'
F433.18599999999998
sg23
I0
sS'y'
I369
sa(dp120
S'y'
F359.91300000000001
sS'x'
F252.505
sg23
I0
sa(dp121
S'y'
F298.31999999999999
sS'x'
F100.774
sg23
I0
sa(dp122
g21
S'curve'
p123
sS'x'
F46.786999999999999
sg23
I0
sS'y'
I265
sasasS'components'
p124
(lp125
sS'anchors'
p126
(lp127
(dp128
S'y'
I393
sS'x'
I822
sg8
S'rakaransaya'
p129
sasss."
EndChar
StartChar: sinCha
Encoding: 343 3489 190
GlifName: sinC_ha
Width: 605
VWidth: 0
Flags: W
LayerCount: 2
Fore
SplineSet
581 193 m 256
 581 275 524 321 433 321 c 256
 408 321 383 316 361 305 c 257
 367 270 l 257
 369 301 l 257
 369 346 383 399 454 399 c 256
 491 399 532 372 532 317 c 256
 532 266 501 201 441 201 c 256
 358 201 369 287 369 317 c 256
 369 424 406 477 464 542 c 256
 506 591 596 640 596 640 c 257
 593 665 572 688 563 692 c 257
 419 605 325 476 325 295 c 256
 325 176 387 156 430 156 c 256
 521 156 569 256 569 341 c 256
 569 402 528 454 472 454 c 256
 380 454 318 341 330 256 c 257
 345 248 l 257
 377 259 412 272 447 272 c 256
 501 272 545 251 545 199 c 256
 545 127 450 63 316 63 c 256
 160 63 78 116 78 179 c 256
 78 231 137 260 223 260 c 256
 242 260 263 259 285 256 c 257
 296 267 l 257
 300 284 302 304 302 324 c 256
 302 387 277 454 184 454 c 256
 123 454 85 420 85 382 c 256
 85 345 112 332 138 330 c 257
 146 361 176 403 218 403 c 256
 252 403 267 379 267 348 c 256
 267 315 246 295 236 286 c 257
 273 316 l 257
 262 317 250 318 239 318 c 256
 143 318 46 261 46 169 c 256
 46 78 117 -20 321 -20 c 256
 464 -20 581 70 581 193 c 256
  PathStart: -2
EndSplineSet
Validated: 37
PickledDataWithLists: "(dp1
S'com.schriftgestaltung.Glyphs.lastChange'
p2
S'2018-07-27 16:12:40 +0000'
p3
s."
EndChar
StartChar: sinJa
Encoding: 461 3490 308
GlifName: sinJ_a
Width: 642
VWidth: 0
Flags: W
LayerCount: 2
Fore
SplineSet
514 437 m 256
 574 561 672 655 672 655 c 257
 672 676 644 702 630 706 c 257
 630 706 545 614 483 473 c 256
 448 393 440 303 440 303 c 257
 472 284 l 257
 472 284 475 360 514 437 c 256
  PathStart: -2
EndSplineSet
Refer: 531 3508 N 1 0 0 1 0 0 2
Validated: 5
PickledDataWithLists: "(dp1
S'com.schriftgestaltung.Glyphs.lastChange'
p2
S'2018-07-27 16:12:40 +0000'
p3
s."
EndChar
StartChar: sinJha
Encoding: 471 3491 318
GlifName: sinJ_ha
Width: 1159
VWidth: 0
Flags: W
LayerCount: 2
Fore
SplineSet
1046 256 m 257
 1046 441 938 581 742 581 c 256
 670 581 608 561 573 540 c 257
 557 522 543 496 543 480 c 256
 543 472 544 467 545 464 c 257
 547 464 625 517 729 517 c 256
 895 517 1000 450 999 272 c 256
 998 193 952 81 862 79 c 256
 812 79 767 112 775 176 c 257
 755 171 l 257
 738 111 703 79 634 81 c 256
 564 83 530 138 533 190 c 256
 538 285 710 320 768 310 c 257
 766 338 765 358 753 382 c 257
 655 387 494 313 490 159 c 256
 489 75 527 -15 634 -15 c 256
 724 -15 759 56 763 102 c 257
 765 102 745 106 747 108 c 257
 738 59 767 -18 862 -18 c 256
 977 -18 1047 122 1046 256 c 257
  PathStart: -2
150 286 m 257
 139 300 130 313 132 340 c 256
 134 389 163 422 197 422 c 256
 233 422 248 393 246 360 c 257
 246 329 234 306 219 290 c 257
 242 298 l 257
 258 314 293 354 294 393 c 256
 296 434 258 450 216 450 c 256
 137 450 65 398 62 330 c 256
 60 296 75 278 109 278 c 256
 122 278 138 280 150 286 c 257
  PathStart: -2
300 62 m 257
 312 18 347 -6 392 -6 c 256
 478 -6 519 85 522 157 c 256
 526 250 480 319 400 319 c 256
 313 319 214 253 179 215 c 257
 210 239 l 257
 213 248 259 282 273 293 c 256
 330 340 438 380 530 380 c 256
 649 380 715 353 749 338 c 257
 753 382 l 257
 714 413 643 436 555 436 c 256
 461 436 350 401 248 314 c 256
 104 193 30 115 12 96 c 257
 8 75 29 62 34 61 c 257
 40 96 137 173 176 197 c 256
 228 230 300 252 361 252 c 256
 434 252 490 222 490 158 c 256
 489 105 440 79 392 79 c 256
 344 79 316 125 322 183 c 257
 303 179 l 257
 289 116 243 77 194 77 c 256
 134 77 128 136 65 117 c 257
 45 89 l 257
 59 103 85 94 95 79 c 256
 122 38 148 -5 202 -6 c 256
 248 -8 284 20 300 62 c 257
  PathStart: -2
EndSplineSet
Validated: 37
PickledDataWithLists: "(dp1
S'com.schriftgestaltung.Glyphs.lastChange'
p2
S'2018-07-27 16:12:40 +0000'
p3
s."
EndChar
StartChar: sinNya
Encoding: 672 3492 519
GlifName: sinN_ya
Width: 974
VWidth: 0
Flags: W
LayerCount: 2
Fore
SplineSet
409 62 m 257
 421 18 456 -6 501 -6 c 256
 587 -6 628 85 631 157 c 256
 635 250 589 319 509 319 c 256
 422 319 323 253 288 215 c 257
 319 239 l 257
 322 248 368 282 382 293 c 257
 432 328 619 430 678 363 c 257
 697 380 785 435 812 457 c 257
 601 490 452 389 357 314 c 256
 213 193 139 115 121 96 c 257
 117 75 138 62 143 61 c 257
 149 96 246 173 285 197 c 256
 337 230 409 252 470 252 c 256
 543 252 599 222 599 158 c 256
 598 105 549 79 501 79 c 256
 453 79 425 125 431 183 c 257
 412 179 l 257
 398 116 352 77 303 77 c 256
 243 77 237 136 174 117 c 257
 154 89 l 257
 168 103 194 94 204 79 c 256
 231 38 257 -5 311 -6 c 256
 357 -8 393 20 409 62 c 257
  PathStart: -2
107 4 m 257
 79 36 70 120 78 188 c 256
 94 315 171 399 265 407 c 257
 273 419 l 257
 368 437 l 257
 365 443 l 257
 352 448 338 450 315 450 c 256
 181 450 35 353 21 186 c 256
 15 111 40 32 74 -3 c 257
 92 -3 103 1 107 4 c 257
  PathStart: -2
259 286 m 257
 248 300 239 313 241 340 c 256
 243 389 272 422 306 422 c 256
 342 422 357 393 355 360 c 257
 355 329 343 306 328 290 c 257
 351 298 l 257
 367 314 402 354 403 393 c 256
 405 434 359 450 325 450 c 256
 246 450 174 398 171 330 c 256
 169 296 184 278 218 278 c 256
 231 278 247 280 259 286 c 257
  PathStart: -2
933 -138 m 257
 801 -176 770 -131 772 -93 c 256
 776 -28 864 7 899 20 c 257
 895 22 892 33 888 35 c 257
 881 36 874 29 866 30 c 257
 814 8 717 -37 710 -122 c 256
 707 -177 738 -245 873 -231 c 257
 896 -219 931 -179 933 -138 c 257
  PathStart: -2
941 38 m 257
 948 55 954 83 954 112 c 257
 946 122 l 257
 899 88 843 67 780 68 c 256
 685 69 646 102 645 151 c 256
 644 204 690 259 827 259 c 256
 848 259 897 256 923 253 c 257
 938 266 l 257
 942 355 885 470 763 460 c 256
 696 454 649 418 651 367 c 256
 653 331 688 318 737 329 c 257
 725 383 765 411 805 411 c 256
 855 411 874 365 878 315 c 257
 864 317 851 320 817 319 c 256
 677 316 625 244 599 151 c 257
 620 62 670 -5 786 -5 c 256
 859 -5 908 23 941 38 c 257
  PathStart: -2
EndSplineSet
Validated: 37
PickledDataWithLists: "(dp1
S'com.schriftgestaltung.Glyphs.lastChange'
p2
S'2018-07-27 16:12:40 +0000'
p3
s."
EndChar
StartChar: sinJnya
Encoding: 485 3493 332
GlifName: sinJ_nya
Width: 908
VWidth: 0
Flags: W
LayerCount: 2
Fore
SplineSet
525 165 m 256
 531 234 488 290 420 289 c 257
 409 249 l 257
 437 248 493 219 485 164 c 256
 477 101 384 78 315 79 c 256
 216 79 160 142 172 218 c 256
 190 332 281 363 373 363 c 257
 378 372 389 430 385 447 c 257
 293 446 148 352 131 195 c 256
 119 75 177 -12 324 -9 c 256
 438 -7 517 77 525 165 c 256
  PathStart: -2
117 4 m 257
 89 36 80 120 88 188 c 256
 104 315 186 399 280 407 c 257
 283 411 l 257
 385 447 l 257
 382 453 l 257
 369 456 351 457 327 457 c 256
 193 457 46 353 31 186 c 256
 25 111 50 32 83 -3 c 257
 102 -3 113 1 117 4 c 257
  PathStart: -2
834 -146 m 257
 797 -157 769 -161 746 -160 c 256
 687 -157 672 -125 673 -93 c 256
 675 -28 765 7 800 20 c 257
 796 22 793 33 789 35 c 257
 782 36 775 29 767 30 c 257
 716 8 618 -37 612 -122 c 256
 608 -177 657 -240 792 -226 c 257
 815 -215 832 -176 834 -146 c 257
  PathStart: -2
409 170 m 257
 408 290 487 394 641 394 c 257
 652 437 679 456 689 483 c 257
 518 481 387 332 373 170 c 257
 384 168 396 169 409 170 c 257
  PathStart: -2
842 38 m 257
 850 55 855 83 855 112 c 257
 847 122 l 257
 800 88 744 67 681 68 c 256
 586 70 539 102 538 151 c 256
 537 216 606 283 743 283 c 256
 765 283 814 280 840 276 c 257
 854 290 l 257
 859 378 802 492 679 483 c 256
 612 478 565 441 568 390 c 256
 570 354 605 341 654 352 c 257
 642 407 682 434 722 434 c 256
 772 434 791 388 795 338 c 257
 781 340 767 343 734 342 c 256
 594 338 504 257 500 151 c 256
 497 62 571 -5 687 -5 c 256
 760 -5 809 23 842 38 c 257
  PathStart: -2
EndSplineSet
Validated: 37
PickledDataWithLists: "(dp1
S'com.schriftgestaltung.Glyphs.rightMetricsKey'
p2
S'sinDa'
p3
sS'com.schriftgestaltung.Glyphs.lastChange'
p4
S'2018-07-27 16:12:40 +0000'
p5
sS'com.schriftgestaltung.Glyphs.leftMetricsKey'
p6
S'sinNnga'
p7
s."
EndChar
StartChar: sinNdja
Encoding: 636 3494 483
GlifName: sinN_dja
Width: 751
VWidth: 0
Flags: W
LayerCount: 2
Fore
SplineSet
127 9 m 257
 112 36 85 109 85 184 c 256
 85 309 158 416 260 406 c 257
 304 459 l 257
 148 473 30 370 30 206 c 256
 30 119 67 33 93 2 c 257
 112 2 123 6 127 9 c 257
  PathStart: -2
EndSplineSet
Refer: 308 3490 N 1 0 0 1 109 0 2
Validated: 37
PickledDataWithLists: "(dp1
S'com.schriftgestaltung.Glyphs.rightMetricsKey'
p2
S'sinJa'
p3
sS'com.schriftgestaltung.Glyphs.lastChange'
p4
S'2018-07-27 16:12:40 +0000'
p5
sS'com.schriftgestaltung.Glyphs.leftMetricsKey'
p6
S'sinNda'
p7
s."
EndChar
StartChar: sinTta
Encoding: 777 3495 624
GlifName: sinT_ta
Width: 611
VWidth: 0
Flags: W
LayerCount: 2
Fore
SplineSet
561 292 m 256
 561 490 446 605 259 605 c 256
 205 605 147 589 120 577 c 257
 112 559 108 532 110 503 c 257
 110 501 175 534 268 534 c 256
 411 534 516 464 516 309 c 256
 516 164 424 66 266 66 c 256
 169 66 86 110 86 183 c 256
 86 254 163 283 241 283 c 256
 261 283 282 281 301 277 c 257
 310 291 l 257
 308 312 299 334 285 355 c 257
 278 356 271 356 264 356 c 256
 183 356 44 312 44 164 c 256
 44 61 131 -27 267 -27 c 256
 453 -27 561 107 561 292 c 256
  PathStart: -2
EndSplineSet
Validated: 41
PickledDataWithLists: "(dp1
S'com.schriftgestaltung.Glyphs.lastChange'
p2
S'2018-07-27 16:12:40 +0000'
p3
sS'com.typemytype.robofont.layerData'
p4
(dp5
S'Jan 26 17, 16:33'
p6
(dp7
S'name'
p8
S'sinTta'
p9
sS'lib'
p10
(dp11
sS'unicodes'
p12
(lp13
sS'width'
p14
I760
sS'contours'
p15
(lp16
(dp17
S'points'
p18
(lp19
(dp20
S'y'
I-48
sS'x'
I570
sS'smooth'
p21
I0
sa(dp22
S'y'
I116
sS'x'
I708
sg21
I0
sa(dp23
S'segmentType'
p24
S'curve'
p25
sS'x'
I716
sg21
I1
sS'y'
I344
sa(dp26
S'y'
I599
sS'x'
I725
sg21
I0
sa(dp27
S'y'
I746
sS'x'
I570
sg21
I0
sa(dp28
g24
S'curve'
p29
sS'x'
I368
sg21
I1
sS'y'
I746
sa(dp30
S'y'
I746
sS'x'
I276
sg21
I0
sa(dp31
S'y'
I724
sS'x'
I217
sg21
I0
sa(dp32
g24
S'curve'
p33
sS'x'
I174
sg21
I0
sS'y'
I696
sa(dp34
S'y'
I667
sS'x'
I159
sg21
I0
sa(dp35
S'y'
I608
sS'x'
I138
sg21
I0
sa(dp36
g24
S'curve'
p37
sS'x'
I149
sg21
I1
sS'y'
I600
sa(dp38
S'y'
I600
sS'x'
I151
sg21
I0
sa(dp39
S'y'
I659
sS'x'
I234
sg21
I0
sa(dp40
g24
S'curve'
p41
sS'x'
I359
sg21
I1
sS'y'
I659
sa(dp42
S'y'
I659
sS'x'
I547
sg21
I0
sa(dp43
S'y'
I566
sS'x'
I671
sg21
I0
sa(dp44
g24
S'curve'
p45
sS'x'
I651
sg21
I1
sS'y'
I358
sa(dp46
S'y'
I190
sS'x'
I635
sg21
I0
sa(dp47
S'y'
I75
sS'x'
I536
sg21
I0
sa(dp48
g24
S'curve'
p49
sS'x'
I343
sg21
I1
sS'y'
I71
sa(dp50
S'y'
I68
sS'x'
I212
sg21
I0
sa(dp51
S'y'
I127
sS'x'
I107
sg21
I0
sa(dp52
g24
S'curve'
p53
sS'x'
I109
sg21
I1
sS'y'
I204
sa(dp54
S'y'
I332
sS'x'
I112
sg21
I0
sa(dp55
S'y'
I356
sS'x'
I267
sg21
I0
sa(dp56
g24
S'curve'
p57
sS'x'
I388
sg21
I0
sS'y'
I335
sa(dp58
g24
S'line'
p59
sS'x'
I400
sg21
I0
sS'y'
I353
sa(dp60
g24
S'line'
p61
sS'x'
I367
sg21
I0
sS'y'
I436
sa(dp62
S'y'
I437
sS'x'
I359
sg21
I0
sa(dp63
S'y'
I437
sS'x'
I349
sg21
I0
sa(dp64
g24
S'curve'
p65
sS'x'
I340
sg21
I1
sS'y'
I437
sa(dp66
S'y'
I437
sS'x'
I236
sg21
I0
sa(dp67
S'y'
I358
sS'x'
I56
sg21
I0
sa(dp68
g24
S'curve'
p69
sS'x'
I51
sg21
I1
sS'y'
I181
sa(dp70
S'y'
I54
sS'x'
I47
sg21
I0
sa(dp71
S'y'
I-50
sS'x'
I156
sg21
I0
sa(dp72
g24
S'curve'
p73
sS'x'
I337
sg21
I1
sS'y'
I-49
sasasS'components'
p74
(lp75
sS'anchors'
p76
(lp77
(dp78
S'y'
I343
sS'x'
I719
sg8
S'rakaransaya'
p79
sasss."
EndChar
StartChar: sinTtha
Encoding: 783 3496 630
GlifName: sinT_tha
Width: 650
VWidth: 0
Flags: W
LayerCount: 2
Fore
SplineSet
600 250 m 256
 600 512 379 631 220 631 c 257
 209 562 l 257
 370 562 556 437 556 262 c 256
 556 158 503 81 415 79 c 256
 369 79 328 107 328 160 c 256
 328 165 328 170 329 176 c 257
 309 171 l 257
 292 113 249 77 188 77 c 256
 131 77 83 106 83 170 c 256
 83 242 155 276 240 276 c 256
 261 276 282 274 304 270 c 257
 314 282 l 257
 311 306 297 342 287 352 c 257
 193 357 44 295 44 152 c 256
 44 63 95 -15 184 -15 c 256
 263 -15 313 56 317 102 c 257
 318 102 299 106 300 108 c 257
 301 69 320 -18 419 -18 c 256
 539 -18 600 118 600 250 c 256
  PathStart: -2
483 448 m 257
 468 473 l 257
 448 465 419 458 384 458 c 256
 254 458 229 520 220 631 c 257
 190 614 l 257
 187 594 185 575 185 558 c 256
 185 473 226 413 341 413 c 256
 394 413 459 430 483 448 c 257
  PathStart: -2
EndSplineSet
Validated: 37
PickledDataWithLists: "(dp1
S'com.schriftgestaltung.Glyphs.lastChange'
p2
S'2018-07-27 16:12:40 +0000'
p3
sS'com.typemytype.robofont.layerData'
p4
(dp5
S'background'
p6
(dp7
S'name'
p8
S'sinTtha'
p9
sS'lib'
p10
(dp11
sS'unicodes'
p12
(lp13
sS'width'
p14
I827
sS'contours'
p15
(lp16
(dp17
S'points'
p18
(lp19
(dp20
S'y'
I562
sS'x'
I326
sS'smooth'
p21
I0
sa(dp22
S'y'
I683
sS'x'
I282
sg21
I0
sa(dp23
S'segmentType'
p24
S'curve'
p25
sS'x'
I306
sg21
I0
sS'y'
I837
sa(dp26
g24
S'line'
p27
sS'x'
I346
sg21
I0
sS'y'
I858
sa(dp28
S'y'
I817
sS'x'
I353
sg21
I0
sa(dp29
S'y'
I738
sS'x'
I351
sg21
I0
sa(dp30
g24
S'curve'
p31
sS'x'
I400
sg21
I1
sS'y'
I682
sa(dp32
S'y'
I607
sS'x'
I465
sg21
I0
sa(dp33
S'y'
I613
sS'x'
I613
sg21
I0
sa(dp34
g24
S'curve'
p35
sS'x'
I674
sg21
I0
sS'y'
I638
sa(dp36
g24
S'line'
p37
sS'x'
I685
sg21
I0
sS'y'
I611
sa(dp38
S'y'
I584
sS'x'
I653
sg21
I0
sa(dp39
S'y'
I562
sS'x'
I578
sg21
I0
sa(dp40
g24
S'curve'
p41
sS'x'
I504
sg21
I1
sS'y'
I562
sasa(dp42
g18
(lp43
(dp44
g24
S'move'
p45
sS'x'
I700
sg21
I0
sS'y'
I395
sa(dp46
S'y'
I597
sS'x'
I698
sg21
I0
sa(dp47
S'y'
I764
sS'x'
I536
sg21
I0
sa(dp48
g24
S'curve'
p49
sS'x'
I331
sg21
I0
sS'y'
I764
sa(dp50
g24
S'line'
p51
sS'x'
I346
sg21
I0
sS'y'
I857
sa(dp52
S'y'
I857
sS'x'
I550
sg21
I0
sa(dp53
S'y'
I666
sS'x'
I756
sg21
I0
sa(dp54
g24
S'curve'
p55
sS'x'
I752
sg21
I0
sS'y'
I403
sasasS'components'
p56
(lp57
sS'anchors'
p58
(lp59
sss."
EndChar
StartChar: sinDda
Encoding: 384 3497 231
GlifName: sinD_da
Width: 696
VWidth: 0
Flags: W
LayerCount: 2
Fore
SplineSet
294 277 m 257
 328 289 l 257
 240 290 96 281 32 269 c 257
 25 248 21 226 20 203 c 257
 30 196 l 257
 67 222 171 270 294 277 c 257
  PathStart: -2
232 -15 m 256
 321 -15 363 49 366 93 c 257
 368 95 361 90 362 92 c 257
 361 86 361 80 361 75 c 256
 361 30 392 -19 466 -19 c 256
 595 -19 652 127 652 255 c 256
 652 444 542 601 331 601 c 256
 282 601 216 590 176 571 c 257
 166 555 162 521 164 500 c 257
 172 504 244 533 331 533 c 256
 469 533 607 458 607 284 c 256
 607 182 559 63 462 63 c 256
 411 63 381 96 381 146 c 256
 381 155 382 160 383 167 c 257
 363 162 l 257
 347 105 311 64 241 64 c 256
 174 64 138 101 138 146 c 256
 138 207 198 240 257 240 c 256
 287 240 306 236 327 227 c 257
 339 235 l 257
 341 244 341 248 341 268 c 256
 341 356 284 424 197 424 c 256
 152 424 111 399 111 356 c 256
 111 333 129 310 171 314 c 257
 171 330 186 370 237 370 c 256
 259 370 296 358 296 311 c 256
 296 304 295 295 293 286 c 257
 288 284 286 284 275 282 c 256
 198 268 91 240 91 118 c 256
 91 44 147 -15 232 -15 c 256
  PathStart: -2
EndSplineSet
Validated: 37
PickledDataWithLists: "(dp1
S'com.schriftgestaltung.Glyphs.lastChange'
p2
S'2018-07-27 16:12:40 +0000'
p3
s."
EndChar
StartChar: sinDdha
Encoding: 391 3498 238
GlifName: sinD_dha
Width: 681
VWidth: 0
Flags: W
LayerCount: 2
Fore
SplineSet
543 476 m 257
 522 467 489 461 453 461 c 256
 318 461 290 538 290 630 c 257
 260 614 l 257
 258 606 255 585 255 567 c 256
 255 466 314 417 412 417 c 256
 479 417 535 440 552 452 c 257
 543 476 l 257
294 277 m 257
 328 289 l 257
 240 290 96 281 32 269 c 257
 25 248 21 226 20 203 c 257
 30 196 l 257
 67 222 171 270 294 277 c 257
  PathStart: -2
296 311 m 256
 296 304 295 295 293 286 c 257
 288 284 286 284 275 282 c 256
 198 268 91 240 91 118 c 256
 91 39 147 -15 232 -15 c 256
 321 -15 363 49 366 93 c 257
 362 92 l 257
 361 86 361 80 361 75 c 256
 361 30 392 -19 466 -19 c 256
 595 -19 645 146 645 269 c 256
 645 487 451 630 290 630 c 257
 264 558 l 257
 272 559 280 559 288 559 c 256
 437 559 605 451 605 268 c 256
 605 185 566 63 462 63 c 256
 411 63 381 96 381 146 c 256
 381 155 382 160 383 167 c 257
 363 162 l 257
 347 105 311 64 233 64 c 256
 174 64 138 92 138 146 c 256
 138 207 198 240 257 240 c 256
 287 240 306 236 327 227 c 257
 339 235 l 257
 341 244 341 248 341 268 c 256
 341 356 284 424 197 424 c 256
 152 424 111 399 111 356 c 256
 111 333 129 310 171 314 c 257
 171 330 186 370 237 370 c 256
 259 370 296 358 296 311 c 256
EndSplineSet
Validated: 37
PickledDataWithLists: "(dp1
S'com.schriftgestaltung.Glyphs.rightMetricsKey'
p2
S'=sinTta'
p3
sS'com.schriftgestaltung.Glyphs.lastChange'
p4
S'2018-07-27 16:12:40 +0000'
p5
s."
EndChar
StartChar: sinNna
Encoding: 646 3499 493
GlifName: sinN_na
Width: 907
VWidth: 0
Flags: W
LayerCount: 2
Fore
SplineSet
513 243 m 256
 513 356 440 435 346 435 c 256
 297 435 269 413 253 397 c 257
 200 371 162 316 162 255 c 256
 162 192 203 125 285 125 c 256
 346 125 387 163 387 219 c 256
 387 272 350 315 284 315 c 256
 253 315 221 306 184 271 c 257
 176 236 l 257
 202 262 229 272 252 272 c 256
 298 272 324 234 324 202 c 256
 324 171 300 159 278 159 c 256
 246 159 198 181 198 254 c 256
 198 313 229 377 319 377 c 256
 403 377 480 321 479 231 c 256
 478 144 409 70 277 70 c 256
 138 70 119 175 22 140 c 257
 62 125 l 257
 156 250 299 476 473 586 c 257
 470 604 448 636 429 641 c 257
 253 489 161 308 38 147 c 257
 17 145 -2 131 -2 108 c 256
 -2 98 2 90 4 87 c 257
 11 87 23 87 34 91 c 257
 34 96 35 108 59 108 c 256
 149 108 150 -11 307 -11 c 256
 468 -11 513 157 513 243 c 256
  PathStart: -2
872 237 m 256
 872 350 819 405 753 405 c 256
 693 405 650 355 634 298 c 257
 635 289 l 257
 638 321 625 353 587 353 c 256
 539 353 504 298 501 253 c 257
 508 191 l 257
 520 254 532 288 567 288 c 256
 592 288 614 259 611 203 c 257
 617 202 633 202 642 205 c 257
 645 239 680 320 749 320 c 256
 786 320 839 296 839 214 c 256
 839 125 787 53 684 51 c 256
 639 50 594 60 566 79 c 257
 556 73 546 61 544 51 c 257
 550 21 593 -26 676 -26 c 256
 813 -26 872 103 872 237 c 256
  PathStart: -2
EndSplineSet
Validated: 37
PickledDataWithLists: "(dp1
S'com.schriftgestaltung.Glyphs.lastChange'
p2
S'2018-07-27 16:12:40 +0000'
p3
sS'com.typemytype.robofont.layerData'
p4
(dp5
S'Regular Oct 20 16, 02:48'
p6
(dp7
S'name'
p8
S'sinNna'
p9
sS'lib'
p10
(dp11
sS'unicodes'
p12
(lp13
sS'width'
p14
I1253
sS'contours'
p15
(lp16
(dp17
S'points'
p18
(lp19
(dp20
S'segmentType'
p21
S'line'
p22
sS'x'
I28
sS'smooth'
p23
I0
sS'y'
I97
sa(dp24
S'y'
F102.96299999999999
sS'x'
I25
sg23
I0
sa(dp25
S'y'
F120.812
sS'x'
F18.591999999999999
sg23
I0
sa(dp26
g21
S'curve'
p27
sS'x'
I25
sg23
I1
sS'y'
I142
sa(dp28
S'y'
F165.91999999999999
sS'x'
F32.234000000000002
sg23
I0
sa(dp29
S'y'
F176.88900000000001
sS'x'
F60.558999999999997
sg23
I0
sa(dp30
g21
S'curve'
p31
sS'x'
I87
sg23
I0
sS'y'
I183
sa(dp32
S'y'
F398.78800000000001
sS'x'
F258.42399999999998
sg23
I0
sa(dp33
S'y'
F637.28700000000003
sS'x'
F415.65699999999998
sg23
I0
sa(dp34
g21
S'curve'
p35
sS'x'
F644.11400000000003
sg23
I0
sS'y'
I834
sa(dp36
S'y'
F828.27499999999998
sS'x'
F655.42399999999998
sg23
I0
sa(dp37
S'y'
F807.51800000000003
sS'x'
F693.35599999999999
sg23
I0
sa(dp38
g21
S'curve'
p39
sS'x'
F692.55100000000004
sg23
I0
sS'y'
I766
sa(dp40
S'y'
F629.51400000000001
sS'x'
F477.66300000000001
sg23
I0
sa(dp41
S'y'
F349.13299999999998
sS'x'
F271.488
sg23
I0
sa(dp42
g21
S'curve'
p43
sS'x'
F137.643
sg23
I0
sS'y'
I182
sa(dp44
S'y'
F187.191
sS'x'
F253.33500000000001
sg23
I0
sa(dp45
S'y'
F95.489000000000004
sS'x'
F258.601
sg23
I0
sa(dp46
g21
S'curve'
p47
sS'x'
F441.04000000000002
sg23
I1
sS'y'
I91
sa(dp48
S'y'
F86.700999999999993
sS'x'
F615.77099999999996
sg23
I0
sa(dp49
S'y'
F184.328
sS'x'
F689.23699999999997
sg23
I0
sa(dp50
g21
S'curve'
p51
sS'x'
F698.72299999999996
sg23
I1
sS'y'
I300
sa(dp52
S'y'
F402.947
sS'x'
F707.12
sg23
I0
sa(dp53
S'y'
I489
sS'x'
F610.02999999999997
sg23
I0
sa(dp54
g21
S'curve'
p55
sS'x'
F496.88999999999999
sg23
I1
sS'y'
I489
sa(dp56
S'y'
I489
sS'x'
F382.726
sg23
I0
sa(dp57
S'y'
F410.41699999999997
sS'x'
F340.66300000000001
sg23
I0
sa(dp58
g21
S'curve'
p59
sS'x'
F338.988
sg23
I1
sS'y'
I346
sa(dp60
S'y'
F220.08199999999999
sS'x'
F334.99299999999999
sg23
I0
sa(dp61
S'y'
I206
sS'x'
F414.476
sg23
I0
sa(dp62
g21
S'curve'
p63
sS'x'
I440
sg23
I1
sS'y'
I206
sa(dp64
S'y'
I206
sS'x'
F469.21199999999999
sg23
I0
sa(dp65
S'y'
F221.47
sS'x'
F500.47899999999998
sg23
I0
sa(dp66
g21
S'curve'
p67
sS'x'
F502.988
sg23
I1
sS'y'
I256
sa(dp68
S'y'
I297
sS'x'
I506
sg23
I0
sa(dp69
S'y'
I337
sS'x'
I471
sg23
I0
sa(dp70
g21
S'curve'
p71
sS'x'
I420
sg23
I1
sS'y'
I340
sa(dp72
S'y'
I342
sS'x'
I381
sg23
I0
sa(dp73
S'y'
I329
sS'x'
I346
sg23
I0
sa(dp74
g21
S'curve'
p75
sS'x'
F311.40300000000002
sg23
I0
sS'y'
I293
sa(dp76
g21
S'line'
p77
sS'x'
F321.49599999999998
sg23
I1
sS'y'
I352
sa(dp78
S'y'
F398.24400000000003
sS'x'
F369.44799999999998
sg23
I0
sa(dp79
S'y'
F409.10899999999998
sS'x'
F411.26299999999998
sg23
I0
sa(dp80
g21
S'curve'
p81
sS'x'
F450.43200000000002
sg23
I1
sS'y'
F408.93799999999999
sa(dp82
S'y'
F408.54599999999999
sS'x'
F539.85299999999995
sg23
I0
sa(dp83
S'y'
F348.13099999999997
sS'x'
F588.07899999999995
sg23
I0
sa(dp84
g21
S'curve'
p85
sS'x'
F584.46500000000003
sg23
I1
sS'y'
I279
sa(dp86
S'y'
F206.84999999999999
sS'x'
F580.69200000000001
sg23
I0
sa(dp87
S'y'
I162
sS'x'
F528.76099999999997
sg23
I0
sa(dp88
g21
S'curve'
p89
sS'x'
F448.96600000000001
sg23
I1
sS'y'
I162
sa(dp90
S'y'
I162
sS'x'
F346.22000000000003
sg23
I0
sa(dp91
S'y'
F242.48599999999999
sS'x'
F281.09699999999998
sg23
I0
sa(dp92
g21
S'curve'
p93
sS'x'
F286.45600000000002
sg23
I1
sS'y'
I334
sa(dp94
S'y'
F440.30799999999999
sS'x'
F291.51799999999997
sg23
I0
sa(dp95
S'y'
F481.553
sS'x'
F340.53699999999998
sg23
I0
sa(dp96
g21
S'curve'
p97
sS'x'
I410
sg23
I0
sS'y'
I515
sa(dp98
S'y'
I540
sS'x'
I434
sg23
I0
sa(dp99
S'y'
I556
sS'x'
I469
sg23
I0
sa(dp100
g21
S'curve'
p101
sS'x'
I486
sg23
I0
sS'y'
F561.19299999999998
sa(dp102
S'y'
F563.71699999999998
sS'x'
F495.38600000000002
sg23
I0
sa(dp103
S'y'
I565
sS'x'
F505.11000000000001
sg23
I0
sa(dp104
g21
S'curve'
p105
sS'x'
F515.08600000000001
sg23
I1
sS'y'
I565
sa(dp106
S'y'
I565
sS'x'
F662.00599999999997
sg23
I0
sa(dp107
S'y'
F453.41800000000001
sS'x'
F756.19100000000003
sg23
I0
sa(dp108
g21
S'curve'
p109
sS'x'
F748.30799999999999
sg23
I1
sS'y'
I303
sa(dp110
S'y'
F190.77000000000001
sS'x'
F742.42600000000004
sg23
I0
sa(dp111
S'y'
F-9.4090000000000007
sS'x'
F668.44899999999996
sg23
I0
sa(dp112
g21
S'curve'
p113
sS'x'
F471.79899999999998
sg23
I1
sS'y'
I-11
sa(dp114
S'y'
F-12.909000000000001
sS'x'
F235.81800000000001
sg23
I0
sa(dp115
S'y'
F132.15100000000001
sS'x'
F243.88200000000001
sg23
I0
sa(dp116
g21
S'curve'
p117
sS'x'
F112.01900000000001
sg23
I1
sS'y'
I133
sa(dp118
S'y'
F133.17599999999999
sS'x'
F84.626999999999995
sg23
I0
sa(dp119
S'y'
F120.883
sS'x'
F72.632000000000005
sg23
I0
sa(dp120
g21
S'curve'
p121
sS'x'
F60.241
sg23
I0
sS'y'
I114
sasa(dp122
g18
(lp123
(dp124
g21
S'curve'
p125
sS'x'
F740.42499999999995
sg23
I0
sS'y'
I248
sa(dp126
S'y'
I248
sS'x'
F732.96400000000006
sg23
I0
sa(dp127
S'y'
F259.42899999999997
sS'x'
F730.16899999999998
sg23
I0
sa(dp128
g21
S'curve'
p129
sS'x'
F731.61699999999996
sg23
I0
sS'y'
I328
sa(dp130
S'y'
F385.64400000000001
sS'x'
F736.16499999999996
sg23
I0
sa(dp131
S'y'
F458.20400000000001
sS'x'
F779.95299999999997
sg23
I0
sa(dp132
g21
S'curve'
p133
sS'x'
F841.01199999999994
sg23
I1
sS'y'
I459
sa(dp134
S'y'
F459.66199999999998
sS'x'
F891.77099999999996
sg23
I0
sa(dp135
S'y'
F417.34699999999998
sS'x'
F916.44399999999996
sg23
I0
sa(dp136
g21
S'curve'
p137
sS'x'
F912.03200000000004
sg23
I0
sS'y'
I375
sa(dp138
g21
S'line'
p139
sS'x'
F901.976
sg23
I0
sS'y'
I393
sa(dp140
S'y'
F458.92099999999999
sS'x'
F924.74900000000002
sg23
I0
sa(dp141
S'y'
F526.47400000000005
sS'x'
F990.36400000000003
sg23
I0
sa(dp142
g21
S'curve'
p143
sS'x'
F1065.99
sg23
I1
sS'y'
I526
sa(dp144
S'y'
F525.47299999999996
sS'x'
F1150.03
sg23
I0
sa(dp145
S'y'
F461.98200000000003
sS'x'
F1214.0999999999999
sg23
I0
sa(dp146
g21
S'curve'
p147
sS'x'
F1214.05
sg23
I1
sS'y'
I299
sa(dp148
S'y'
F160.09299999999999
sS'x'
I1214
sg23
I0
sa(dp149
S'y'
F-10.06
sS'x'
F1127.6700000000001
sg23
I0
sa(dp150
g21
S'curve'
p151
sS'x'
F991.85500000000002
sg23
I1
sS'y'
I-30
sa(dp152
S'y'
F-47.579000000000001
sS'x'
F872.11599999999999
sg23
I0
sa(dp153
S'y'
F13.315
sS'x'
F782.12800000000004
sg23
I0
sa(dp154
g21
S'curve'
p155
sS'x'
F777.97900000000004
sg23
I0
sS'y'
I74
sa(dp156
S'y'
I89
sS'x'
F783.11699999999996
sg23
I0
sa(dp157
S'y'
I104
sS'x'
F793.56700000000001
sg23
I0
sa(dp158
g21
S'curve'
p159
sS'x'
F806.91800000000001
sg23
I0
sS'y'
I110
sa(dp160
S'y'
F82.349000000000004
sS'x'
F848.81399999999996
sg23
I0
sa(dp161
S'y'
F60.869
sS'x'
F935.93499999999995
sg23
I0
sa(dp162
g21
S'curve'
p163
sS'x'
F978.46799999999996
sg23
I1
sS'y'
I68
sa(dp164
S'y'
F90.049999999999997
sS'x'
F1109.99
sg23
I0
sa(dp165
S'y'
F195.08699999999999
sS'x'
F1160.3699999999999
sg23
I0
sa(dp166
g21
S'curve'
p167
sS'x'
F1158.27
sg23
I1
sS'y'
I287
sa(dp168
S'y'
F387.71699999999998
sS'x'
F1155.96
sg23
I0
sa(dp169
S'y'
F418.24000000000001
sS'x'
F1101.95
sg23
I0
sa(dp170
g21
S'curve'
p171
sS'x'
F1050.23
sg23
I1
sS'y'
I415
sa(dp172
S'y'
F409.76799999999997
sS'x'
F966.71600000000001
sg23
I0
sa(dp173
S'y'
F308.77600000000001
sS'x'
F920.16099999999994
sg23
I0
sa(dp174
g21
S'curve'
p175
sS'x'
F916.36800000000005
sg23
I0
sS'y'
I266
sa(dp176
S'y'
I262
sS'x'
F903.84799999999996
sg23
I0
sa(dp177
S'y'
I262
sS'x'
F883.21900000000005
sg23
I0
sa(dp178
g21
S'curve'
p179
sS'x'
F875.21100000000001
sg23
I0
sS'y'
I263
sa(dp180
S'y'
F337.69400000000002
sS'x'
F881.46299999999997
sg23
I0
sa(dp181
S'y'
F375.64800000000002
sS'x'
F844.28099999999995
sg23
I0
sa(dp182
g21
S'curve'
p183
sS'x'
F815.02800000000002
sg23
I1
sS'y'
I374
sa(dp184
S'y'
F371.63799999999998
sS'x'
F773.101
sg23
I0
sa(dp185
S'y'
F337.55700000000002
sS'x'
F758.61099999999999
sg23
I0
sasasS'components'
p186
(lp187
sS'anchors'
p188
(lp189
sss."
EndChar
StartChar: sinNndda
Encoding: 652 3500 499
GlifName: sinN_ndda
Width: 765
VWidth: 0
Flags: W
LayerCount: 2
Fore
SplineSet
117 9 m 257
 102 36 85 109 85 174 c 256
 85 302 148 388 250 379 c 257
 315 433 l 257
 159 445 30 351 30 206 c 256
 30 119 57 33 83 2 c 257
 102 2 113 6 117 9 c 257
  PathStart: -2
EndSplineSet
Refer: 231 3497 N 1 0 0 1 77 0 2
Validated: 37
PickledDataWithLists: "(dp1
S'com.schriftgestaltung.Glyphs.rightMetricsKey'
p2
S'=sinTta'
p3
sS'com.schriftgestaltung.Glyphs.lastChange'
p4
S'2018-07-27 16:12:40 +0000'
p5
sS'com.schriftgestaltung.Glyphs.leftMetricsKey'
p6
S'sinNda'
p7
s."
EndChar
StartChar: sinTa
Encoding: 755 3501 602
GlifName: sinT_a
Width: 825
VWidth: 0
Flags: W
LayerCount: 2
Fore
SplineSet
520 203 m 256
 520 274 469 313 400 313 c 256
 355 313 309 296 286 281 c 256
 270 271 249 261 231 245 c 257
 241 256 255 269 276 285 c 256
 335 330 411 373 521 373 c 256
 650 373 742 314 742 210 c 256
 742 123 678 72 582 72 c 256
 569 72 550 72 533 76 c 257
 523 71 l 257
 527 43 548 5 561 -6 c 257
 728 -1 787 128 787 233 c 256
 787 375 680 456 558 456 c 256
 451 456 342 394 266 322 c 256
 207 266 107 148 57 85 c 257
 53 63 82 49 83 48 c 257
 102 104 150 153 180 179 c 256
 233 225 292 252 374 252 c 256
 443 252 490 233 490 189 c 256
 490 142 437 70 308 70 c 256
 205 70 177 116 133 116 c 256
 118 116 95 111 82 97 c 257
 86 54 l 257
 86 74 104 91 118 91 c 256
 153 91 169 -7 299 -7 c 256
 445 -7 520 116 520 203 c 256
  PathStart: -2
230 276 m 257
 248 294 291 355 291 397 c 256
 291 435 255 452 212 452 c 256
 134 452 59 397 59 328 c 256
 59 297 74 280 106 280 c 256
 122 280 139 284 147 289 c 257
 141 296 129 318 129 345 c 256
 129 377 146 417 191 417 c 256
 225 417 240 395 240 362 c 256
 240 330 226 280 207 258 c 257
 230 276 l 257
EndSplineSet
Validated: 37
PickledDataWithLists: "(dp1
S'com.schriftgestaltung.Glyphs.lastChange'
p2
S'2018-07-27 16:12:40 +0000'
p3
s."
EndChar
StartChar: sinTha
Encoding: 761 3502 608
GlifName: sinT_ha
Width: 606
VWidth: 0
Flags: W
LayerCount: 2
Fore
SplineSet
268 -18 m 256
 444 -18 556 112 556 293 c 256
 556 488 384 630 228 630 c 257
 205 566 l 257
 363 566 510 446 510 310 c 256
 510 158 406 69 263 69 c 256
 153 69 84 122 84 183 c 256
 84 249 146 275 231 275 c 256
 241 275 251 275 261 273 c 257
 271 288 l 257
 268 307 261 335 250 360 c 257
 158 362 45 284 44 169 c 256
 43 47 141 -18 268 -18 c 256
481 476 m 257
 460 467 427 461 391 461 c 256
 274 461 228 516 228 630 c 257
 197 614 l 257
 195 605 192 584 192 565 c 256
 192 469 245 417 350 417 c 256
 407 417 465 434 489 455 c 257
 481 476 l 257
EndSplineSet
Validated: 37
PickledDataWithLists: "(dp1
S'com.schriftgestaltung.Glyphs.lastChange'
p2
S'2018-07-27 16:12:40 +0000'
p3
s."
EndChar
StartChar: sinDa
Encoding: 374 3503 221
GlifName: sinD_a
Width: 438
VWidth: 0
Flags: W
LayerCount: 2
Fore
SplineSet
372 16 m 257
 380 33 385 62 385 91 c 257
 377 101 l 257
 331 67 276 46 214 46 c 256
 118 46 69 79 69 129 c 256
 69 194 136 261 273 261 c 256
 295 261 344 258 370 254 c 257
 384 268 l 257
 389 353 336 462 224 462 c 256
 150 462 98 424 98 370 c 256
 98 342 119 326 152 326 c 256
 162 326 172 328 184 330 c 257
 182 337 182 343 182 350 c 256
 182 391 217 413 252 413 c 256
 302 413 321 367 325 316 c 257
 313 319 301 320 276 320 c 256
 128 320 30 236 30 126 c 256
 30 39 102 -26 217 -26 c 256
 290 -26 340 2 372 16 c 257
  PathStart: -2
364 -159 m 257
 329 -169 301 -174 279 -174 c 256
 221 -174 203 -146 203 -119 c 256
 203 -52 294 -15 330 -2 c 257
 293 8 l 257
 239 -15 142 -62 142 -152 c 256
 142 -201 178 -254 278 -254 c 256
 289 -254 300 -254 312 -253 c 257
 335 -240 362 -201 364 -159 c 257
  PathStart: -2
EndSplineSet
Validated: 37
PickledDataWithLists: "(dp1
S'com.schriftgestaltung.Glyphs.lastChange'
p2
S'2018-07-27 16:12:40 +0000'
p3
s."
EndChar
StartChar: sinDha
Encoding: 401 3504 248
GlifName: sinD_ha
Width: 648
VWidth: 0
Flags: W
LayerCount: 2
Fore
SplineSet
598 259 m 256
 598 456 460 597 273 597 c 256
 220 597 164 586 134 573 c 257
 120 551 113 513 119 498 c 257
 139 508 189 525 266 525 c 256
 387 525 552 473 552 280 c 256
 552 150 497 65 429 65 c 256
 392 65 341 80 341 142 c 256
 341 147 341 153 342 158 c 257
 323 154 l 257
 307 110 273 69 213 69 c 256
 125 69 88 120 88 169 c 256
 88 243 153 290 251 291 c 256
 275 291 301 288 328 282 c 257
 339 295 l 257
 337 317 329 343 319 362 c 257
 308 363 296 364 285 364 c 256
 164 364 50 292 50 147 c 256
 50 51 114 -15 203 -15 c 256
 288 -15 324 48 329 83 c 257
 321 105 l 257
 320 99 319 93 319 87 c 256
 319 39 355 -16 438 -16 c 256
 545 -16 598 116 598 259 c 256
  PathStart: -2
EndSplineSet
Validated: 37
PickledDataWithLists: "(dp1
S'com.schriftgestaltung.Glyphs.lastChange'
p2
S'2018-07-27 16:12:40 +0000'
p3
s."
EndChar
StartChar: sinNa
Encoding: 616 3505 463
GlifName: sinN_a
Width: 813
VWidth: 0
Flags: W
LayerCount: 2
Fore
SplineSet
778 248 m 256
 778 396 667 456 564 456 c 256
 460 456 340 396 250 295 c 256
 189 226 130 131 82 131 c 256
 67 131 60 141 60 156 c 256
 60 160 60 164 61 169 c 257
 59 170 53 171 46 171 c 256
 39 171 30 170 25 168 c 257
 34 84 99 -15 246 -15 c 256
 388 -15 479 77 479 192 c 256
 479 265 442 303 386 303 c 256
 325 303 264 259 206 213 c 257
 202 197 l 257
 205 203 245 250 265 270 c 256
 323 327 429 373 524 373 c 256
 629 373 730 316 730 205 c 256
 730 107 650 56 555 56 c 256
 536 56 523 58 502 60 c 257
 490 55 l 257
 490 28 512 -6 526 -18 c 257
 692 -21 778 117 778 248 c 256
  PathStart: -2
75 115 m 257
 72 103 l 257
 168 104 193 240 358 240 c 256
 417 240 450 223 450 183 c 256
 450 120 369 66 233 66 c 256
 172 66 103 77 75 115 c 257
  PathStart: -2
312 403 m 256
 312 436 286 457 236 457 c 256
 157 457 80 405 80 335 c 256
 80 302 97 286 130 286 c 256
 144 286 160 289 171 294 c 257
 163 303 155 324 155 347 c 256
 155 389 181 423 215 423 c 256
 246 423 270 395 266 357 c 256
 263 330 249 296 239 282 c 257
 246 275 l 257
 268 296 312 361 312 403 c 256
  PathStart: -2
EndSplineSet
Validated: 37
PickledDataWithLists: "(dp1
S'com.schriftgestaltung.Glyphs.lastChange'
p2
S'2018-07-27 16:12:40 +0000'
p3
sS'com.typemytype.robofont.layerData'
p4
(dp5
S'Regular Nov 5 16, 12:40'
p6
(dp7
S'name'
p8
S'sinNa'
p9
sS'lib'
p10
(dp11
sS'unicodes'
p12
(lp13
sS'width'
p14
I1072
sS'contours'
p15
(lp16
(dp17
S'points'
p18
(lp19
(dp20
S'segmentType'
p21
S'line'
p22
sS'x'
F116.20699999999999
sS'smooth'
p23
I0
sS'y'
I146
sa(dp24
S'y'
F97.983999999999995
sS'x'
F163.17400000000001
sg23
I0
sa(dp25
S'y'
F84.691000000000003
sS'x'
F227.114
sg23
I0
sa(dp26
g21
S'curve'
p27
sS'x'
F335.44200000000001
sg23
I1
sS'y'
I88
sa(dp28
S'y'
F90.841999999999999
sS'x'
F427.73899999999998
sg23
I0
sa(dp29
S'y'
F137.947
sS'x'
F582.31399999999996
sg23
I0
sa(dp30
g21
S'curve'
p31
sS'x'
F593.53499999999997
sg23
I1
sS'y'
I235
sa(dp32
S'y'
F276.95100000000002
sS'x'
F598.38499999999999
sg23
I0
sa(dp33
S'y'
I312
sS'x'
F556.60599999999999
sg23
I0
sa(dp34
g21
S'curve'
p35
sS'x'
F488.60599999999999
sg23
I1
sS'y'
I312
sa(dp36
S'y'
I312
sS'x'
F303.60599999999999
sg23
I0
sa(dp37
S'y'
I141
sS'x'
I224
sg23
I0
sa(dp38
g21
S'curve'
p39
sS'x'
I112
sg23
I0
sS'y'
I140
sasa(dp40
g18
(lp41
(dp42
g21
S'curve'
p43
sS'x'
F111.813
sg23
I1
sS'y'
I438
sa(dp44
S'y'
I528
sS'x'
F121.246
sg23
I0
sa(dp45
S'y'
I594
sS'x'
F222.053
sg23
I0
sa(dp46
g21
S'curve'
p47
sS'x'
F323.16399999999999
sg23
I1
sS'y'
I594
sa(dp48
S'y'
I594
sS'x'
F389.16399999999999
sg23
I0
sa(dp49
S'y'
I569
sS'x'
F429.54399999999998
sg23
I0
sa(dp50
g21
S'curve'
p51
sS'x'
F423.35899999999998
sg23
I1
sS'y'
I510
sa(dp52
S'y'
I471
sS'x'
F419.27100000000002
sg23
I0
sa(dp53
S'y'
I382
sS'x'
F364.94299999999998
sg23
I0
sa(dp54
g21
S'curve'
p55
sS'x'
F338.32299999999998
sg23
I0
sS'y'
I357
sa(dp56
g21
S'line'
p57
sS'x'
F328.267
sg23
I0
sS'y'
I366
sa(dp58
S'y'
I387
sS'x'
F343.46800000000002
sg23
I0
sa(dp59
S'y'
I425
sS'x'
F358.44999999999999
sg23
I0
sa(dp60
g21
S'curve'
p61
sS'x'
F362.53800000000001
sg23
I1
sS'y'
I464
sa(dp62
S'y'
I513
sS'x'
F367.67399999999998
sg23
I0
sa(dp63
S'y'
I549
sS'x'
F339.34300000000002
sg23
I0
sa(dp64
g21
S'curve'
p65
sS'x'
F293.34300000000002
sg23
I1
sS'y'
I549
sa(dp66
S'y'
I549
sS'x'
F252.87100000000001
sg23
I0
sa(dp67
S'y'
I507
sS'x'
F225.04499999999999
sg23
I0
sa(dp68
g21
S'curve'
p69
sS'x'
F220.22399999999999
sg23
I1
sS'y'
I461
sa(dp70
S'y'
I425
sS'x'
F216.44999999999999
sg23
I0
sa(dp71
S'y'
I394
sS'x'
F230.20099999999999
sg23
I0
sa(dp72
g21
S'curve'
p73
sS'x'
F239.94300000000001
sg23
I0
sS'y'
I382
sa(dp74
S'y'
I375
sS'x'
F226.21000000000001
sg23
I0
sa(dp75
S'y'
I371
sS'x'
F203.78999999999999
sg23
I0
sa(dp76
g21
S'curve'
p77
sS'x'
F187.78999999999999
sg23
I1
sS'y'
I371
sa(dp78
S'y'
I371
sS'x'
F135.761
sg23
I0
sa(dp79
S'y'
I392
sS'x'
F106.991
sg23
I0
sasa(dp80
g18
(lp81
(dp82
g21
S'curve'
p83
sS'x'
F49.753
sg23
I0
sS'y'
I218
sa(dp84
S'y'
F224.15700000000001
sS'x'
F61.896999999999998
sg23
I0
sa(dp85
S'y'
F223.364
sS'x'
F91.537999999999997
sg23
I0
sa(dp86
g21
S'curve'
p87
sS'x'
F97.915000000000006
sg23
I0
sS'y'
I220
sa(dp88
S'y'
I191
sS'x'
F92.188999999999993
sg23
I0
sa(dp89
S'y'
I170
sS'x'
F97.722999999999999
sg23
I0
sa(dp90
g21
S'curve'
p91
sS'x'
F126.723
sg23
I1
sS'y'
I170
sa(dp92
S'y'
I170
sS'x'
F187.72300000000001
sg23
I0
sa(dp93
S'y'
F315.11200000000002
sS'x'
F283.78699999999998
sg23
I0
sa(dp94
g21
S'curve'
p95
sS'x'
F343.048
sg23
I1
sS'y'
I383
sa(dp96
S'y'
I521
sS'x'
F469.10599999999999
sg23
I0
sa(dp97
S'y'
I592
sS'x'
F620.77999999999997
sg23
I0
sa(dp98
g21
S'curve'
p99
sS'x'
F743.95399999999995
sg23
I1
sS'y'
I592
sa(dp100
S'y'
I592
sS'x'
F922.27800000000002
sg23
I0
sa(dp101
S'y'
F474.483
sS'x'
F1046.3599999999999
sg23
I0
sa(dp102
g21
S'curve'
p103
sS'x'
F1025.72
sg23
I1
sS'y'
I294
sa(dp104
S'y'
F151.066
sS'x'
F1009.67
sg23
I0
sa(dp105
S'y'
F-25.466999999999999
sS'x'
F926.346
sg23
I0
sa(dp106
g21
S'curve'
p107
sS'x'
F701.22699999999998
sg23
I0
sS'y'
I-24
sa(dp108
S'y'
I2
sS'x'
F662.952
sg23
I0
sa(dp109
S'y'
I47
sS'x'
F651.71699999999998
sg23
I0
sa(dp110
g21
S'curve'
p111
sS'x'
F654.23199999999997
sg23
I1
sS'y'
I71
sa(dp112
g21
S'line'
p113
sS'x'
F669.96600000000001
sg23
I0
sS'y'
I78
sa(dp114
S'y'
I74
sS'x'
F702.74300000000005
sg23
I0
sa(dp115
S'y'
F70.290999999999997
sS'x'
F720.89700000000005
sg23
I0
sa(dp116
g21
S'curve'
p117
sS'x'
F752.39400000000001
sg23
I1
sS'y'
I73
sa(dp118
S'y'
I82
sS'x'
F857.04200000000003
sg23
I0
sa(dp119
S'y'
F127.629
sS'x'
F952.27200000000005
sg23
I0
sa(dp120
g21
S'curve'
p121
sS'x'
F966.14700000000005
sg23
I1
sS'y'
I260
sa(dp122
S'y'
F390.23200000000003
sS'x'
F980.053
sg23
I0
sa(dp123
S'y'
I484
sS'x'
F843.22000000000003
sg23
I0
sa(dp124
g21
S'curve'
p125
sS'x'
F699.529
sg23
I1
sS'y'
I484
sa(dp126
S'y'
I484
sS'x'
F571.702
sg23
I0
sa(dp127
S'y'
F433.00599999999997
sS'x'
F455.85700000000003
sg23
I0
sa(dp128
g21
S'curve'
p129
sS'x'
F361.589
sg23
I1
sS'y'
I350
sa(dp130
S'y'
I333
sS'x'
I343
sg23
I0
sa(dp131
S'y'
I290
sS'x'
I303
sg23
I0
sa(dp132
g21
S'curve'
p133
sS'x'
I307
sg23
I0
sS'y'
I286
sa(dp134
g21
S'line'
p135
sS'x'
I286
sg23
I0
sS'y'
I277
sa(dp136
S'y'
I336
sS'x'
I360
sg23
I0
sa(dp137
S'y'
I394
sS'x'
I445
sg23
I0
sa(dp138
g21
S'curve'
p139
sS'x'
I513
sg23
I1
sS'y'
I394
sa(dp140
S'y'
I394
sS'x'
I592
sg23
I0
sa(dp141
S'y'
I344
sS'x'
I639
sg23
I0
sa(dp142
g21
S'curve'
p143
sS'x'
I640
sg23
I1
sS'y'
I261
sa(dp144
S'y'
I89
sS'x'
I640
sg23
I0
sa(dp145
S'y'
I-19
sS'x'
I521
sg23
I0
sa(dp146
g21
S'curve'
p147
sS'x'
F329.95999999999998
sg23
I1
sS'y'
I-19
sa(dp148
S'y'
I-19
sS'x'
F153.96000000000001
sg23
I0
sa(dp149
S'y'
I108
sS'x'
F61.223999999999997
sg23
I0
sasasS'components'
p150
(lp151
sS'anchors'
p152
(lp153
(dp154
S'y'
I542
sS'x'
I869
sg8
S'Virama'
p155
sasss."
EndChar
StartChar: sinNda
Encoding: 627 3507 474
GlifName: sinN_da
Width: 549
VWidth: 0
Flags: W
LayerCount: 2
Fore
SplineSet
130 9 m 257
 115 36 91 101 91 176 c 256
 91 291 161 422 263 412 c 257
 345 461 l 257
 199 485 30 381 30 197 c 256
 30 110 70 33 96 2 c 257
 115 2 126 6 130 9 c 257
  PathStart: -2
EndSplineSet
Refer: 221 3503 N 1 0 0 1 111 0 2
Validated: 37
PickledDataWithLists: "(dp1
S'com.schriftgestaltung.Glyphs.rightMetricsKey'
p2
S'sinDa'
p3
sS'com.schriftgestaltung.Glyphs.lastChange'
p4
S'2018-07-27 16:12:40 +0000'
p5
s."
EndChar
StartChar: sinPa
Encoding: 684 3508 531
GlifName: sinP_a
Width: 595
VWidth: 0
Flags: W
LayerCount: 2
Fore
SplineSet
565 193 m 256
 565 283 504 330 423 330 c 256
 384 330 357 322 334 311 c 257
 372 290 l 257
 364 301 353 316 353 345 c 256
 353 398 392 416 432 416 c 256
 470 416 507 393 507 356 c 256
 507 320 487 306 482 299 c 257
 493 283 l 257
 519 293 554 320 554 375 c 256
 554 418 516 463 451 463 c 256
 354 463 307 372 319 264 c 257
 329 256 l 257
 362 270 396 281 431 281 c 256
 485 281 529 259 529 204 c 256
 529 127 434 83 300 83 c 256
 154 83 62 116 62 179 c 256
 62 239 121 268 207 268 c 256
 226 268 247 266 269 263 c 257
 280 275 l 257
 284 292 286 312 286 332 c 256
 286 394 261 461 168 461 c 256
 107 461 69 427 69 390 c 256
 69 353 96 340 122 338 c 257
 130 369 160 411 203 411 c 256
 236 411 253 386 253 363 c 256
 253 325 230 303 220 294 c 257
 257 323 l 257
 246 325 234 326 223 326 c 256
 127 326 30 269 30 169 c 256
 30 78 101 -20 305 -20 c 256
 448 -20 565 70 565 193 c 256
  PathStart: -2
EndSplineSet
Validated: 37
PickledDataWithLists: "(dp1
S'com.schriftgestaltung.Glyphs.lastChange'
p2
S'2018-07-27 16:12:40 +0000'
p3
sS'com.typemytype.robofont.layerData'
p4
(dp5
S'Jan 18 17, 13:23'
p6
(dp7
S'name'
p8
S'sinPa'
p9
sS'lib'
p10
(dp11
sS'unicodes'
p12
(lp13
sS'width'
p14
I816
sS'contours'
p15
(lp16
(dp17
S'points'
p18
(lp19
(dp20
S'segmentType'
p21
S'line'
p22
sS'x'
I370
sS'smooth'
p23
I0
sS'y'
I332
sa(dp24
S'y'
I354
sS'x'
I218
sg23
I0
sa(dp25
S'y'
I316
sS'x'
I101
sg23
I0
sa(dp26
g21
S'curve'
p27
sS'x'
I101
sg23
I1
sS'y'
I233
sa(dp28
S'y'
I151
sS'x'
I101
sg23
I0
sa(dp29
S'y'
I85
sS'x'
I204
sg23
I0
sa(dp30
g21
S'curve'
p31
sS'x'
I402
sg23
I1
sS'y'
I82
sa(dp32
S'y'
I79
sS'x'
I580
sg23
I0
sa(dp33
S'y'
I163
sS'x'
I708
sg23
I0
sa(dp34
g21
S'curve'
p35
sS'x'
I708
sg23
I1
sS'y'
I258
sa(dp36
S'y'
I325
sS'x'
I708
sg23
I0
sa(dp37
S'y'
I351
sS'x'
I652
sg23
I0
sa(dp38
g21
S'curve'
p39
sS'x'
I584
sg23
I1
sS'y'
I353
sa(dp40
S'y'
I354
sS'x'
I542
sg23
I0
sa(dp41
S'y'
I337
sS'x'
I490
sg23
I0
sa(dp42
g21
S'curve'
p43
sS'x'
I448
sg23
I0
sS'y'
I322
sa(dp44
g21
S'line'
p45
sS'x'
I435
sg23
I0
sS'y'
I333
sa(dp46
S'y'
I472
sS'x'
I427
sg23
I0
sa(dp47
S'y'
I588
sS'x'
I499
sg23
I0
sa(dp48
g21
S'curve'
p49
sS'x'
I630
sg23
I1
sS'y'
I588
sa(dp50
S'y'
I588
sS'x'
I720
sg23
I0
sa(dp51
S'y'
I530
sS'x'
I754
sg23
I0
sa(dp52
g21
S'curve'
p53
sS'x'
I749
sg23
I1
sS'y'
I477
sa(dp54
S'y'
I404
sS'x'
I742
sg23
I0
sa(dp55
S'y'
I385
sS'x'
I678
sg23
I0
sa(dp56
g21
S'curve'
p57
sS'x'
I647
sg23
I0
sS'y'
I368
sa(dp58
S'y'
I376
sS'x'
I652
sg23
I0
sa(dp59
S'y'
I410
sS'x'
I670
sg23
I0
sa(dp60
g21
S'curve'
p61
sS'x'
I674
sg23
I1
sS'y'
I444
sa(dp62
S'y'
I499
sS'x'
I680
sg23
I0
sa(dp63
S'y'
I531
sS'x'
I642
sg23
I0
sa(dp64
g21
S'curve'
p65
sS'x'
I589
sg23
I1
sS'y'
I531
sa(dp66
S'y'
I531
sS'x'
I541
sg23
I0
sa(dp67
S'y'
I499
sS'x'
I504
sg23
I0
sa(dp68
g21
S'curve'
p69
sS'x'
I499
sg23
I1
sS'y'
I452
sa(dp70
S'y'
I407
sS'x'
I494
sg23
I0
sa(dp71
S'y'
I395
sS'x'
I513
sg23
I0
sa(dp72
g21
S'curve'
p73
sS'x'
I524
sg23
I0
sS'y'
I379
sa(dp74
g21
S'line'
p75
sS'x'
I455
sg23
I0
sS'y'
I395
sa(dp76
S'y'
I410
sS'x'
I498
sg23
I0
sa(dp77
S'y'
I417
sS'x'
I522
sg23
I0
sa(dp78
g21
S'curve'
p79
sS'x'
I580
sg23
I1
sS'y'
I416
sa(dp80
S'y'
I414
sS'x'
I680
sg23
I0
sa(dp81
S'y'
I354
sS'x'
I754
sg23
I0
sa(dp82
g21
S'curve'
p83
sS'x'
I754
sg23
I1
sS'y'
I251
sa(dp84
S'y'
I91
sS'x'
I754
sg23
I0
sa(dp85
S'y'
I-26
sS'x'
I602
sg23
I0
sa(dp86
g21
S'curve'
p87
sS'x'
I417
sg23
I1
sS'y'
I-26
sa(dp88
S'y'
I-26
sS'x'
I152
sg23
I0
sa(dp89
S'y'
I101
sS'x'
I60
sg23
I0
sa(dp90
g21
S'curve'
p91
sS'x'
I60
sg23
I1
sS'y'
I220
sa(dp92
S'y'
I353
sS'x'
I60
sg23
I0
sa(dp93
S'y'
I431
sS'x'
I219
sg23
I0
sa(dp94
g21
S'curve'
p95
sS'x'
I355
sg23
I0
sS'y'
I410
sa(dp96
g21
S'line'
p97
sS'x'
I307
sg23
I0
sS'y'
I372
sa(dp98
S'y'
I383
sS'x'
I320
sg23
I0
sa(dp99
S'y'
I406
sS'x'
I342
sg23
I0
sa(dp100
g21
S'curve'
p101
sS'x'
I341
sg23
I1
sS'y'
I451
sa(dp102
S'y'
I490
sS'x'
I340
sg23
I0
sa(dp103
S'y'
I523
sS'x'
I326
sg23
I0
sa(dp104
g21
S'curve'
p105
sS'x'
I284
sg23
I1
sS'y'
I524
sa(dp106
S'y'
I525
sS'x'
I229
sg23
I0
sa(dp107
S'y'
I469
sS'x'
I189
sg23
I0
sa(dp108
g21
S'curve'
p109
sS'x'
I179
sg23
I0
sS'y'
I429
sa(dp110
S'y'
I431
sS'x'
I146
sg23
I0
sa(dp111
S'y'
I450
sS'x'
I104
sg23
I0
sa(dp112
g21
S'curve'
p113
sS'x'
I110
sg23
I1
sS'y'
I498
sa(dp114
S'y'
I544
sS'x'
I116
sg23
I0
sa(dp115
S'y'
I589
sS'x'
I161
sg23
I0
sa(dp116
g21
S'curve'
p117
sS'x'
I240
sg23
I1
sS'y'
I589
sa(dp118
S'y'
I589
sS'x'
I400
sg23
I0
sa(dp119
S'y'
I437
sS'x'
I404
sg23
I0
sa(dp120
g21
S'curve'
p121
sS'x'
I384
sg23
I0
sS'y'
I347
sasasS'components'
p122
(lp123
sS'anchors'
p124
(lp125
(dp126
S'y'
I255
sS'x'
I737
sg8
S'_si_MaU'
p127
sa(dp128
S'y'
I527
sS'x'
I713
sg8
S'Virama'
p129
sassS'Jan 18 17, 22:45'
p130
(dp131
g8
S'sinPa'
p132
sg10
(dp133
sg12
(lp134
sg14
I816
sg15
(lp135
(dp136
g18
(lp137
(dp138
g21
S'line'
p139
sS'x'
I370
sg23
I0
sS'y'
I332
sa(dp140
S'y'
I336
sS'x'
I341
sg23
I0
sa(dp141
S'y'
I338
sS'x'
I314
sg23
I0
sa(dp142
g21
S'curve'
p143
sS'x'
I289
sg23
I1
sS'y'
I338
sa(dp144
S'y'
I338
sS'x'
I178
sg23
I0
sa(dp145
S'y'
I300
sS'x'
I101
sg23
I0
sa(dp146
g21
S'curve'
p147
sS'x'
I101
sg23
I1
sS'y'
I233
sa(dp148
S'y'
I150
sS'x'
I101
sg23
I0
sa(dp149
S'y'
I82
sS'x'
I208
sg23
I0
sa(dp150
g21
S'curve'
p151
sS'x'
I411
sg23
I1
sS'y'
I82
sa(dp152
S'y'
I82
sS'x'
I584
sg23
I0
sa(dp153
S'y'
I165
sS'x'
I708
sg23
I0
sa(dp154
g21
S'curve'
p155
sS'x'
I708
sg23
I1
sS'y'
I258
sa(dp156
S'y'
I326
sS'x'
I708
sg23
I0
sa(dp157
S'y'
I353
sS'x'
I650
sg23
I0
sa(dp158
g21
S'curve'
p159
sS'x'
I580
sg23
I1
sS'y'
I353
sa(dp160
S'y'
I353
sS'x'
I535
sg23
I0
sa(dp161
S'y'
I337
sS'x'
I489
sg23
I0
sa(dp162
g21
S'curve'
p163
sS'x'
I448
sg23
I0
sS'y'
I322
sa(dp164
g21
S'line'
p165
sS'x'
I435
sg23
I0
sS'y'
I333
sa(dp166
S'y'
I473
sS'x'
I419
sg23
I0
sa(dp167
S'y'
I590
sS'x'
I485
sg23
I0
sa(dp168
g21
S'curve'
p169
sS'x'
I624
sg23
I1
sS'y'
I590
sa(dp170
S'y'
I590
sS'x'
I714
sg23
I0
sa(dp171
S'y'
I531
sS'x'
I746
sg23
I0
sa(dp172
g21
S'curve'
p173
sS'x'
I746
sg23
I1
sS'y'
I484
sa(dp174
S'y'
I414
sS'x'
I746
sg23
I0
sa(dp175
S'y'
I373
sS'x'
I698
sg23
I0
sa(dp176
g21
S'curve'
p177
sS'x'
I664
sg23
I0
sS'y'
I360
sa(dp178
g21
S'line'
p179
sS'x'
I647
sg23
I0
sS'y'
I378
sa(dp180
S'y'
I387
sS'x'
I653
sg23
I0
sa(dp181
S'y'
I408
sS'x'
I680
sg23
I0
sa(dp182
g21
S'curve'
p183
sS'x'
I680
sg23
I1
sS'y'
I455
sa(dp184
S'y'
I503
sS'x'
I680
sg23
I0
sa(dp185
S'y'
I531
sS'x'
I638
sg23
I0
sa(dp186
g21
S'curve'
p187
sS'x'
I589
sg23
I1
sS'y'
I531
sa(dp188
S'y'
I531
sS'x'
I536
sg23
I0
sa(dp189
S'y'
I498
sS'x'
I489
sg23
I0
sa(dp190
g21
S'curve'
p191
sS'x'
I489
sg23
I1
sS'y'
I439
sa(dp192
S'y'
I405
sS'x'
I489
sg23
I0
sa(dp193
S'y'
I393
sS'x'
I503
sg23
I0
sa(dp194
g21
S'curve'
p195
sS'x'
I513
sg23
I0
sS'y'
I379
sa(dp196
g21
S'line'
p197
sS'x'
I455
sg23
I0
sS'y'
I395
sa(dp198
S'y'
I409
sS'x'
I484
sg23
I0
sa(dp199
S'y'
I416
sS'x'
I519
sg23
I0
sa(dp200
g21
S'curve'
p201
sS'x'
I570
sg23
I1
sS'y'
I416
sa(dp202
S'y'
I416
sS'x'
I675
sg23
I0
sa(dp203
S'y'
I357
sS'x'
I754
sg23
I0
sa(dp204
g21
S'curve'
p205
sS'x'
I754
sg23
I1
sS'y'
I251
sa(dp206
S'y'
I91
sS'x'
I754
sg23
I0
sa(dp207
S'y'
I-26
sS'x'
I602
sg23
I0
sa(dp208
g21
S'curve'
p209
sS'x'
I417
sg23
I1
sS'y'
I-26
sa(dp210
S'y'
I-26
sS'x'
I152
sg23
I0
sa(dp211
S'y'
I101
sS'x'
I60
sg23
I0
sa(dp212
g21
S'curve'
p213
sS'x'
I60
sg23
I1
sS'y'
I220
sa(dp214
S'y'
I339
sS'x'
I60
sg23
I0
sa(dp215
S'y'
I413
sS'x'
I186
sg23
I0
sa(dp216
g21
S'curve'
p217
sS'x'
I310
sg23
I1
sS'y'
I413
sa(dp218
S'y'
I413
sS'x'
I325
sg23
I0
sa(dp219
S'y'
I412
sS'x'
I340
sg23
I0
sa(dp220
g21
S'curve'
p221
sS'x'
I355
sg23
I0
sS'y'
I410
sa(dp222
g21
S'line'
p223
sS'x'
I307
sg23
I0
sS'y'
I372
sa(dp224
S'y'
I383
sS'x'
I320
sg23
I0
sa(dp225
S'y'
I409
sS'x'
I347
sg23
I0
sa(dp226
g21
S'curve'
p227
sS'x'
I347
sg23
I1
sS'y'
I452
sa(dp228
S'y'
I492
sS'x'
I347
sg23
I0
sa(dp229
S'y'
I524
sS'x'
I327
sg23
I0
sa(dp230
g21
S'curve'
p231
sS'x'
I283
sg23
I1
sS'y'
I524
sa(dp232
S'y'
I524
sS'x'
I228
sg23
I0
sa(dp233
S'y'
I469
sS'x'
I189
sg23
I0
sa(dp234
g21
S'curve'
p235
sS'x'
I179
sg23
I0
sS'y'
I429
sa(dp236
S'y'
I431
sS'x'
I146
sg23
I0
sa(dp237
S'y'
I448
sS'x'
I110
sg23
I0
sa(dp238
g21
S'curve'
p239
sS'x'
I110
sg23
I1
sS'y'
I496
sa(dp240
S'y'
I545
sS'x'
I110
sg23
I0
sa(dp241
S'y'
I589
sS'x'
I160
sg23
I0
sa(dp242
g21
S'curve'
p243
sS'x'
I239
sg23
I1
sS'y'
I589
sa(dp244
S'y'
I589
sS'x'
I360
sg23
I0
sa(dp245
S'y'
I502
sS'x'
I392
sg23
I0
sa(dp246
g21
S'curve'
p247
sS'x'
I392
sg23
I1
sS'y'
I421
sa(dp248
S'y'
I395
sS'x'
I392
sg23
I0
sa(dp249
S'y'
I369
sS'x'
I389
sg23
I0
sa(dp250
g21
S'curve'
p251
sS'x'
I384
sg23
I0
sS'y'
I347
sasasg122
(lp252
sg124
(lp253
(dp254
S'y'
I255
sS'x'
I737
sg8
S'_si_MaU'
p255
sa(dp256
S'y'
I527
sS'x'
I713
sg8
S'Virama'
p257
sasss."
EndChar
StartChar: sinPha
Encoding: 690 3509 537
GlifName: sinP_ha
Width: 625
VWidth: 0
Flags: W
LayerCount: 2
Fore
SplineSet
248 630 m 257
 222 566 l 257
 366 566 529 465 529 298 c 256
 529 157 436 75 284 75 c 256
 169 75 88 106 88 163 c 256
 88 220 157 240 239 240 c 256
 259 240 280 239 299 236 c 257
 315 248 l 257
 318 260 319 271 319 285 c 256
 319 354 276 434 175 434 c 256
 129 434 85 408 85 363 c 256
 85 337 106 320 143 324 c 257
 144 333 163 377 211 377 c 256
 249 377 283 350 280 300 c 257
 258 300 l 258
 175 300 50 261 50 146 c 256
 50 53 139 -14 281 -14 c 256
 457 -14 575 111 575 298 c 256
 575 513 409 630 248 630 c 257
  PathStart: -2
501 476 m 257
 480 467 447 461 411 461 c 256
 294 461 248 516 248 630 c 257
 217 614 l 257
 215 605 212 584 212 565 c 256
 212 469 265 417 370 417 c 256
 427 417 485 434 509 455 c 257
 501 476 l 257
EndSplineSet
Validated: 37
PickledDataWithLists: "(dp1
S'com.schriftgestaltung.Glyphs.lastChange'
p2
S'2018-07-27 16:12:40 +0000'
p3
s."
EndChar
StartChar: sinBa
Encoding: 317 3510 164
GlifName: sinB_a
Width: 653
VWidth: 0
Flags: W
LayerCount: 2
Fore
SplineSet
261 332 m 256
 320 332 388 315 422 258 c 257
 380 257 305 213 305 120 c 256
 305 58 346 -9 432 -9 c 256
 559 -9 614 122 614 251 c 256
 614 462 467 598 288 598 c 256
 224 598 163 582 126 563 c 257
 118 547 115 515 119 490 c 257
 119 488 191 527 296 527 c 256
 467 527 566 427 566 276 c 256
 566 169 513 70 416 70 c 256
 381 70 343 89 343 135 c 256
 343 181 399 206 439 197 c 257
 448 200 455 202 462 208 c 257
 458 316 379 411 263 411 c 256
 132 411 62 298 62 162 c 256
 62 90 98 -6 194 -6 c 256
 249 -6 287 36 287 94 c 256
 287 144 259 185 209 185 c 256
 159 185 135 145 135 107 c 256
 135 82 142 64 152 48 c 257
 187 30 l 257
 172 46 169 57 169 72 c 256
 169 116 197 127 217 127 c 256
 237 127 257 116 257 93 c 256
 257 60 217 49 195 49 c 256
 152 49 93 86 93 173 c 256
 93 271 165 332 261 332 c 256
  PathStart: -2
EndSplineSet
Validated: 37
PickledDataWithLists: "(dp1
S'com.schriftgestaltung.Glyphs.lastChange'
p2
S'2018-07-27 16:12:40 +0000'
p3
sS'com.typemytype.robofont.layerData'
p4
(dp5
S'Jan 19 17, 02:25'
p6
(dp7
S'name'
p8
S'sinBa'
p9
sS'lib'
p10
(dp11
sS'unicodes'
p12
(lp13
sS'width'
p14
I848
sS'contours'
p15
(lp16
(dp17
S'points'
p18
(lp19
(dp20
S'segmentType'
p21
S'curve'
p22
sS'x'
I55
sS'smooth'
p23
I1
sS'y'
I180
sa(dp24
S'y'
I186
sS'x'
I55
sg23
I0
sa(dp25
S'y'
I193
sS'x'
I55
sg23
I0
sa(dp26
g21
S'curve'
p27
sS'x'
F55.433999999999997
sg23
I1
sS'y'
I200
sa(dp28
S'y'
I379
sS'x'
I67
sg23
I0
sa(dp29
S'y'
I502
sS'x'
I187
sg23
I0
sa(dp30
g21
S'curve'
p31
sS'x'
I339
sg23
I1
sS'y'
I502
sa(dp32
S'y'
I502
sS'x'
I473
sg23
I0
sa(dp33
S'y'
I410
sS'x'
I543
sg23
I0
sa(dp34
g21
S'curve'
p35
sS'x'
F535.25099999999998
sg23
I0
sS'y'
I311
sa(dp36
S'y'
I308
sS'x'
F490.09399999999999
sg23
I0
sa(dp37
S'y'
F270.02999999999997
sS'x'
F433.60500000000002
sg23
I0
sa(dp38
g21
S'curve'
p39
sS'x'
F425.01400000000001
sg23
I1
sS'y'
I192
sa(dp40
S'y'
I188
sS'x'
I425
sg23
I0
sa(dp41
S'y'
I184
sS'x'
I424
sg23
I0
sa(dp42
g21
S'curve'
p43
sS'x'
I424
sg23
I1
sS'y'
I181
sa(dp44
S'y'
I135
sS'x'
I424
sg23
I0
sa(dp45
S'y'
I104
sS'x'
I459
sg23
I0
sa(dp46
g21
S'curve'
p47
sS'x'
I534
sg23
I1
sS'y'
I104
sa(dp48
S'y'
I104
sS'x'
I674
sg23
I0
sa(dp49
S'y'
I265
sS'x'
I738
sg23
I0
sa(dp50
g21
S'curve'
p51
sS'x'
I738
sg23
I1
sS'y'
I384
sa(dp52
S'y'
I581
sS'x'
I738
sg23
I0
sa(dp53
S'y'
I688
sS'x'
I599
sg23
I0
sa(dp54
g21
S'curve'
p55
sS'x'
I369
sg23
I1
sS'y'
I688
sa(dp56
S'y'
I688
sS'x'
I243
sg23
I0
sa(dp57
S'y'
I626
sS'x'
I155
sg23
I0
sa(dp58
g21
S'curve'
p59
sS'x'
I154
sg23
I1
sS'y'
I627
sa(dp60
S'y'
I629
sS'x'
I151
sg23
I0
sa(dp61
S'y'
I635
sS'x'
I149
sg23
I0
sa(dp62
g21
S'curve'
p63
sS'x'
I149
sg23
I1
sS'y'
I643
sa(dp64
S'y'
I665
sS'x'
I149
sg23
I0
sa(dp65
S'y'
I704
sS'x'
I160
sg23
I0
sa(dp66
g21
S'curve'
p67
sS'x'
I174
sg23
I0
sS'y'
I726
sa(dp68
S'y'
I754
sS'x'
I218
sg23
I0
sa(dp69
S'y'
I778
sS'x'
I289
sg23
I0
sa(dp70
g21
S'curve'
p71
sS'x'
I381
sg23
I1
sS'y'
I778
sa(dp72
S'y'
I778
sS'x'
I610
sg23
I0
sa(dp73
S'y'
I625
sS'x'
I810
sg23
I0
sa(dp74
g21
S'curve'
p75
sS'x'
F797.55700000000002
sg23
I1
sS'y'
I355
sa(dp76
S'y'
I148
sS'x'
I789
sg23
I0
sa(dp77
S'y'
I-12
sS'x'
I698
sg23
I0
sa(dp78
g21
S'curve'
p79
sS'x'
I536
sg23
I1
sS'y'
I-12
sa(dp80
S'y'
I-12
sS'x'
I401
sg23
I0
sa(dp81
S'y'
I84
sS'x'
I363
sg23
I0
sa(dp82
g21
S'curve'
p83
sS'x'
F368.18000000000001
sg23
I1
sS'y'
I157
sa(dp84
S'y'
F267.19
sS'x'
F375.95499999999998
sg23
I0
sa(dp85
S'y'
F322.286
sS'x'
F439.84199999999998
sg23
I0
sa(dp86
g21
S'curve'
p87
sS'x'
F497.50900000000001
sg23
I0
sS'y'
I335
sa(dp88
S'y'
I363
sS'x'
I486
sg23
I0
sa(dp89
S'y'
I407
sS'x'
I397
sg23
I0
sa(dp90
g21
S'curve'
p91
sS'x'
I312
sg23
I1
sS'y'
I407
sa(dp92
S'y'
I407
sS'x'
I204
sg23
I0
sa(dp93
S'y'
I329
sS'x'
I93
sg23
I0
sa(dp94
g21
S'curve'
p95
sS'x'
I93
sg23
I1
sS'y'
I201
sa(dp96
S'y'
I112
sS'x'
I93
sg23
I0
sa(dp97
S'y'
I64
sS'x'
I161
sg23
I0
sa(dp98
g21
S'curve'
p99
sS'x'
F194.93899999999999
sg23
I0
sS'y'
I57
sa(dp100
g21
S'line'
p101
sS'x'
F168.67699999999999
sg23
I0
sS'y'
I52
sa(dp102
S'y'
I69
sS'x'
I160
sg23
I0
sa(dp103
S'y'
I87
sS'x'
I156
sg23
I0
sa(dp104
g21
S'curve'
p105
sS'x'
I156
sg23
I1
sS'y'
I105
sa(dp106
S'y'
I157
sS'x'
I156
sg23
I0
sa(dp107
S'y'
I207
sS'x'
I192
sg23
I0
sa(dp108
g21
S'curve'
p109
sS'x'
F255.80000000000001
sg23
I1
sS'y'
I207
sa(dp110
S'y'
F206.727
sS'x'
F305.82900000000001
sg23
I0
sa(dp111
S'y'
F161.00299999999999
sS'x'
F345.279
sg23
I0
sa(dp112
g21
S'curve'
p113
sS'x'
F340.45499999999998
sg23
I1
sS'y'
I105
sa(dp114
S'y'
F35.152000000000001
sS'x'
F334.43799999999999
sg23
I0
sa(dp115
S'y'
I-18
sS'x'
F291.00900000000001
sg23
I0
sa(dp116
g21
S'curve'
p117
sS'x'
I233
sg23
I1
sS'y'
I-18
sa(dp118
S'y'
I-18
sS'x'
I105
sg23
I0
sa(dp119
S'y'
I77
sS'x'
I55
sg23
I0
sasa(dp120
g18
(lp121
(dp122
g21
S'curve'
p123
sS'x'
I195
sg23
I1
sS'y'
I101
sa(dp124
S'y'
I78
sS'x'
I195
sg23
I0
sa(dp125
S'y'
I59
sS'x'
I206
sg23
I0
sa(dp126
g21
S'curve'
p127
sS'x'
I237
sg23
I1
sS'y'
I59
sa(dp128
S'y'
I59
sS'x'
I270
sg23
I0
sa(dp129
S'y'
I95
sS'x'
I288
sg23
I0
sa(dp130
g21
S'curve'
p131
sS'x'
I288
sg23
I1
sS'y'
I125
sa(dp132
S'y'
I153
sS'x'
I288
sg23
I0
sa(dp133
S'y'
I164
sS'x'
I268
sg23
I0
sa(dp134
g21
S'curve'
p135
sS'x'
F245.547
sg23
I1
sS'y'
I164
sa(dp136
S'y'
I164
sS'x'
I217
sg23
I0
sa(dp137
S'y'
I135
sS'x'
I195
sg23
I0
sasasS'components'
p138
(lp139
sS'anchors'
p140
(lp141
(dp142
S'y'
I363
sS'x'
I799
sg8
S'rakaransaya'
p143
sasss."
EndChar
StartChar: sinBha
Encoding: 327 3511 174
GlifName: sinB_ha
Width: 799
VWidth: 0
Flags: W
LayerCount: 2
Fore
SplineSet
295 -8 m 256
 421 -8 495 81 495 172 c 256
 495 263 434 301 398 301 c 257
 388 253 l 257
 408 253 461 239 461 185 c 256
 460 129 396 75 273 77 c 256
 194 78 125 115 125 168 c 256
 125 260 241 276 325 253 c 257
 334 264 l 257
 354 338 336 456 222 456 c 256
 154 456 108 418 106 379 c 256
 103 342 132 324 165 323 c 257
 174 350 189 399 233 407 c 257
 256 410 289 403 296 377 c 256
 302 353 294 321 288 309 c 257
 182 310 91 263 90 160 c 256
 89 65 168 -8 295 -8 c 256
522 -10 m 257
 673 -7 749 117 749 248 c 256
 749 371 667 454 575 454 c 256
 434 454 359 333 354 170 c 257
 359 169 363 169 368 169 c 256
 375 169 382 169 390 170 c 257
 388 177 387 190 387 197 c 256
 387 305 448 364 564 364 c 256
 628 364 702 323 703 226 c 256
 704 141 647 66 548 66 c 256
 532 66 510 69 493 73 c 257
 493 72 483 69 483 67 c 256
 483 50 503 7 522 -10 c 257
14 223 m 257
 57 248 166 303 301 294 c 257
 314 309 l 257
 230 310 82 307 20 296 c 257
 10 275 6 253 5 230 c 257
 14 223 l 257
EndSplineSet
Validated: 37
PickledDataWithLists: "(dp1
S'com.schriftgestaltung.Glyphs.rightMetricsKey'
p2
S'sinBha'
p3
sS'com.schriftgestaltung.Glyphs.lastChange'
p4
S'2018-07-27 16:12:40 +0000'
p5
sS'com.schriftgestaltung.Glyphs.leftMetricsKey'
p6
S'sinBHa'
p7
s."
EndChar
StartChar: sinMa
Encoding: 539 3512 386
GlifName: sinM_a
Width: 651
VWidth: 0
Flags: W
LayerCount: 2
Fore
SplineSet
621 286 m 256
 621 475 492 602 309 602 c 256
 239 602 180 586 152 571 c 257
 145 557 141 519 145 501 c 257
 215 531 275 534 305 534 c 256
 461 534 578 457 578 305 c 256
 578 180 490 61 314 61 c 256
 193 61 87 126 87 227 c 256
 87 312 135 333 164 338 c 257
 155 366 l 257
 155 346 153 146 324 146 c 256
 428 146 480 225 480 302 c 256
 480 386 421 455 352 455 c 256
 278 455 250 401 250 357 c 256
 250 308 278 277 325 277 c 256
 374 277 412 311 412 367 c 256
 412 380 410 396 404 413 c 257
 390 416 l 257
 386 337 348 325 324 325 c 256
 305 325 281 333 281 357 c 256
 281 382 309 405 355 405 c 256
 405 405 445 372 445 314 c 256
 445 256 399 210 324 210 c 256
 200 210 177 351 188 388 c 257
 182 397 173 405 166 407 c 257
 103 388 50 325 50 230 c 256
 50 85 150 -25 326 -25 c 256
 525 -25 621 129 621 286 c 256
  PathStart: -2
EndSplineSet
Validated: 37
PickledDataWithLists: "(dp1
S'com.schriftgestaltung.Glyphs.lastChange'
p2
S'2018-07-27 16:12:40 +0000'
p3
s."
EndChar
StartChar: sinMba
Encoding: 579 3513 426
GlifName: sinM_ba
Width: 626
VWidth: 0
Flags: W
LayerCount: 2
Fore
SplineSet
134 348 m 257
 125 376 l 257
 125 373 123 186 300 186 c 256
 398 186 450 239 450 322 c 256
 450 401 388 465 316 465 c 256
 242 465 215 415 215 368 c 256
 215 319 248 287 295 287 c 256
 344 287 382 321 382 377 c 256
 382 390 380 406 374 423 c 257
 360 426 l 257
 356 347 318 335 294 335 c 256
 275 335 254 343 254 365 c 256
 254 388 279 415 325 415 c 256
 375 415 412 386 412 339 c 256
 412 269 369 239 304 239 c 256
 170 239 147 361 158 398 c 257
 152 407 143 415 136 417 c 257
 73 398 20 304 20 206 c 256
 20 104 67 -14 182 -14 c 256
 278 -14 294 49 294 79 c 256
 294 104 302 111 322 111 c 256
 334 111 345 106 345 90 c 256
 345 87 344 83 343 79 c 257
 342 73 341 67 341 60 c 256
 341 25 362 -15 431 -15 c 256
 551 -15 596 145 596 285 c 256
 596 434 499 616 269 616 c 256
 229 616 161 605 125 588 c 257
 119 572 116 552 116 535 c 256
 116 526 117 519 118 513 c 257
 154 530 213 545 280 545 c 256
 438 545 549 444 549 292 c 256
 549 167 515 72 428 72 c 256
 390 72 368 92 368 118 c 256
 368 139 372 146 377 163 c 257
 355 165 338 165 329 165 c 256
 305 165 281 162 256 156 c 257
 256 129 264 68 193 68 c 256
 111 68 58 128 58 209 c 256
 58 291 104 341 134 348 c 257
  PathStart: -2
EndSplineSet
Validated: 37
PickledDataWithLists: "(dp1
S'com.schriftgestaltung.Glyphs.rightMetricsKey'
p2
S'sinMa'
p3
sS'com.schriftgestaltung.Glyphs.lastChange'
p4
S'2018-07-27 16:12:40 +0000'
p5
s."
EndChar
StartChar: sinYa
Encoding: 811 3514 658
GlifName: sinY_a
Width: 664
VWidth: 0
Flags: W
LayerCount: 2
Fore
SplineSet
629 162 m 256
 630 245 578 316 485 316 c 256
 439 316 415 306 384 295 c 257
 434 278 l 257
 425 291 414 313 414 344 c 256
 414 390 445 417 486 417 c 256
 527 417 557 392 557 348 c 256
 557 315 538 288 534 282 c 257
 555 276 l 257
 580 288 613 329 613 374 c 256
 613 419 582 462 509 462 c 256
 438 462 367 403 367 299 c 256
 367 282 369 265 372 250 c 257
 383 241 l 257
 414 253 446 261 478 261 c 256
 533 261 594 238 594 173 c 256
 594 113 548 59 465 59 c 256
 387 59 346 106 346 152 c 256
 346 160 347 168 348 173 c 257
 327 169 l 257
 308 97 252 65 190 65 c 256
 124 65 63 99 63 172 c 256
 63 255 144 319 280 306 c 257
 291 317 l 257
 291 340 285 366 275 380 c 257
 106 373 30 279 30 162 c 256
 30 32 110 -20 190 -20 c 256
 288 -20 329 61 344 103 c 257
 346 105 321 108 322 109 c 257
 320 101 318 93 318 83 c 256
 318 30 374 -22 458 -22 c 256
 567 -22 629 58 629 162 c 256
  PathStart: -2
EndSplineSet
Validated: 37
PickledDataWithLists: "(dp1
S'com.schriftgestaltung.Glyphs.lastChange'
p2
S'2018-07-27 16:12:40 +0000'
p3
s."
EndChar
StartChar: sinRa
Encoding: 698 3515 545
GlifName: sinR_a
Width: 528
VWidth: 0
Flags: W
LayerCount: 2
Fore
SplineSet
493 226 m 256
 493 286 475 344 438 380 c 256
 406 412 361 429 313 429 c 256
 200 429 132 342 109 319 c 258
 85 295 l 257
 77 270 70 262 72 236 c 257
 123 319 217 353 290 354 c 256
 326 354 361 350 393 336 c 256
 428 321 454 284 453 238 c 256
 451 158 379 47 240 47 c 256
 124 47 71 107 71 187 c 256
 71 221 80 240 88 259 c 257
 88 259 119 328 127 336 c 257
 181 405 355 547 413 623 c 257
 410 654 380 675 369 676 c 257
 250 507 35 370 35 179 c 256
 35 83 85 -30 253 -29 c 256
 387 -28 493 70 493 226 c 256
  PathStart: -2
EndSplineSet
Validated: 37
PickledDataWithLists: "(dp1
S'com.schriftgestaltung.Glyphs.lastChange'
p2
S'2018-07-27 16:12:40 +0000'
p3
s."
EndChar
StartChar: sinLa
Encoding: 523 3517 370
GlifName: sinL_a
Width: 602
VWidth: 0
Flags: W
LayerCount: 2
Fore
SplineSet
561 -99 m 257
 564 -85 551 -64 546 -61 c 257
 492 -92 424 -115 333 -115 c 256
 218 -115 76 -50 76 136 c 256
 76 266 170 385 330 385 c 256
 448 385 528 328 528 236 c 256
 528 184 493 129 419 129 c 256
 376 129 323 148 323 195 c 256
 323 236 357 261 393 275 c 257
 353 265 l 257
 430 265 l 257
 435 282 435 290 435 300 c 257
 205 300 l 257
 199 290 196 276 196 265 c 257
 328 265 l 257
 329 267 353 270 353 272 c 257
 293 266 259 227 258 180 c 256
 257 128 301 78 393 78 c 256
 502 78 572 163 572 255 c 256
 572 351 507 458 349 457 c 256
 173 456 31 303 31 100 c 256
 31 -32 110 -195 326 -195 c 256
 450 -195 535 -136 561 -99 c 257
  PathStart: -2
EndSplineSet
Validated: 37
PickledDataWithLists: "(dp1
S'com.schriftgestaltung.Glyphs.lastChange'
p2
S'2018-07-27 16:12:40 +0000'
p3
sS'com.typemytype.robofont.layerData'
p4
(dp5
S'Regular Oct 20 16, 20:13'
p6
(dp7
S'name'
p8
S'sinLa'
p9
sS'lib'
p10
(dp11
sS'unicodes'
p12
(lp13
sS'width'
p14
I852
sS'contours'
p15
(lp16
(dp17
S'points'
p18
(lp19
(dp20
S'segmentType'
p21
S'curve'
p22
sS'x'
I48
sS'smooth'
p23
I1
sS'y'
I123
sa(dp24
S'y'
I387
sS'x'
I48
sg23
I0
sa(dp25
S'y'
I593
sS'x'
I223
sg23
I0
sa(dp26
g21
S'curve'
p27
sS'x'
I498
sg23
I1
sS'y'
I594
sa(dp28
S'y'
I595
sS'x'
I709
sg23
I0
sa(dp29
S'y'
I456
sS'x'
I814
sg23
I0
sa(dp30
g21
S'curve'
p31
sS'x'
I814
sg23
I1
sS'y'
I331
sa(dp32
S'y'
I212
sS'x'
I814
sg23
I0
sa(dp33
S'y'
I111
sS'x'
I730
sg23
I0
sa(dp34
g21
S'curve'
p35
sS'x'
I594
sg23
I1
sS'y'
I109
sa(dp36
S'y'
I108
sS'x'
I494
sg23
I0
sa(dp37
S'y'
I156
sS'x'
I422
sg23
I0
sa(dp38
g21
S'curve'
p39
sS'x'
I423
sg23
I1
sS'y'
I229
sa(dp40
S'y'
I285
sS'x'
I424
sg23
I0
sa(dp41
S'y'
I333
sS'x'
I479
sg23
I0
sa(dp42
g21
S'curve'
p43
sS'x'
I540
sg23
I0
sS'y'
I343
sa(dp44
S'y'
I340
sS'x'
I539
sg23
I0
sa(dp45
S'y'
I337
sS'x'
I538
sg23
I0
sa(dp46
g21
S'curve'
p47
sS'x'
I537
sg23
I0
sS'y'
I334
sa(dp48
g21
S'line'
p49
sS'x'
I296
sg23
I0
sS'y'
I334
sa(dp50
S'y'
I349
sS'x'
I298
sg23
I0
sa(dp51
S'y'
I360
sS'x'
I293
sg23
I0
sa(dp52
g21
S'curve'
p53
sS'x'
I301
sg23
I0
sS'y'
I379
sa(dp54
g21
S'line'
p55
sS'x'
I636
sg23
I0
sS'y'
I379
sa(dp56
S'y'
I367
sS'x'
I636
sg23
I0
sa(dp57
S'y'
I356
sS'x'
I636
sg23
I0
sa(dp58
g21
S'curve'
p59
sS'x'
I629
sg23
I0
sS'y'
I334
sa(dp60
S'y'
I334
sS'x'
I566
sg23
I0
sa(dp61
S'y'
I292
sS'x'
I501
sg23
I0
sa(dp62
g21
S'curve'
p63
sS'x'
I501
sg23
I1
sS'y'
I248
sa(dp64
S'y'
I187
sS'x'
I501
sg23
I0
sa(dp65
S'y'
I165
sS'x'
I553
sg23
I0
sa(dp66
g21
S'curve'
p67
sS'x'
I610
sg23
I1
sS'y'
I165
sa(dp68
S'y'
I165
sS'x'
I696
sg23
I0
sa(dp69
S'y'
I229
sS'x'
I739
sg23
I0
sa(dp70
g21
S'curve'
p71
sS'x'
I739
sg23
I1
sS'y'
I297
sa(dp72
S'y'
I416
sS'x'
I739
sg23
I0
sa(dp73
S'y'
I515
sS'x'
I634
sg23
I0
sa(dp74
g21
S'curve'
p75
sS'x'
I460
sg23
I1
sS'y'
I515
sa(dp76
S'y'
I515
sS'x'
I283
sg23
I0
sa(dp77
S'y'
I389
sS'x'
I123
sg23
I0
sa(dp78
g21
S'curve'
p79
sS'x'
I123
sg23
I1
sS'y'
I176
sa(dp80
S'y'
I-48
sS'x'
I123
sg23
I0
sa(dp81
S'y'
I-168
sS'x'
I283
sg23
I0
sa(dp82
g21
S'curve'
p83
sS'x'
I483
sg23
I1
sS'y'
I-168
sa(dp84
S'y'
I-168
sS'x'
I591
sg23
I0
sa(dp85
S'y'
I-140
sS'x'
I690
sg23
I0
sa(dp86
g21
S'curve'
p87
sS'x'
I760
sg23
I0
sS'y'
I-99
sa(dp88
S'y'
I-101
sS'x'
I763
sg23
I0
sa(dp89
S'y'
I-112
sS'x'
I765
sg23
I0
sa(dp90
g21
S'curve'
p91
sS'x'
I765
sg23
I1
sS'y'
I-125
sa(dp92
S'y'
I-138
sS'x'
I765
sg23
I0
sa(dp93
S'y'
I-147
sS'x'
I765
sg23
I0
sa(dp94
g21
S'curve'
p95
sS'x'
I760
sg23
I0
sS'y'
I-158
sa(dp96
S'y'
I-226
sS'x'
I696
sg23
I0
sa(dp97
S'y'
I-263
sS'x'
I596
sg23
I0
sa(dp98
g21
S'curve'
p99
sS'x'
I464
sg23
I1
sS'y'
I-263
sa(dp100
S'y'
I-263
sS'x'
I194
sg23
I0
sa(dp101
S'y'
I-74
sS'x'
I48
sg23
I0
sasasS'components'
p102
(lp103
sS'anchors'
p104
(lp105
sss."
EndChar
StartChar: sinVa
Encoding: 795 3520 642
GlifName: sinV_a
Width: 609
VWidth: 0
Flags: W
LayerCount: 2
Fore
SplineSet
559 296 m 256
 559 495 428 604 275 604 c 256
 225 604 159 590 124 573 c 257
 114 551 117 519 120 504 c 257
 141 515 204 533 262 533 c 256
 407 533 514 455 514 308 c 256
 514 180 436 64 274 62 c 256
 172 60 82 93 82 159 c 256
 82 213 161 243 239 243 c 256
 257 243 279 241 298 238 c 257
 313 250 l 257
 315 258 315 266 315 279 c 256
 315 350 273 426 180 426 c 256
 128 426 79 403 79 360 c 256
 79 331 100 311 140 316 c 257
 140 324 154 375 204 375 c 256
 241 375 268 357 268 299 c 257
 262 300 257 300 250 300 c 256
 174 300 44 271 44 143 c 256
 44 46 140 -21 266 -21 c 256
 477 -21 559 127 559 296 c 256
  PathStart: -2
EndSplineSet
Validated: 41
PickledDataWithLists: "(dp1
S'com.schriftgestaltung.Glyphs.lastChange'
p2
S'2018-07-27 16:12:40 +0000'
p3
s."
EndChar
StartChar: sinSha
Encoding: 723 3521 570
GlifName: sinS_ha
Width: 747
VWidth: 0
Flags: W
LayerCount: 2
Fore
SplineSet
245 -9 m 256
 367 -9 444 79 444 171 c 256
 444 237 398 300 333 299 c 257
 324 249 l 257
 354 248 405 230 405 180 c 256
 405 113 315 79 243 79 c 256
 150 79 88 135 88 211 c 256
 88 297 165 363 264 363 c 257
 269 370 274 408 274 432 c 256
 274 438 274 444 273 447 c 257
 177 446 49 357 49 204 c 256
 49 81 129 -9 245 -9 c 256
536 454 m 256
 395 454 293 341 280 162 c 257
 285 161 290 161 295 161 c 256
 302 161 308 161 316 162 c 257
 309 282 381 373 512 373 c 256
 606 373 681 305 681 215 c 256
 681 203 680 190 677 177 c 257
 665 186 642 198 601 198 c 256
 541 198 468 148 468 60 c 256
 468 39 475 9 495 -8 c 257
 643 -5 728 116 728 253 c 256
 728 369 657 454 536 454 c 256
544 66 m 256
 523 65 511 66 498 68 c 257
 511 121 552 135 589 135 c 256
 617 135 637 126 649 120 c 257
 625 88 588 67 544 66 c 256
EndSplineSet
Validated: 37
PickledDataWithLists: "(dp1
S'com.schriftgestaltung.Glyphs.lastChange'
p2
S'2018-07-27 16:12:40 +0000'
p3
s."
EndChar
StartChar: sinSsa
Encoding: 733 3522 580
GlifName: sinS_sa
Width: 616
VWidth: 0
Flags: W
LayerCount: 2
Fore
SplineSet
581 193 m 256
 581 275 520 320 439 320 c 256
 400 320 373 315 350 304 c 257
 395 292 l 257
 387 303 375 311 375 337 c 256
 375 383 413 409 454 409 c 256
 491 409 524 387 524 350 c 256
 524 314 505 298 501 291 c 257
 519 277 l 257
 545 287 574 319 574 373 c 256
 574 409 550 454 480 454 c 256
 373 454 323 364 335 256 c 257
 345 248 l 257
 377 259 411 272 447 272 c 256
 501 272 545 251 545 199 c 256
 545 127 450 63 316 63 c 256
 160 63 78 116 78 179 c 256
 78 231 137 260 223 260 c 256
 242 260 263 259 285 256 c 257
 296 267 l 257
 300 284 302 304 302 324 c 256
 302 387 277 454 184 454 c 256
 123 454 85 420 85 382 c 256
 85 345 112 332 138 330 c 257
 146 361 176 403 218 403 c 256
 252 403 267 379 267 348 c 256
 267 315 246 295 236 286 c 257
 273 316 l 257
 262 317 250 318 239 318 c 256
 143 318 46 261 46 169 c 256
 46 78 117 -20 321 -20 c 256
 464 -20 581 70 581 193 c 256
  PathStart: -2
434 173 m 256
 436 216 387 215 376 216 c 257
 357 208 l 257
 386 210 402 196 402 182 c 256
 402 157 350 146 293 146 c 256
 243 146 199 152 199 168 c 256
 199 191 284 188 319 189 c 256
 420 193 492 242 536 287 c 257
 511 303 l 257
 484 269 435 223 313 223 c 256
 263 223 169 228 169 165 c 256
 169 115 244 102 305 102 c 256
 385 102 431 135 434 173 c 256
  PathStart: -2
EndSplineSet
Validated: 37
PickledDataWithLists: "(dp1
S'com.schriftgestaltung.Glyphs.lastChange'
p2
S'2018-07-27 16:12:40 +0000'
p3
s."
EndChar
